<?xml version="1.0" encoding="UTF-8"?>
<svg xmlns="http://www.w3.org/2000/svg" width="42" height="43" viewBox="0 0 42 43" fill="none">
  <path fill-rule="evenodd" clip-rule="evenodd" d="M15.7374 10.875C12.5885 10.875 9.90101 13.3962 9.875 16.7283C9.8709 19.9895 12.5253 22.6001 15.7365 22.6001C18.8904 22.6001 21.5737 20.0749 21.5998 16.7467C21.6039 13.4824 18.9459 10.875 15.7374 10.875ZM15.7869 14.3117C15.804 13.9334 15.9454 13.4996 16.2687 12.9505C17.4804 13.1197 18.5116 13.8583 19.0829 14.887C17.8127 14.5551 16.837 14.8792 16.0436 15.3274C15.8704 14.999 15.7702 14.6789 15.7869 14.3117ZM13.3116 16.6879C12.9332 16.6708 12.4994 16.5294 11.9504 16.2061C12.1196 14.9945 12.8582 13.9632 13.8869 13.3919C13.555 14.6622 13.8791 15.6379 14.3272 16.4312C13.9989 16.6044 13.6788 16.7046 13.3116 16.6879ZM17.5879 20.0831C17.9198 18.8128 17.5956 17.8371 17.1475 17.0437C17.4758 16.8705 17.796 16.7704 18.1632 16.787C18.5415 16.8042 18.9754 16.9455 19.5244 17.2688C19.3552 18.4805 18.6166 19.5118 17.5879 20.0831ZM15.206 20.5245C13.9942 20.3552 12.9627 19.6164 12.3915 18.5874C13.4908 18.8754 14.4481 18.7021 15.4311 18.1476C15.6043 18.476 15.7045 18.7961 15.6878 19.1633C15.6707 19.5417 15.5293 19.9755 15.206 20.5245Z" fill="#B3B3B3"></path>
  <path fill-rule="evenodd" clip-rule="evenodd" d="M25.9094 10.875C25.6391 10.875 25.3801 10.9823 25.189 11.1734L23.7359 12.6266C23.5449 12.8176 23.4375 13.0767 23.4375 13.3469V15.7688C23.4375 16.3314 23.8936 16.7875 24.4562 16.7875H30.2687C30.8314 16.7875 31.2875 16.3314 31.2875 15.7688V13.3469C31.2875 13.0767 31.1801 12.8176 30.9891 12.6266L29.536 11.1734C29.345 10.9823 29.0858 10.875 28.8156 10.875H25.9094ZM25.475 13.7688L26.3313 12.9125H28.3936L29.25 13.7688V14.75H25.475V13.7688Z" fill="#B3B3B3"></path>
  <path fill-rule="evenodd" clip-rule="evenodd" d="M25.9094 18.625C25.6391 18.625 25.3801 18.7324 25.189 18.9234L23.7359 20.3766C23.5449 20.5676 23.4375 20.8267 23.4375 21.0969V23.5187C23.4375 24.0814 23.8936 24.5375 24.4562 24.5375H30.2687C30.8314 24.5375 31.2875 24.0814 31.2875 23.5187V21.0969C31.2875 20.8267 31.1801 20.5676 30.9891 20.3766L29.536 18.9234C29.345 18.7323 29.0858 18.625 28.8156 18.625H25.9094ZM25.475 21.5188L26.3313 20.6625H28.3936L29.25 21.5188V22.5H25.475V21.5188Z" fill="#B3B3B3"></path>
  <path fill-rule="evenodd" clip-rule="evenodd" d="M7.01875 7C6.45615 7 6 7.45608 6 8.01875V27.3937C6 27.9564 6.45615 28.4125 7.01875 28.4125H9.875V30.7844C9.875 33.2158 11.853 35.1937 14.2844 35.1937C20.0548 35.1937 23.5159 35.1924 25.5644 35.1916L25.9506 35.1914C26.9453 35.191 27.5556 35.1908 27.9172 35.1911C28.098 35.1913 28.2165 35.1915 28.2898 35.192L28.3422 35.1924C28.3682 36.8002 29.6842 38.1 31.298 38.1H33.175C33.7208 38.1 34.1665 37.6707 34.1925 37.1312H36.0812C36.6439 37.1312 37.1 36.6752 37.1 36.1125C37.1 35.5498 36.6439 35.0938 36.0812 35.0938H34.1937V33.2562H36.0812C36.6439 33.2562 37.1 32.8002 37.1 32.2375C37.1 31.6748 36.6439 31.2188 36.0812 31.2188H34.1925C34.1665 30.6793 33.7208 30.25 33.175 30.25H31.298C29.6924 30.25 28.37 31.5399 28.3422 33.1574C28.1812 33.1558 27.3866 33.1559 23.0875 33.156C21.046 33.1561 18.2141 33.1562 14.2844 33.1562C12.9766 33.1562 11.9125 32.0922 11.9125 30.7844V28.4125H34.1437C34.7064 28.4125 35.1625 27.9564 35.1625 27.3937V8.01875C35.1625 7.45608 34.7064 7 34.1437 7H7.01875ZM8.0375 26.375V9.0375H33.125V26.375H11.9125V24.4875C11.9125 23.9248 11.4564 23.4688 10.8938 23.4688C10.3312 23.4688 9.875 23.9248 9.875 24.4875V26.375H8.0375ZM30.3793 33.2062C30.3793 32.6997 30.7915 32.2875 31.298 32.2875H32.1562V36.0625H31.298C30.7915 36.0625 30.3793 35.6503 30.3793 35.1437V33.2062Z" fill="#B3B3B3"></path>
</svg>
