<?xml version="1.0" encoding="UTF-8"?>
<svg xmlns="http://www.w3.org/2000/svg" width="88" height="88" viewBox="0 0 88 88" fill="none">
  <path fill-rule="evenodd" clip-rule="evenodd" d="M61.9848 17.6001H24.4748C21.6546 17.6001 19.3599 19.8948 19.3599 22.715V67.0452C19.3599 69.8654 21.6546 72.1601 24.4748 72.1601H61.9848C64.8052 72.1601 67.0999 69.8654 67.0999 67.0452V22.715C67.0999 19.8948 64.8052 17.6001 61.9848 17.6001ZM24.4748 68.7501C23.5348 68.7501 22.7699 67.9852 22.7699 67.0452V60.2252H25.7077L32.9999 64.6004V68.7501H24.4748ZM63.6899 67.0452C63.6899 67.9852 62.925 68.7501 61.9848 68.7501H36.4099V63.635C36.4099 63.0363 36.0955 62.4812 35.5821 62.173L32.1265 60.0997L35.5411 56.6851C46.7986 62.3972 60.2799 54.1889 60.2799 41.4701C60.2799 32.0687 52.6313 24.4201 43.2299 24.4201C33.8285 24.4201 26.1799 32.0687 26.1799 41.4701C26.1799 46.8582 28.6928 51.6696 32.6074 54.7965L29.1126 58.2913C28.9334 58.1838 28.7681 58.084 28.6152 57.9914C28.5069 57.9257 28.4049 57.8636 28.3084 57.805L28.0787 57.6649C26.8854 56.937 26.6853 56.815 26.1799 56.815H22.7699V22.715C22.7699 21.775 23.5348 21.0101 24.4748 21.0101H61.9848C62.925 21.0101 63.6899 21.775 63.6899 22.715V67.0452ZM39.3204 50.4945C38.6546 49.8287 37.575 49.8287 36.9092 50.4945L35.036 52.3677C31.7307 49.8762 29.5899 45.9187 29.5899 41.4701C29.5899 33.9489 35.7087 27.8301 43.2299 27.8301C50.751 27.8301 56.8699 33.9489 56.8699 41.4701C56.8699 51.1628 47.0151 57.7291 38.113 54.1132L39.3204 52.9057C39.9864 52.2399 39.9864 51.1603 39.3204 50.4945ZM29.5899 26.1252C29.5899 27.0668 28.8265 27.8301 27.8849 27.8301C26.9432 27.8301 26.1799 27.0668 26.1799 26.1252C26.1799 25.1834 26.9432 24.4201 27.8849 24.4201C28.8265 24.4201 29.5899 25.1834 29.5899 26.1252ZM58.5749 27.8301C59.5165 27.8301 60.2799 27.0668 60.2799 26.1252C60.2799 25.1834 59.5165 24.4201 58.5749 24.4201C57.6332 24.4201 56.8699 25.1834 56.8699 26.1252C56.8699 27.0668 57.6332 27.8301 58.5749 27.8301ZM41.5248 60.2252C40.5834 60.2252 39.8199 60.9885 39.8199 61.9301V65.3401C39.8199 66.2817 40.5834 67.0452 41.5248 67.0452C42.4664 67.0452 43.2299 66.2817 43.2299 65.3401V61.9301C43.2299 60.9885 42.4664 60.2252 41.5248 60.2252ZM44.9348 61.9301C44.9348 60.9885 45.6983 60.2252 46.6399 60.2252C47.5815 60.2252 48.3448 60.9885 48.3448 61.9301V65.3401C48.3448 66.2817 47.5815 67.0452 46.6399 67.0452C45.6983 67.0452 44.9348 66.2817 44.9348 65.3401V61.9301ZM50.0499 61.9301C50.0499 60.9885 50.8133 60.2252 51.7549 60.2252C52.6964 60.2252 53.4599 60.9885 53.4599 61.9301V65.3401C53.4599 66.2817 52.6964 67.0452 51.7549 67.0452C50.8133 67.0452 50.0499 66.2817 50.0499 65.3401V61.9301ZM60.2799 63.635C60.2799 64.5768 59.5165 65.3401 58.5749 65.3401C57.6332 65.3401 56.8699 64.5768 56.8699 63.635C56.8699 62.6934 57.6332 61.9301 58.5749 61.9301C59.5165 61.9301 60.2799 62.6934 60.2799 63.635ZM43.2299 31.2401C44.1715 31.2401 44.9349 32.0034 44.9349 32.9452C44.9349 33.8866 44.1715 34.6501 43.2299 34.6501C39.4693 34.6501 36.4099 37.7095 36.4099 41.4701C36.4099 42.4117 35.6464 43.175 34.7048 43.175C33.7634 43.175 32.9999 42.4117 32.9999 41.4701C32.9999 35.8293 37.5891 31.2401 43.2299 31.2401ZM41.5249 49.995C41.5249 50.9366 42.2883 51.7001 43.2299 51.7001C48.8707 51.7001 53.4599 47.1109 53.4599 41.4701C53.4599 40.5285 52.6964 39.7652 51.7549 39.7652C50.8133 39.7652 50.0499 40.5285 50.0499 41.4701C50.0499 45.2307 46.9905 48.2901 43.2299 48.2901C42.2883 48.2901 41.5249 49.0536 41.5249 49.995ZM43.2299 44.8801C41.3497 44.8801 39.8199 43.3503 39.8199 41.4701C39.8199 39.5899 41.3497 38.0601 43.2299 38.0601C45.1101 38.0601 46.6399 39.5899 46.6399 41.4701C46.6399 43.3503 45.1101 44.8801 43.2299 44.8801Z" fill="#3D3D3D"></path>
</svg>
