<?xml version="1.0" encoding="UTF-8"?>
<svg xmlns="http://www.w3.org/2000/svg" width="37" height="37" viewBox="0 0 37 37" fill="none">
  <g clip-path="url(#clip0_191_105)">
    <path d="M37 18.5C37 8.28273 28.7173 0 18.5 0C8.28273 0 0 8.28273 0 18.5C0 28.7173 8.28273 37 18.5 37C28.7173 37 37 28.7173 37 18.5Z" fill="white"></path>
    <path d="M31.3332 25H20.6665" stroke="#222222" stroke-width="2.5" stroke-linecap="round"></path>
    <path d="M31.7864 24.6612L29.4395 20.9394" stroke="#222222" stroke-width="2.5" stroke-linecap="round"></path>
    <path d="M31.6146 25L29 29.0261" stroke="#222222" stroke-width="2.5" stroke-linecap="round"></path>
    <path fill-rule="evenodd" clip-rule="evenodd" d="M22.9997 21.8488C21.4403 21.2929 19.7359 21 17.9996 21C15.358 21 12.7902 21.6779 10.6945 22.9287C8.97426 23.9554 7.65099 25.3209 6.85392 26.8748C6.57903 27.4107 6.93006 28.0264 7.51967 28.1493L9.83878 28.6326C14.1736 29.536 18.621 29.7118 22.9997 29.1602V28H20.6663C19.0095 28 17.6663 26.6569 17.6663 25C17.6663 23.3431 19.0095 22 20.6663 22H22.9997V21.8488Z" fill="#222222"></path>
    <path d="M17.9997 18.3334C21.6816 18.3334 24.6663 15.3486 24.6663 11.6667C24.6663 7.9848 21.6816 5.00003 17.9997 5.00003C14.3178 5.00003 11.333 7.9848 11.333 11.6667C11.333 15.3486 14.3178 18.3334 17.9997 18.3334Z" fill="#222222"></path>
  </g>
  <defs>
    <clipPath id="clip0_191_105">
      <rect width="37" height="37" fill="white"></rect>
    </clipPath>
  </defs>
</svg>
