<?xml version="1.0" encoding="UTF-8"?>
<svg xmlns="http://www.w3.org/2000/svg" width="39" height="39" viewBox="0 0 39 39" fill="none">
  <path d="M38.8388 16.5766C38.686 16.3719 38.4439 16.25 38.1872 16.25H28.9084L22.6424 5.28449C22.4181 4.89612 21.9225 4.76124 21.5341 4.98062C21.1441 5.20487 21.0093 5.70049 21.2319 6.09049L27.0364 16.25H11.9629L17.769 6.09049C17.9917 5.70212 17.8568 5.20487 17.4668 4.98062C17.0751 4.75962 16.5795 4.89449 16.3585 5.28449L10.0909 16.25H0.812149C0.555399 16.25 0.313274 16.3719 0.160524 16.5766C0.00777387 16.783 -0.0393511 17.0495 0.0337739 17.2949L4.21327 31.2276C4.73327 32.9615 6.29652 34.125 8.10515 34.125H30.8925C32.7012 34.125 34.2644 32.9615 34.7844 31.2292L38.9639 17.2965C39.0387 17.0495 38.9932 16.783 38.8388 16.5766Z" fill="white"></path>
</svg>
