<?xml version="1.0" encoding="UTF-8"?>
<svg xmlns="http://www.w3.org/2000/svg" width="31" height="32" viewBox="0 0 31 32" fill="none">
  <path d="M30.6912 9.79995C30.6912 9.79995 30.3885 7.66265 29.4561 6.72417C28.2754 5.48901 26.9555 5.48296 26.35 5.4103C22.0148 5.09546 15.5061 5.09546 15.5061 5.09546H15.4939C15.4939 5.09546 8.98516 5.09546 4.65 5.4103C4.04453 5.48296 2.72461 5.48901 1.54395 6.72417C0.611523 7.66265 0.314844 9.79995 0.314844 9.79995C0.314844 9.79995 0 12.3126 0 14.8193V17.1685C0 19.6751 0.308789 22.1878 0.308789 22.1878C0.308789 22.1878 0.611523 24.3251 1.53789 25.2636C2.71855 26.4988 4.26855 26.4564 4.95879 26.5896C7.44121 26.8257 15.5 26.8984 15.5 26.8984C15.5 26.8984 22.0148 26.8863 26.35 26.5775C26.9555 26.5048 28.2754 26.4988 29.4561 25.2636C30.3885 24.3251 30.6912 22.1878 30.6912 22.1878C30.6912 22.1878 31 19.6812 31 17.1685V14.8193C31 12.3126 30.6912 9.79995 30.6912 9.79995ZM12.2971 20.0203V11.3076L20.6707 15.6791L12.2971 20.0203Z" fill="white"></path>
</svg>
