<?xml version="1.0" encoding="UTF-8"?>
<svg xmlns="http://www.w3.org/2000/svg" width="31" height="32" viewBox="0 0 31 32" fill="none">
  <g clip-path="url(#clip0_74_3801)">
    <path fill-rule="evenodd" clip-rule="evenodd" d="M2.17913 2.67913C0 4.85825 0 8.36548 0 15.38V16.62C0 23.6345 0 27.1417 2.17913 29.3209C4.35825 31.5 7.86548 31.5 14.88 31.5H16.12C23.1345 31.5 26.6417 31.5 28.8209 29.3209C31 27.1417 31 23.6345 31 16.62V15.38C31 8.36548 31 4.85825 28.8209 2.67913C26.6417 0.5 23.1345 0.5 16.12 0.5H14.88C7.86548 0.5 4.35825 0.5 2.17913 2.67913ZM5.23133 9.92923C5.39924 17.9892 9.42923 22.833 16.4946 22.833H16.8951V18.2217C19.4914 18.4801 21.4546 20.3788 22.2425 22.833H25.9109C24.9034 19.1646 22.2554 17.1367 20.602 16.3617C22.2554 15.4059 24.5804 13.0809 25.1358 9.92923H21.8032C21.0799 12.4867 18.936 14.8117 16.8951 15.0313V9.92923H13.5625V18.8676C11.4958 18.3509 8.88673 15.8451 8.77048 9.92923H5.23133Z" fill="white"></path>
  </g>
  <defs>
    <clipPath id="clip0_74_3801">
      <rect width="31" height="31" fill="white" transform="translate(0 0.5)"></rect>
    </clipPath>
  </defs>
</svg>
