<?xml version="1.0" encoding="UTF-8"?>
<svg xmlns="http://www.w3.org/2000/svg" width="31" height="31" viewBox="0 0 31 31" fill="none">
  <g clip-path="url(#clip0_74_3795)">
    <path d="M31 15.5C31 7.21572 24.0604 0.5 15.5 0.5C6.93958 0.5 0 7.21572 0 15.5C0 22.9868 5.6681 29.1925 13.0781 30.3178V19.8359H9.14258V15.5H13.0781V12.1953C13.0781 8.43594 15.3922 6.35938 18.9327 6.35938C20.628 6.35938 22.4023 6.65234 22.4023 6.65234V10.3438H20.4479C18.5225 10.3438 17.9219 11.5001 17.9219 12.6875V15.5H22.2207L21.5335 19.8359H17.9219V30.3178C25.3319 29.1925 31 22.9868 31 15.5Z" fill="white"></path>
  </g>
  <defs>
    <clipPath id="clip0_74_3795">
      <rect width="31" height="30" fill="white" transform="translate(0 0.5)"></rect>
    </clipPath>
  </defs>
</svg>
