<svg width="123" height="123" viewBox="0 0 123 123" fill="none" xmlns="http://www.w3.org/2000/svg">
<circle cx="61.5" cy="61.5" r="61.5" fill="white"/>
<path d="M59.328 78.256C58.752 78.256 58.272 78.096 57.888 77.776C57.504 77.392 57.312 76.88 57.312 76.24C57.312 75.6 57.312 74.96 57.312 74.32C57.312 73.68 57.312 73.04 57.312 72.4C57.44 69.648 58.048 67.216 59.136 65.104C60.224 62.992 61.536 61.072 63.072 59.344C64.672 57.616 66.272 55.984 67.872 54.448C69.472 52.848 70.816 51.248 71.904 49.648C73.056 48.048 73.76 46.352 74.016 44.56C74.272 42.256 73.824 40.336 72.672 38.8C71.52 37.2 69.952 35.984 67.968 35.152C65.984 34.32 63.936 33.904 61.824 33.904C58.432 33.904 55.52 34.8 53.088 36.592C50.72 38.32 49.152 41.264 48.384 45.424C48.192 46.192 47.872 46.736 47.424 47.056C46.976 47.376 46.464 47.536 45.888 47.536H41.28C40.704 47.536 40.192 47.344 39.744 46.96C39.36 46.576 39.168 46.064 39.168 45.424C39.232 42.8 39.808 40.304 40.896 37.936C41.984 35.568 43.52 33.488 45.504 31.696C47.552 29.904 49.952 28.496 52.704 27.472C55.52 26.384 58.656 25.84 62.112 25.84C66.016 25.84 69.344 26.384 72.096 27.472C74.912 28.496 77.152 29.904 78.816 31.696C80.544 33.424 81.792 35.344 82.56 37.456C83.328 39.568 83.648 41.68 83.52 43.792C83.328 46.352 82.688 48.656 81.6 50.704C80.512 52.688 79.2 54.544 77.664 56.272C76.128 57.936 74.56 59.6 72.96 61.264C71.424 62.864 70.08 64.56 68.928 66.352C67.84 68.08 67.232 69.968 67.104 72.016C67.04 72.72 66.976 73.424 66.912 74.128C66.912 74.768 66.912 75.408 66.912 76.048C66.784 76.752 66.528 77.296 66.144 77.68C65.76 78.064 65.216 78.256 64.512 78.256H59.328ZM58.56 94C57.92 94 57.376 93.808 56.928 93.424C56.544 92.976 56.352 92.432 56.352 91.792V85.936C56.352 85.296 56.544 84.784 56.928 84.4C57.376 83.952 57.92 83.728 58.56 83.728H64.8C65.504 83.728 66.048 83.952 66.432 84.4C66.88 84.784 67.104 85.296 67.104 85.936V91.792C67.104 92.432 66.88 92.976 66.432 93.424C66.048 93.808 65.504 94 64.8 94H58.56Z" fill="black"/>
</svg>
