<?xml version="1.0" encoding="UTF-8"?>
<svg xmlns="http://www.w3.org/2000/svg" width="1765" height="623" viewBox="0 0 1765 623" fill="none">
  <rect width="1764" height="623" fill="#1E1E1E"></rect>
  <path d="M1412 309.171C1302.66 167.111 1533.16 176.422 1764.5 325.985V600.485H1430.83C1455.35 500.02 1539.17 464.134 1412 309.171Z" fill="#0E0E0E" fill-opacity="0.15"></path>
  <path d="M71.5982 357.018C-27.3212 273.305 378.554 153.581 328.836 357.018C279.118 560.456 434.667 566.201 339.485 600H71.5982C71.5982 600 170.518 440.731 71.5982 357.018Z" fill="#0E0E0E" fill-opacity="0.15"></path>
  <g opacity="0.4">
    <circle cx="486.5" cy="219.5" r="99" fill="black" fill-opacity="0.2" stroke="#2E2E2E" stroke-width="5"></circle>
    <path d="M534.914 230.787L525.447 223.384C525.567 222.242 525.67 220.908 525.67 219.496C525.67 218.084 525.571 216.749 525.447 215.607L534.923 208.2C536.683 206.81 537.163 204.342 536.043 202.286L526.198 185.252C525.147 183.33 522.842 182.343 520.503 183.205L509.332 187.69C507.19 186.145 504.946 184.84 502.624 183.798L500.924 171.948C500.645 169.7 498.688 168 496.375 168H476.634C474.32 168 472.368 169.7 472.093 171.914L470.389 183.806C468.14 184.819 465.93 186.107 463.694 187.699L452.493 183.201C450.394 182.39 447.884 183.3 446.841 185.214L436.983 202.269C435.82 204.235 436.3 206.788 438.099 208.213L447.566 215.616C447.416 217.062 447.343 218.32 447.343 219.5C447.343 220.68 447.416 221.938 447.566 223.388L438.09 230.796C436.33 232.19 435.854 234.658 436.974 236.71L446.819 253.743C447.871 255.662 450.154 256.657 452.514 255.79L463.686 251.306C465.823 252.846 468.067 254.151 470.389 255.198L472.089 267.043C472.368 269.3 474.32 271 476.638 271H496.379C498.693 271 500.65 269.3 500.924 267.086L502.628 255.198C504.877 254.181 507.083 252.898 509.323 251.301L520.524 255.799C521.065 256.009 521.627 256.116 522.207 256.116C523.872 256.116 525.404 255.207 526.177 253.79L536.065 236.667C537.163 234.658 536.683 232.19 534.914 230.787ZM486.504 236.667C477.037 236.667 469.338 228.967 469.338 219.5C469.338 210.033 477.037 202.333 486.504 202.333C495.972 202.333 503.671 210.033 503.671 219.5C503.671 228.967 495.972 236.667 486.504 236.667Z" fill="#525252"></path>
  </g>
  <mask id="mask0_142_187" style="mask-type:alpha" maskUnits="userSpaceOnUse" x="1123" y="298" width="202" height="214">
    <circle cx="1128" cy="303" r="5" fill="#D9D9D9"></circle>
    <circle cx="1128" cy="315" r="5" fill="#D9D9D9"></circle>
    <circle cx="1128" cy="327" r="5" fill="#D9D9D9"></circle>
    <circle cx="1128" cy="339" r="5" fill="#D9D9D9"></circle>
    <circle cx="1128" cy="351" r="5" fill="#D9D9D9"></circle>
    <circle cx="1128" cy="363" r="5" fill="#D9D9D9"></circle>
    <circle cx="1128" cy="375" r="5" fill="#D9D9D9"></circle>
    <circle cx="1128" cy="387" r="5" fill="#D9D9D9"></circle>
    <circle cx="1128" cy="399" r="5" fill="#D9D9D9"></circle>
    <circle cx="1128" cy="411" r="5" fill="#D9D9D9"></circle>
    <circle cx="1128" cy="423" r="5" fill="#D9D9D9"></circle>
    <circle cx="1128" cy="435" r="5" fill="#D9D9D9"></circle>
    <circle cx="1128" cy="447" r="5" fill="#D9D9D9"></circle>
    <circle cx="1128" cy="459" r="5" fill="#D9D9D9"></circle>
    <circle cx="1128" cy="471" r="5" fill="#D9D9D9"></circle>
    <circle cx="1128" cy="483" r="5" fill="#D9D9D9"></circle>
    <circle cx="1128" cy="495" r="5" fill="#D9D9D9"></circle>
    <circle cx="1128" cy="507" r="5" fill="#D9D9D9"></circle>
    <circle cx="1140" cy="303" r="5" fill="#D9D9D9"></circle>
    <circle cx="1140" cy="315" r="5" fill="#D9D9D9"></circle>
    <circle cx="1140" cy="327" r="5" fill="#D9D9D9"></circle>
    <circle cx="1140" cy="339" r="5" fill="#D9D9D9"></circle>
    <circle cx="1140" cy="351" r="5" fill="#D9D9D9"></circle>
    <circle cx="1140" cy="363" r="5" fill="#D9D9D9"></circle>
    <circle cx="1140" cy="375" r="5" fill="#D9D9D9"></circle>
    <circle cx="1140" cy="387" r="5" fill="#D9D9D9"></circle>
    <circle cx="1140" cy="399" r="5" fill="#D9D9D9"></circle>
    <circle cx="1140" cy="411" r="5" fill="#D9D9D9"></circle>
    <circle cx="1140" cy="423" r="5" fill="#D9D9D9"></circle>
    <circle cx="1140" cy="435" r="5" fill="#D9D9D9"></circle>
    <circle cx="1140" cy="447" r="5" fill="#D9D9D9"></circle>
    <circle cx="1140" cy="459" r="5" fill="#D9D9D9"></circle>
    <circle cx="1140" cy="471" r="5" fill="#D9D9D9"></circle>
    <circle cx="1140" cy="483" r="5" fill="#D9D9D9"></circle>
    <circle cx="1140" cy="495" r="5" fill="#D9D9D9"></circle>
    <circle cx="1140" cy="507" r="5" fill="#D9D9D9"></circle>
    <circle cx="1152" cy="303" r="5" fill="#D9D9D9"></circle>
    <circle cx="1152" cy="315" r="5" fill="#D9D9D9"></circle>
    <circle cx="1152" cy="327" r="5" fill="#D9D9D9"></circle>
    <circle cx="1152" cy="339" r="5" fill="#D9D9D9"></circle>
    <circle cx="1152" cy="351" r="5" fill="#D9D9D9"></circle>
    <circle cx="1152" cy="363" r="5" fill="#D9D9D9"></circle>
    <circle cx="1152" cy="375" r="5" fill="#D9D9D9"></circle>
    <circle cx="1152" cy="387" r="5" fill="#D9D9D9"></circle>
    <circle cx="1152" cy="399" r="5" fill="#D9D9D9"></circle>
    <circle cx="1152" cy="411" r="5" fill="#D9D9D9"></circle>
    <circle cx="1152" cy="423" r="5" fill="#D9D9D9"></circle>
    <circle cx="1152" cy="435" r="5" fill="#D9D9D9"></circle>
    <circle cx="1152" cy="447" r="5" fill="#D9D9D9"></circle>
    <circle cx="1152" cy="459" r="5" fill="#D9D9D9"></circle>
    <circle cx="1152" cy="471" r="5" fill="#D9D9D9"></circle>
    <circle cx="1152" cy="483" r="5" fill="#D9D9D9"></circle>
    <circle cx="1152" cy="495" r="5" fill="#D9D9D9"></circle>
    <circle cx="1152" cy="507" r="5" fill="#D9D9D9"></circle>
    <circle cx="1164" cy="303" r="5" fill="#D9D9D9"></circle>
    <circle cx="1164" cy="315" r="5" fill="#D9D9D9"></circle>
    <circle cx="1164" cy="327" r="5" fill="#D9D9D9"></circle>
    <circle cx="1164" cy="339" r="5" fill="#D9D9D9"></circle>
    <circle cx="1164" cy="351" r="5" fill="#D9D9D9"></circle>
    <circle cx="1164" cy="363" r="5" fill="#D9D9D9"></circle>
    <circle cx="1164" cy="375" r="5" fill="#D9D9D9"></circle>
    <circle cx="1164" cy="387" r="5" fill="#D9D9D9"></circle>
    <circle cx="1164" cy="399" r="5" fill="#D9D9D9"></circle>
    <circle cx="1164" cy="411" r="5" fill="#D9D9D9"></circle>
    <circle cx="1164" cy="423" r="5" fill="#D9D9D9"></circle>
    <circle cx="1164" cy="435" r="5" fill="#D9D9D9"></circle>
    <circle cx="1164" cy="447" r="5" fill="#D9D9D9"></circle>
    <circle cx="1164" cy="459" r="5" fill="#D9D9D9"></circle>
    <circle cx="1164" cy="471" r="5" fill="#D9D9D9"></circle>
    <circle cx="1164" cy="483" r="5" fill="#D9D9D9"></circle>
    <circle cx="1164" cy="495" r="5" fill="#D9D9D9"></circle>
    <circle cx="1164" cy="507" r="5" fill="#D9D9D9"></circle>
    <circle cx="1176" cy="303" r="5" fill="#D9D9D9"></circle>
    <circle cx="1176" cy="315" r="5" fill="#D9D9D9"></circle>
    <circle cx="1176" cy="327" r="5" fill="#D9D9D9"></circle>
    <circle cx="1176" cy="339" r="5" fill="#D9D9D9"></circle>
    <circle cx="1176" cy="351" r="5" fill="#D9D9D9"></circle>
    <circle cx="1176" cy="363" r="5" fill="#D9D9D9"></circle>
    <circle cx="1176" cy="375" r="5" fill="#D9D9D9"></circle>
    <circle cx="1176" cy="387" r="5" fill="#D9D9D9"></circle>
    <circle cx="1176" cy="399" r="5" fill="#D9D9D9"></circle>
    <circle cx="1176" cy="411" r="5" fill="#D9D9D9"></circle>
    <circle cx="1176" cy="423" r="5" fill="#D9D9D9"></circle>
    <circle cx="1176" cy="435" r="5" fill="#D9D9D9"></circle>
    <circle cx="1176" cy="447" r="5" fill="#D9D9D9"></circle>
    <circle cx="1176" cy="459" r="5" fill="#D9D9D9"></circle>
    <circle cx="1176" cy="471" r="5" fill="#D9D9D9"></circle>
    <circle cx="1176" cy="483" r="5" fill="#D9D9D9"></circle>
    <circle cx="1176" cy="495" r="5" fill="#D9D9D9"></circle>
    <circle cx="1176" cy="507" r="5" fill="#D9D9D9"></circle>
    <circle cx="1188" cy="303" r="5" fill="#D9D9D9"></circle>
    <circle cx="1188" cy="315" r="5" fill="#D9D9D9"></circle>
    <circle cx="1188" cy="327" r="5" fill="#D9D9D9"></circle>
    <circle cx="1188" cy="339" r="5" fill="#D9D9D9"></circle>
    <circle cx="1188" cy="351" r="5" fill="#D9D9D9"></circle>
    <circle cx="1188" cy="363" r="5" fill="#D9D9D9"></circle>
    <circle cx="1188" cy="375" r="5" fill="#D9D9D9"></circle>
    <circle cx="1188" cy="387" r="5" fill="#D9D9D9"></circle>
    <circle cx="1188" cy="399" r="5" fill="#D9D9D9"></circle>
    <circle cx="1188" cy="411" r="5" fill="#D9D9D9"></circle>
    <circle cx="1188" cy="423" r="5" fill="#D9D9D9"></circle>
    <circle cx="1188" cy="435" r="5" fill="#D9D9D9"></circle>
    <circle cx="1188" cy="447" r="5" fill="#D9D9D9"></circle>
    <circle cx="1188" cy="459" r="5" fill="#D9D9D9"></circle>
    <circle cx="1188" cy="471" r="5" fill="#D9D9D9"></circle>
    <circle cx="1188" cy="483" r="5" fill="#D9D9D9"></circle>
    <circle cx="1188" cy="495" r="5" fill="#D9D9D9"></circle>
    <circle cx="1188" cy="507" r="5" fill="#D9D9D9"></circle>
    <circle cx="1200" cy="303" r="5" fill="#D9D9D9"></circle>
    <circle cx="1200" cy="315" r="5" fill="#D9D9D9"></circle>
    <circle cx="1200" cy="327" r="5" fill="#D9D9D9"></circle>
    <circle cx="1200" cy="339" r="5" fill="#D9D9D9"></circle>
    <circle cx="1200" cy="351" r="5" fill="#D9D9D9"></circle>
    <circle cx="1200" cy="363" r="5" fill="#D9D9D9"></circle>
    <circle cx="1200" cy="375" r="5" fill="#D9D9D9"></circle>
    <circle cx="1200" cy="387" r="5" fill="#D9D9D9"></circle>
    <circle cx="1200" cy="399" r="5" fill="#D9D9D9"></circle>
    <circle cx="1200" cy="411" r="5" fill="#D9D9D9"></circle>
    <circle cx="1200" cy="423" r="5" fill="#D9D9D9"></circle>
    <circle cx="1200" cy="435" r="5" fill="#D9D9D9"></circle>
    <circle cx="1200" cy="447" r="5" fill="#D9D9D9"></circle>
    <circle cx="1200" cy="459" r="5" fill="#D9D9D9"></circle>
    <circle cx="1200" cy="471" r="5" fill="#D9D9D9"></circle>
    <circle cx="1200" cy="483" r="5" fill="#D9D9D9"></circle>
    <circle cx="1200" cy="495" r="5" fill="#D9D9D9"></circle>
    <circle cx="1200" cy="507" r="5" fill="#D9D9D9"></circle>
    <circle cx="1212" cy="303" r="5" fill="#D9D9D9"></circle>
    <circle cx="1212" cy="315" r="5" fill="#D9D9D9"></circle>
    <circle cx="1212" cy="327" r="5" fill="#D9D9D9"></circle>
    <circle cx="1212" cy="339" r="5" fill="#D9D9D9"></circle>
    <circle cx="1212" cy="351" r="5" fill="#D9D9D9"></circle>
    <circle cx="1212" cy="363" r="5" fill="#D9D9D9"></circle>
    <circle cx="1212" cy="375" r="5" fill="#D9D9D9"></circle>
    <circle cx="1212" cy="387" r="5" fill="#D9D9D9"></circle>
    <circle cx="1212" cy="399" r="5" fill="#D9D9D9"></circle>
    <circle cx="1212" cy="411" r="5" fill="#D9D9D9"></circle>
    <circle cx="1212" cy="423" r="5" fill="#D9D9D9"></circle>
    <circle cx="1212" cy="435" r="5" fill="#D9D9D9"></circle>
    <circle cx="1212" cy="447" r="5" fill="#D9D9D9"></circle>
    <circle cx="1212" cy="459" r="5" fill="#D9D9D9"></circle>
    <circle cx="1212" cy="471" r="5" fill="#D9D9D9"></circle>
    <circle cx="1212" cy="483" r="5" fill="#D9D9D9"></circle>
    <circle cx="1212" cy="495" r="5" fill="#D9D9D9"></circle>
    <circle cx="1212" cy="507" r="5" fill="#D9D9D9"></circle>
    <circle cx="1224" cy="303" r="5" fill="#D9D9D9"></circle>
    <circle cx="1224" cy="315" r="5" fill="#D9D9D9"></circle>
    <circle cx="1224" cy="327" r="5" fill="#D9D9D9"></circle>
    <circle cx="1224" cy="339" r="5" fill="#D9D9D9"></circle>
    <circle cx="1224" cy="351" r="5" fill="#D9D9D9"></circle>
    <circle cx="1224" cy="363" r="5" fill="#D9D9D9"></circle>
    <circle cx="1224" cy="375" r="5" fill="#D9D9D9"></circle>
    <circle cx="1224" cy="387" r="5" fill="#D9D9D9"></circle>
    <circle cx="1224" cy="399" r="5" fill="#D9D9D9"></circle>
    <circle cx="1224" cy="411" r="5" fill="#D9D9D9"></circle>
    <circle cx="1224" cy="423" r="5" fill="#D9D9D9"></circle>
    <circle cx="1224" cy="435" r="5" fill="#D9D9D9"></circle>
    <circle cx="1224" cy="447" r="5" fill="#D9D9D9"></circle>
    <circle cx="1224" cy="459" r="5" fill="#D9D9D9"></circle>
    <circle cx="1224" cy="471" r="5" fill="#D9D9D9"></circle>
    <circle cx="1224" cy="483" r="5" fill="#D9D9D9"></circle>
    <circle cx="1224" cy="495" r="5" fill="#D9D9D9"></circle>
    <circle cx="1224" cy="507" r="5" fill="#D9D9D9"></circle>
    <circle cx="1236" cy="303" r="5" fill="#D9D9D9"></circle>
    <circle cx="1236" cy="315" r="5" fill="#D9D9D9"></circle>
    <circle cx="1236" cy="327" r="5" fill="#D9D9D9"></circle>
    <circle cx="1236" cy="339" r="5" fill="#D9D9D9"></circle>
    <circle cx="1236" cy="351" r="5" fill="#D9D9D9"></circle>
    <circle cx="1236" cy="363" r="5" fill="#D9D9D9"></circle>
    <circle cx="1236" cy="375" r="5" fill="#D9D9D9"></circle>
    <circle cx="1236" cy="387" r="5" fill="#D9D9D9"></circle>
    <circle cx="1236" cy="399" r="5" fill="#D9D9D9"></circle>
    <circle cx="1236" cy="411" r="5" fill="#D9D9D9"></circle>
    <circle cx="1236" cy="423" r="5" fill="#D9D9D9"></circle>
    <circle cx="1236" cy="435" r="5" fill="#D9D9D9"></circle>
    <circle cx="1236" cy="447" r="5" fill="#D9D9D9"></circle>
    <circle cx="1236" cy="459" r="5" fill="#D9D9D9"></circle>
    <circle cx="1236" cy="471" r="5" fill="#D9D9D9"></circle>
    <circle cx="1236" cy="483" r="5" fill="#D9D9D9"></circle>
    <circle cx="1236" cy="495" r="5" fill="#D9D9D9"></circle>
    <circle cx="1236" cy="507" r="5" fill="#D9D9D9"></circle>
    <circle cx="1248" cy="303" r="5" fill="#D9D9D9"></circle>
    <circle cx="1248" cy="315" r="5" fill="#D9D9D9"></circle>
    <circle cx="1248" cy="327" r="5" fill="#D9D9D9"></circle>
    <circle cx="1248" cy="339" r="5" fill="#D9D9D9"></circle>
    <circle cx="1248" cy="351" r="5" fill="#D9D9D9"></circle>
    <circle cx="1248" cy="363" r="5" fill="#D9D9D9"></circle>
    <circle cx="1248" cy="375" r="5" fill="#D9D9D9"></circle>
    <circle cx="1248" cy="387" r="5" fill="#D9D9D9"></circle>
    <circle cx="1248" cy="399" r="5" fill="#D9D9D9"></circle>
    <circle cx="1248" cy="411" r="5" fill="#D9D9D9"></circle>
    <circle cx="1248" cy="423" r="5" fill="#D9D9D9"></circle>
    <circle cx="1248" cy="435" r="5" fill="#D9D9D9"></circle>
    <circle cx="1248" cy="447" r="5" fill="#D9D9D9"></circle>
    <circle cx="1248" cy="459" r="5" fill="#D9D9D9"></circle>
    <circle cx="1248" cy="471" r="5" fill="#D9D9D9"></circle>
    <circle cx="1248" cy="483" r="5" fill="#D9D9D9"></circle>
    <circle cx="1248" cy="495" r="5" fill="#D9D9D9"></circle>
    <circle cx="1248" cy="507" r="5" fill="#D9D9D9"></circle>
    <circle cx="1260" cy="303" r="5" fill="#D9D9D9"></circle>
    <circle cx="1260" cy="315" r="5" fill="#D9D9D9"></circle>
    <circle cx="1260" cy="327" r="5" fill="#D9D9D9"></circle>
    <circle cx="1260" cy="339" r="5" fill="#D9D9D9"></circle>
    <circle cx="1260" cy="351" r="5" fill="#D9D9D9"></circle>
    <circle cx="1260" cy="363" r="5" fill="#D9D9D9"></circle>
    <circle cx="1260" cy="375" r="5" fill="#D9D9D9"></circle>
    <circle cx="1260" cy="387" r="5" fill="#D9D9D9"></circle>
    <circle cx="1260" cy="399" r="5" fill="#D9D9D9"></circle>
    <circle cx="1260" cy="411" r="5" fill="#D9D9D9"></circle>
    <circle cx="1260" cy="423" r="5" fill="#D9D9D9"></circle>
    <circle cx="1260" cy="435" r="5" fill="#D9D9D9"></circle>
    <circle cx="1260" cy="447" r="5" fill="#D9D9D9"></circle>
    <circle cx="1260" cy="459" r="5" fill="#D9D9D9"></circle>
    <circle cx="1260" cy="471" r="5" fill="#D9D9D9"></circle>
    <circle cx="1260" cy="483" r="5" fill="#D9D9D9"></circle>
    <circle cx="1260" cy="495" r="5" fill="#D9D9D9"></circle>
    <circle cx="1260" cy="507" r="5" fill="#D9D9D9"></circle>
    <circle cx="1272" cy="303" r="5" fill="#D9D9D9"></circle>
    <circle cx="1272" cy="315" r="5" fill="#D9D9D9"></circle>
    <circle cx="1272" cy="327" r="5" fill="#D9D9D9"></circle>
    <circle cx="1272" cy="339" r="5" fill="#D9D9D9"></circle>
    <circle cx="1272" cy="351" r="5" fill="#D9D9D9"></circle>
    <circle cx="1272" cy="363" r="5" fill="#D9D9D9"></circle>
    <circle cx="1272" cy="375" r="5" fill="#D9D9D9"></circle>
    <circle cx="1272" cy="387" r="5" fill="#D9D9D9"></circle>
    <circle cx="1272" cy="399" r="5" fill="#D9D9D9"></circle>
    <circle cx="1272" cy="411" r="5" fill="#D9D9D9"></circle>
    <circle cx="1272" cy="423" r="5" fill="#D9D9D9"></circle>
    <circle cx="1272" cy="435" r="5" fill="#D9D9D9"></circle>
    <circle cx="1272" cy="447" r="5" fill="#D9D9D9"></circle>
    <circle cx="1272" cy="459" r="5" fill="#D9D9D9"></circle>
    <circle cx="1272" cy="471" r="5" fill="#D9D9D9"></circle>
    <circle cx="1272" cy="483" r="5" fill="#D9D9D9"></circle>
    <circle cx="1272" cy="495" r="5" fill="#D9D9D9"></circle>
    <circle cx="1272" cy="507" r="5" fill="#D9D9D9"></circle>
    <circle cx="1284" cy="303" r="5" fill="#D9D9D9"></circle>
    <circle cx="1284" cy="315" r="5" fill="#D9D9D9"></circle>
    <circle cx="1284" cy="327" r="5" fill="#D9D9D9"></circle>
    <circle cx="1284" cy="339" r="5" fill="#D9D9D9"></circle>
    <circle cx="1284" cy="351" r="5" fill="#D9D9D9"></circle>
    <circle cx="1284" cy="363" r="5" fill="#D9D9D9"></circle>
    <circle cx="1284" cy="375" r="5" fill="#D9D9D9"></circle>
    <circle cx="1284" cy="387" r="5" fill="#D9D9D9"></circle>
    <circle cx="1284" cy="399" r="5" fill="#D9D9D9"></circle>
    <circle cx="1284" cy="411" r="5" fill="#D9D9D9"></circle>
    <circle cx="1284" cy="423" r="5" fill="#D9D9D9"></circle>
    <circle cx="1284" cy="435" r="5" fill="#D9D9D9"></circle>
    <circle cx="1284" cy="447" r="5" fill="#D9D9D9"></circle>
    <circle cx="1284" cy="459" r="5" fill="#D9D9D9"></circle>
    <circle cx="1284" cy="471" r="5" fill="#D9D9D9"></circle>
    <circle cx="1284" cy="483" r="5" fill="#D9D9D9"></circle>
    <circle cx="1284" cy="495" r="5" fill="#D9D9D9"></circle>
    <circle cx="1284" cy="507" r="5" fill="#D9D9D9"></circle>
    <circle cx="1296" cy="303" r="5" fill="#D9D9D9"></circle>
    <circle cx="1296" cy="315" r="5" fill="#D9D9D9"></circle>
    <circle cx="1296" cy="327" r="5" fill="#D9D9D9"></circle>
    <circle cx="1296" cy="339" r="5" fill="#D9D9D9"></circle>
    <circle cx="1296" cy="351" r="5" fill="#D9D9D9"></circle>
    <circle cx="1296" cy="363" r="5" fill="#D9D9D9"></circle>
    <circle cx="1296" cy="375" r="5" fill="#D9D9D9"></circle>
    <circle cx="1296" cy="387" r="5" fill="#D9D9D9"></circle>
    <circle cx="1296" cy="399" r="5" fill="#D9D9D9"></circle>
    <circle cx="1296" cy="411" r="5" fill="#D9D9D9"></circle>
    <circle cx="1296" cy="423" r="5" fill="#D9D9D9"></circle>
    <circle cx="1296" cy="435" r="5" fill="#D9D9D9"></circle>
    <circle cx="1296" cy="447" r="5" fill="#D9D9D9"></circle>
    <circle cx="1296" cy="459" r="5" fill="#D9D9D9"></circle>
    <circle cx="1296" cy="471" r="5" fill="#D9D9D9"></circle>
    <circle cx="1296" cy="483" r="5" fill="#D9D9D9"></circle>
    <circle cx="1296" cy="495" r="5" fill="#D9D9D9"></circle>
    <circle cx="1296" cy="507" r="5" fill="#D9D9D9"></circle>
    <circle cx="1308" cy="303" r="5" fill="#D9D9D9"></circle>
    <circle cx="1308" cy="315" r="5" fill="#D9D9D9"></circle>
    <circle cx="1308" cy="327" r="5" fill="#D9D9D9"></circle>
    <circle cx="1308" cy="339" r="5" fill="#D9D9D9"></circle>
    <circle cx="1308" cy="351" r="5" fill="#D9D9D9"></circle>
    <circle cx="1308" cy="363" r="5" fill="#D9D9D9"></circle>
    <circle cx="1308" cy="375" r="5" fill="#D9D9D9"></circle>
    <circle cx="1308" cy="387" r="5" fill="#D9D9D9"></circle>
    <circle cx="1308" cy="399" r="5" fill="#D9D9D9"></circle>
    <circle cx="1308" cy="411" r="5" fill="#D9D9D9"></circle>
    <circle cx="1308" cy="423" r="5" fill="#D9D9D9"></circle>
    <circle cx="1308" cy="435" r="5" fill="#D9D9D9"></circle>
    <circle cx="1308" cy="447" r="5" fill="#D9D9D9"></circle>
    <circle cx="1308" cy="459" r="5" fill="#D9D9D9"></circle>
    <circle cx="1308" cy="471" r="5" fill="#D9D9D9"></circle>
    <circle cx="1308" cy="483" r="5" fill="#D9D9D9"></circle>
    <circle cx="1308" cy="495" r="5" fill="#D9D9D9"></circle>
    <circle cx="1308" cy="507" r="5" fill="#D9D9D9"></circle>
    <circle cx="1320" cy="303" r="5" fill="#D9D9D9"></circle>
    <circle cx="1320" cy="315" r="5" fill="#D9D9D9"></circle>
    <circle cx="1320" cy="327" r="5" fill="#D9D9D9"></circle>
    <circle cx="1320" cy="339" r="5" fill="#D9D9D9"></circle>
    <circle cx="1320" cy="351" r="5" fill="#D9D9D9"></circle>
    <circle cx="1320" cy="363" r="5" fill="#D9D9D9"></circle>
    <circle cx="1320" cy="375" r="5" fill="#D9D9D9"></circle>
    <circle cx="1320" cy="387" r="5" fill="#D9D9D9"></circle>
    <circle cx="1320" cy="399" r="5" fill="#D9D9D9"></circle>
    <circle cx="1320" cy="411" r="5" fill="#D9D9D9"></circle>
    <circle cx="1320" cy="423" r="5" fill="#D9D9D9"></circle>
    <circle cx="1320" cy="435" r="5" fill="#D9D9D9"></circle>
    <circle cx="1320" cy="447" r="5" fill="#D9D9D9"></circle>
    <circle cx="1320" cy="459" r="5" fill="#D9D9D9"></circle>
    <circle cx="1320" cy="471" r="5" fill="#D9D9D9"></circle>
    <circle cx="1320" cy="483" r="5" fill="#D9D9D9"></circle>
    <circle cx="1320" cy="495" r="5" fill="#D9D9D9"></circle>
    <circle cx="1320" cy="507" r="5" fill="#D9D9D9"></circle>
  </mask>
  <g mask="url(#mask0_142_187)">
    <circle cx="1224" cy="405" r="101" fill="#272727"></circle>
  </g>
</svg>
