<?xml version="1.0" encoding="UTF-8"?>
<svg xmlns="http://www.w3.org/2000/svg" width="2161" height="780" viewBox="0 0 2161 780" fill="none">
  <g clip-path="url(#clip0_141_91)">
    <rect width="2161" height="780" fill="#0E0E0E"></rect>
    <mask id="mask0_141_91" style="mask-type:alpha" maskUnits="userSpaceOnUse" x="-4" y="-319" width="986" height="1133">
      <path d="M1.90735e-06 776C-2.20914 776 -4 777.791 -4 780C-4 782.209 -2.20914 784 1.90735e-06 784V776ZM982 776L1.90735e-06 776V784L982 784V776Z" fill="url(#paint0_linear_141_91)"></path>
      <path d="M1.90735e-06 761C-2.20914 761 -4 762.791 -4 765C-4 767.209 -2.20914 769 1.90735e-06 769V761ZM982 761L1.90735e-06 761V769L982 769V761Z" fill="url(#paint1_linear_141_91)"></path>
      <path d="M1.90735e-06 746C-2.20914 746 -4 747.791 -4 750C-4 752.209 -2.20914 754 1.90735e-06 754V746ZM982 746L1.90735e-06 746V754L982 754V746Z" fill="url(#paint2_linear_141_91)"></path>
      <path d="M1.90735e-06 731C-2.20914 731 -4 732.791 -4 735C-4 737.209 -2.20914 739 1.90735e-06 739V731ZM982 731L1.90735e-06 731V739L982 739V731Z" fill="url(#paint3_linear_141_91)"></path>
      <path d="M1.90735e-06 716C-2.20914 716 -4 717.791 -4 720C-4 722.209 -2.20914 724 1.90735e-06 724V716ZM982 716L1.90735e-06 716V724L982 724V716Z" fill="url(#paint4_linear_141_91)"></path>
      <path d="M1.90735e-06 701C-2.20914 701 -4 702.791 -4 705C-4 707.209 -2.20914 709 1.90735e-06 709V701ZM982 701L1.90735e-06 701V709L982 709V701Z" fill="url(#paint5_linear_141_91)"></path>
      <path d="M1.90735e-06 686C-2.20914 686 -4 687.791 -4 690C-4 692.209 -2.20914 694 1.90735e-06 694V686ZM982 686L1.90735e-06 686V694L982 694V686Z" fill="url(#paint6_linear_141_91)"></path>
      <path d="M1.90735e-06 671C-2.20914 671 -4 672.791 -4 675C-4 677.209 -2.20914 679 1.90735e-06 679V671ZM982 671L1.90735e-06 671V679L982 679V671Z" fill="url(#paint7_linear_141_91)"></path>
      <path d="M1.90735e-06 656C-2.20914 656 -4 657.791 -4 660C-4 662.209 -2.20914 664 1.90735e-06 664V656ZM982 656L1.90735e-06 656V664L982 664V656Z" fill="url(#paint8_linear_141_91)"></path>
      <path d="M1.90735e-06 641C-2.20914 641 -4 642.791 -4 645C-4 647.209 -2.20914 649 1.90735e-06 649V641ZM982 641L1.90735e-06 641V649L982 649V641Z" fill="url(#paint9_linear_141_91)"></path>
      <path d="M1.90735e-06 626C-2.20914 626 -4 627.791 -4 630C-4 632.209 -2.20914 634 1.90735e-06 634V626ZM982 626L1.90735e-06 626V634L982 634V626Z" fill="url(#paint10_linear_141_91)"></path>
      <path d="M1.90735e-06 611C-2.20914 611 -4 612.791 -4 615C-4 617.209 -2.20914 619 1.90735e-06 619V611ZM982 611L1.90735e-06 611V619L982 619V611Z" fill="url(#paint11_linear_141_91)"></path>
      <path d="M1.90735e-06 596C-2.20914 596 -4 597.791 -4 600C-4 602.209 -2.20914 604 1.90735e-06 604V596ZM982 596L1.90735e-06 596V604L982 604V596Z" fill="url(#paint12_linear_141_91)"></path>
      <path d="M1.90735e-06 581C-2.20914 581 -4 582.791 -4 585C-4 587.209 -2.20914 589 1.90735e-06 589V581ZM982 581L1.90735e-06 581V589L982 589V581Z" fill="url(#paint13_linear_141_91)"></path>
      <path d="M1.90735e-06 566C-2.20914 566 -4 567.791 -4 570C-4 572.209 -2.20914 574 1.90735e-06 574V566ZM982 566L1.90735e-06 566V574L982 574V566Z" fill="url(#paint14_linear_141_91)"></path>
      <path d="M1.90735e-06 551C-2.20914 551 -4 552.791 -4 555C-4 557.209 -2.20914 559 1.90735e-06 559V551ZM982 551L1.90735e-06 551V559L982 559V551Z" fill="url(#paint15_linear_141_91)"></path>
      <path d="M1.90735e-06 536C-2.20914 536 -4 537.791 -4 540C-4 542.209 -2.20914 544 1.90735e-06 544V536ZM982 536L1.90735e-06 536V544L982 544V536Z" fill="url(#paint16_linear_141_91)"></path>
      <path d="M1.90735e-06 521C-2.20914 521 -4 522.791 -4 525C-4 527.209 -2.20914 529 1.90735e-06 529V521ZM982 521L1.90735e-06 521V529L982 529V521Z" fill="url(#paint17_linear_141_91)"></path>
      <path d="M1.90735e-06 506C-2.20914 506 -4 507.791 -4 510C-4 512.209 -2.20914 514 1.90735e-06 514V506ZM982 506L1.90735e-06 506V514L982 514V506Z" fill="url(#paint18_linear_141_91)"></path>
      <path d="M1.90735e-06 491C-2.20914 491 -4 492.791 -4 495C-4 497.209 -2.20914 499 1.90735e-06 499V491ZM982 491L1.90735e-06 491V499L982 499V491Z" fill="url(#paint19_linear_141_91)"></path>
      <path d="M1.90735e-06 476C-2.20914 476 -4 477.791 -4 480C-4 482.209 -2.20914 484 1.90735e-06 484V476ZM982 476L1.90735e-06 476V484L982 484V476Z" fill="url(#paint20_linear_141_91)"></path>
      <path d="M1.90735e-06 461C-2.20914 461 -4 462.791 -4 465C-4 467.209 -2.20914 469 1.90735e-06 469V461ZM982 461L1.90735e-06 461V469L982 469V461Z" fill="url(#paint21_linear_141_91)"></path>
      <path d="M1.90735e-06 446C-2.20914 446 -4 447.791 -4 450C-4 452.209 -2.20914 454 1.90735e-06 454V446ZM982 446L1.90735e-06 446V454L982 454V446Z" fill="url(#paint22_linear_141_91)"></path>
      <path d="M1.90735e-06 431C-2.20914 431 -4 432.791 -4 435C-4 437.209 -2.20914 439 1.90735e-06 439V431ZM982 431L1.90735e-06 431V439L982 439V431Z" fill="url(#paint23_linear_141_91)"></path>
      <path d="M1.90735e-06 416C-2.20914 416 -4 417.791 -4 420C-4 422.209 -2.20914 424 1.90735e-06 424V416ZM982 416L1.90735e-06 416V424L982 424V416Z" fill="url(#paint24_linear_141_91)"></path>
      <path d="M1.90735e-06 401C-2.20914 401 -4 402.791 -4 405C-4 407.209 -2.20914 409 1.90735e-06 409V401ZM982 401L1.90735e-06 401V409L982 409V401Z" fill="url(#paint25_linear_141_91)"></path>
      <path d="M1.90735e-06 386C-2.20914 386 -4 387.791 -4 390C-4 392.209 -2.20914 394 1.90735e-06 394V386ZM982 386L1.90735e-06 386V394L982 394V386Z" fill="url(#paint26_linear_141_91)"></path>
      <path d="M1.90735e-06 371C-2.20914 371 -4 372.791 -4 375C-4 377.209 -2.20914 379 1.90735e-06 379V371ZM982 371L1.90735e-06 371V379L982 379V371Z" fill="url(#paint27_linear_141_91)"></path>
      <path d="M1.90735e-06 356C-2.20914 356 -4 357.791 -4 360C-4 362.209 -2.20914 364 1.90735e-06 364V356ZM982 356L1.90735e-06 356V364L982 364V356Z" fill="url(#paint28_linear_141_91)"></path>
      <path d="M1.90735e-06 341C-2.20914 341 -4 342.791 -4 345C-4 347.209 -2.20914 349 1.90735e-06 349V341ZM982 341L1.90735e-06 341V349L982 349V341Z" fill="url(#paint29_linear_141_91)"></path>
      <path d="M1.90735e-06 326C-2.20914 326 -4 327.791 -4 330C-4 332.209 -2.20914 334 1.90735e-06 334V326ZM982 326L1.90735e-06 326V334L982 334V326Z" fill="url(#paint30_linear_141_91)"></path>
      <path d="M1.90735e-06 311C-2.20914 311 -4 312.791 -4 315C-4 317.209 -2.20914 319 1.90735e-06 319V311ZM982 311L1.90735e-06 311V319L982 319V311Z" fill="url(#paint31_linear_141_91)"></path>
      <path d="M1.90735e-06 296C-2.20914 296 -4 297.791 -4 300C-4 302.209 -2.20914 304 1.90735e-06 304V296ZM982 296L1.90735e-06 296V304L982 304V296Z" fill="url(#paint32_linear_141_91)"></path>
      <path d="M1.90735e-06 281C-2.20914 281 -4 282.791 -4 285C-4 287.209 -2.20914 289 1.90735e-06 289V281ZM982 281L1.90735e-06 281V289L982 289V281Z" fill="url(#paint33_linear_141_91)"></path>
      <path d="M1.90735e-06 266C-2.20914 266 -4 267.791 -4 270C-4 272.209 -2.20914 274 1.90735e-06 274V266ZM982 266L1.90735e-06 266V274L982 274V266Z" fill="url(#paint34_linear_141_91)"></path>
      <path d="M1.90735e-06 251C-2.20914 251 -4 252.791 -4 255C-4 257.209 -2.20914 259 1.90735e-06 259V251ZM982 251L1.90735e-06 251V259L982 259V251Z" fill="url(#paint35_linear_141_91)"></path>
      <path d="M1.90735e-06 236C-2.20914 236 -4 237.791 -4 240C-4 242.209 -2.20914 244 1.90735e-06 244V236ZM982 236L1.90735e-06 236V244L982 244V236Z" fill="url(#paint36_linear_141_91)"></path>
      <path d="M1.90735e-06 221C-2.20914 221 -4 222.791 -4 225C-4 227.209 -2.20914 229 1.90735e-06 229V221ZM982 221L1.90735e-06 221V229L982 229V221Z" fill="url(#paint37_linear_141_91)"></path>
      <path d="M1.90735e-06 206C-2.20914 206 -4 207.791 -4 210C-4 212.209 -2.20914 214 1.90735e-06 214V206ZM982 206L1.90735e-06 206V214L982 214V206Z" fill="url(#paint38_linear_141_91)"></path>
      <path d="M1.90735e-06 191C-2.20914 191 -4 192.791 -4 195C-4 197.209 -2.20914 199 1.90735e-06 199V191ZM982 191L1.90735e-06 191V199L982 199V191Z" fill="url(#paint39_linear_141_91)"></path>
      <path d="M1.90735e-06 176C-2.20914 176 -4 177.791 -4 180C-4 182.209 -2.20914 184 1.90735e-06 184V176ZM982 176L1.90735e-06 176V184L982 184V176Z" fill="url(#paint40_linear_141_91)"></path>
      <path d="M1.90735e-06 161C-2.20914 161 -4 162.791 -4 165C-4 167.209 -2.20914 169 1.90735e-06 169V161ZM982 161L1.90735e-06 161V169L982 169V161Z" fill="url(#paint41_linear_141_91)"></path>
      <path d="M1.90735e-06 146C-2.20914 146 -4 147.791 -4 150C-4 152.209 -2.20914 154 1.90735e-06 154V146ZM982 146L1.90735e-06 146V154L982 154V146Z" fill="url(#paint42_linear_141_91)"></path>
      <path d="M1.90735e-06 131C-2.20914 131 -4 132.791 -4 135C-4 137.209 -2.20914 139 1.90735e-06 139V131ZM982 131L1.90735e-06 131V139L982 139V131Z" fill="url(#paint43_linear_141_91)"></path>
      <path d="M1.90735e-06 116C-2.20914 116 -4 117.791 -4 120C-4 122.209 -2.20914 124 1.90735e-06 124V116ZM982 116L1.90735e-06 116V124L982 124V116Z" fill="url(#paint44_linear_141_91)"></path>
      <path d="M1.90735e-06 101C-2.20914 101 -4 102.791 -4 105C-4 107.209 -2.20914 109 1.90735e-06 109V101ZM982 101L1.90735e-06 101V109L982 109V101Z" fill="url(#paint45_linear_141_91)"></path>
      <path d="M1.90735e-06 86C-2.20914 86 -4 87.7909 -4 90C-4 92.2091 -2.20914 94 1.90735e-06 94V86ZM982 86L1.90735e-06 86V94L982 94V86Z" fill="url(#paint46_linear_141_91)"></path>
      <path d="M1.90735e-06 71C-2.20914 71 -4 72.7909 -4 75C-4 77.2091 -2.20914 79 1.90735e-06 79V71ZM982 71L1.90735e-06 71V79L982 79V71Z" fill="url(#paint47_linear_141_91)"></path>
      <path d="M1.90735e-06 56C-2.20914 56 -4 57.7909 -4 60C-4 62.2091 -2.20914 64 1.90735e-06 64V56ZM982 56L1.90735e-06 56V64L982 64V56Z" fill="url(#paint48_linear_141_91)"></path>
      <path d="M1.90735e-06 41C-2.20914 41 -4 42.7909 -4 45C-4 47.2091 -2.20914 49 1.90735e-06 49V41ZM982 41L1.90735e-06 41V49L982 49V41Z" fill="url(#paint49_linear_141_91)"></path>
      <path d="M1.90735e-06 26C-2.20914 26 -4 27.7909 -4 30C-4 32.2091 -2.20914 34 1.90735e-06 34V26ZM982 26L1.90735e-06 26V34L982 34V26Z" fill="url(#paint50_linear_141_91)"></path>
      <path d="M1.90735e-06 11C-2.20914 11 -4 12.7909 -4 15C-4 17.2091 -2.20914 19 1.90735e-06 19V11ZM982 11L1.90735e-06 11V19L982 19V11Z" fill="url(#paint51_linear_141_91)"></path>
      <path d="M1.90735e-06 -4C-2.20914 -4 -4 -2.20914 -4 0C-4 2.20914 -2.20914 4 1.90735e-06 4V-4ZM982 -4L1.90735e-06 -4V4L982 4V-4Z" fill="url(#paint52_linear_141_91)"></path>
    </mask>
    <g mask="url(#mask0_141_91)">
      <path d="M-6.36035 10.4785L905.042 10.4785L613.114 808.896H-6.36035L-6.36035 10.4785Z" fill="#1D1D1D"></path>
    </g>
    <circle cx="552.5" cy="359.5" r="129" fill="#101010" stroke="white" stroke-width="5"></circle>
    <mask id="path-56-outside-1_141_91" maskUnits="userSpaceOnUse" x="470" y="330" width="167" height="55" fill="black">
      <rect fill="white" x="470" y="330" width="167" height="55"></rect>
      <path d="M473.93 382C473.417 382 472.997 381.837 472.67 381.51C472.343 381.183 472.18 380.763 472.18 380.25V334.75C472.18 334.237 472.343 333.817 472.67 333.49C472.997 333.163 473.417 333 473.93 333H481.84C482.353 333 482.773 333.163 483.1 333.49C483.427 333.817 483.59 334.237 483.59 334.75V380.25C483.59 380.763 483.427 381.183 483.1 381.51C482.773 381.837 482.353 382 481.84 382H473.93ZM495.668 382C495.155 382 494.735 381.837 494.408 381.51C494.082 381.183 493.918 380.763 493.918 380.25V334.75C493.918 334.237 494.082 333.817 494.408 333.49C494.735 333.163 495.155 333 495.668 333H502.038C502.738 333 503.252 333.163 503.578 333.49C503.905 333.817 504.115 334.073 504.208 334.26L522.898 363.45V334.75C522.898 334.237 523.062 333.817 523.388 333.49C523.715 333.163 524.112 333 524.578 333H531.718C532.232 333 532.652 333.163 532.978 333.49C533.305 333.817 533.468 334.237 533.468 334.75V380.25C533.468 380.717 533.305 381.137 532.978 381.51C532.652 381.837 532.232 382 531.718 382H525.278C524.578 382 524.065 381.837 523.738 381.51C523.458 381.137 523.248 380.88 523.108 380.74L504.488 352.46V380.25C504.488 380.763 504.325 381.183 503.998 381.51C503.672 381.837 503.252 382 502.738 382H495.668ZM563.491 382.7C559.104 382.7 555.347 381.977 552.221 380.53C549.141 379.037 546.737 376.89 545.011 374.09C543.331 371.243 542.421 367.813 542.281 363.8C542.234 361.793 542.211 359.647 542.211 357.36C542.211 355.073 542.234 352.903 542.281 350.85C542.421 346.93 543.331 343.593 545.011 340.84C546.737 338.087 549.164 335.987 552.291 334.54C555.464 333.047 559.197 332.3 563.491 332.3C566.944 332.3 569.977 332.743 572.591 333.63C575.204 334.517 577.397 335.683 579.171 337.13C580.944 338.53 582.297 340.07 583.231 341.75C584.164 343.43 584.654 345.04 584.701 346.58C584.701 347 584.561 347.373 584.281 347.7C584.001 347.98 583.627 348.12 583.161 348.12H574.481C574.014 348.12 573.641 348.027 573.361 347.84C573.127 347.653 572.917 347.373 572.731 347C572.404 346.16 571.867 345.32 571.121 344.48C570.421 343.593 569.464 342.847 568.251 342.24C567.037 341.633 565.451 341.33 563.491 341.33C560.551 341.33 558.217 342.1 556.491 343.64C554.811 345.18 553.901 347.7 553.761 351.2C553.621 355.213 553.621 359.297 553.761 363.45C553.901 367.09 554.834 369.703 556.561 371.29C558.334 372.877 560.691 373.67 563.631 373.67C565.544 373.67 567.247 373.343 568.741 372.69C570.281 371.99 571.494 370.917 572.381 369.47C573.267 368.023 573.711 366.18 573.711 363.94V362.19H566.081C565.614 362.19 565.217 362.027 564.891 361.7C564.564 361.327 564.401 360.907 564.401 360.44V355.96C564.401 355.447 564.564 355.027 564.891 354.7C565.217 354.373 565.614 354.21 566.081 354.21H583.231C583.744 354.21 584.164 354.373 584.491 354.7C584.817 355.027 584.981 355.447 584.981 355.96V363.59C584.981 367.603 584.094 371.033 582.321 373.88C580.594 376.727 578.097 378.92 574.831 380.46C571.611 381.953 567.831 382.7 563.491 382.7ZM612.978 382.7C608.591 382.7 604.858 381.977 601.778 380.53C598.745 379.037 596.388 376.89 594.708 374.09C593.028 371.243 592.095 367.79 591.908 363.73C591.861 361.817 591.838 359.763 591.838 357.57C591.838 355.377 591.861 353.277 591.908 351.27C592.095 347.257 593.028 343.85 594.708 341.05C596.435 338.203 598.838 336.033 601.918 334.54C604.998 333.047 608.685 332.3 612.978 332.3C616.105 332.3 618.951 332.697 621.518 333.49C624.085 334.283 626.301 335.427 628.168 336.92C630.035 338.413 631.481 340.163 632.508 342.17C633.535 344.177 634.095 346.417 634.188 348.89C634.188 349.31 634.025 349.66 633.698 349.94C633.418 350.22 633.068 350.36 632.648 350.36H624.668C624.108 350.36 623.665 350.22 623.338 349.94C623.011 349.66 622.755 349.193 622.568 348.54C621.868 345.787 620.701 343.897 619.068 342.87C617.435 341.843 615.405 341.33 612.978 341.33C610.085 341.33 607.798 342.123 606.118 343.71C604.438 345.297 603.528 347.933 603.388 351.62C603.248 355.447 603.248 359.367 603.388 363.38C603.528 367.067 604.438 369.703 606.118 371.29C607.798 372.877 610.085 373.67 612.978 373.67C615.405 373.67 617.435 373.157 619.068 372.13C620.748 371.057 621.915 369.167 622.568 366.46C622.755 365.76 623.011 365.293 623.338 365.06C623.665 364.78 624.108 364.64 624.668 364.64H632.648C633.068 364.64 633.418 364.78 633.698 365.06C634.025 365.34 634.188 365.69 634.188 366.11C634.095 368.583 633.535 370.823 632.508 372.83C631.481 374.837 630.035 376.587 628.168 378.08C626.301 379.573 624.085 380.717 621.518 381.51C618.951 382.303 616.105 382.7 612.978 382.7Z"></path>
    </mask>
    <path d="M473.93 382C473.417 382 472.997 381.837 472.67 381.51C472.343 381.183 472.18 380.763 472.18 380.25V334.75C472.18 334.237 472.343 333.817 472.67 333.49C472.997 333.163 473.417 333 473.93 333H481.84C482.353 333 482.773 333.163 483.1 333.49C483.427 333.817 483.59 334.237 483.59 334.75V380.25C483.59 380.763 483.427 381.183 483.1 381.51C482.773 381.837 482.353 382 481.84 382H473.93ZM495.668 382C495.155 382 494.735 381.837 494.408 381.51C494.082 381.183 493.918 380.763 493.918 380.25V334.75C493.918 334.237 494.082 333.817 494.408 333.49C494.735 333.163 495.155 333 495.668 333H502.038C502.738 333 503.252 333.163 503.578 333.49C503.905 333.817 504.115 334.073 504.208 334.26L522.898 363.45V334.75C522.898 334.237 523.062 333.817 523.388 333.49C523.715 333.163 524.112 333 524.578 333H531.718C532.232 333 532.652 333.163 532.978 333.49C533.305 333.817 533.468 334.237 533.468 334.75V380.25C533.468 380.717 533.305 381.137 532.978 381.51C532.652 381.837 532.232 382 531.718 382H525.278C524.578 382 524.065 381.837 523.738 381.51C523.458 381.137 523.248 380.88 523.108 380.74L504.488 352.46V380.25C504.488 380.763 504.325 381.183 503.998 381.51C503.672 381.837 503.252 382 502.738 382H495.668ZM563.491 382.7C559.104 382.7 555.347 381.977 552.221 380.53C549.141 379.037 546.737 376.89 545.011 374.09C543.331 371.243 542.421 367.813 542.281 363.8C542.234 361.793 542.211 359.647 542.211 357.36C542.211 355.073 542.234 352.903 542.281 350.85C542.421 346.93 543.331 343.593 545.011 340.84C546.737 338.087 549.164 335.987 552.291 334.54C555.464 333.047 559.197 332.3 563.491 332.3C566.944 332.3 569.977 332.743 572.591 333.63C575.204 334.517 577.397 335.683 579.171 337.13C580.944 338.53 582.297 340.07 583.231 341.75C584.164 343.43 584.654 345.04 584.701 346.58C584.701 347 584.561 347.373 584.281 347.7C584.001 347.98 583.627 348.12 583.161 348.12H574.481C574.014 348.12 573.641 348.027 573.361 347.84C573.127 347.653 572.917 347.373 572.731 347C572.404 346.16 571.867 345.32 571.121 344.48C570.421 343.593 569.464 342.847 568.251 342.24C567.037 341.633 565.451 341.33 563.491 341.33C560.551 341.33 558.217 342.1 556.491 343.64C554.811 345.18 553.901 347.7 553.761 351.2C553.621 355.213 553.621 359.297 553.761 363.45C553.901 367.09 554.834 369.703 556.561 371.29C558.334 372.877 560.691 373.67 563.631 373.67C565.544 373.67 567.247 373.343 568.741 372.69C570.281 371.99 571.494 370.917 572.381 369.47C573.267 368.023 573.711 366.18 573.711 363.94V362.19H566.081C565.614 362.19 565.217 362.027 564.891 361.7C564.564 361.327 564.401 360.907 564.401 360.44V355.96C564.401 355.447 564.564 355.027 564.891 354.7C565.217 354.373 565.614 354.21 566.081 354.21H583.231C583.744 354.21 584.164 354.373 584.491 354.7C584.817 355.027 584.981 355.447 584.981 355.96V363.59C584.981 367.603 584.094 371.033 582.321 373.88C580.594 376.727 578.097 378.92 574.831 380.46C571.611 381.953 567.831 382.7 563.491 382.7ZM612.978 382.7C608.591 382.7 604.858 381.977 601.778 380.53C598.745 379.037 596.388 376.89 594.708 374.09C593.028 371.243 592.095 367.79 591.908 363.73C591.861 361.817 591.838 359.763 591.838 357.57C591.838 355.377 591.861 353.277 591.908 351.27C592.095 347.257 593.028 343.85 594.708 341.05C596.435 338.203 598.838 336.033 601.918 334.54C604.998 333.047 608.685 332.3 612.978 332.3C616.105 332.3 618.951 332.697 621.518 333.49C624.085 334.283 626.301 335.427 628.168 336.92C630.035 338.413 631.481 340.163 632.508 342.17C633.535 344.177 634.095 346.417 634.188 348.89C634.188 349.31 634.025 349.66 633.698 349.94C633.418 350.22 633.068 350.36 632.648 350.36H624.668C624.108 350.36 623.665 350.22 623.338 349.94C623.011 349.66 622.755 349.193 622.568 348.54C621.868 345.787 620.701 343.897 619.068 342.87C617.435 341.843 615.405 341.33 612.978 341.33C610.085 341.33 607.798 342.123 606.118 343.71C604.438 345.297 603.528 347.933 603.388 351.62C603.248 355.447 603.248 359.367 603.388 363.38C603.528 367.067 604.438 369.703 606.118 371.29C607.798 372.877 610.085 373.67 612.978 373.67C615.405 373.67 617.435 373.157 619.068 372.13C620.748 371.057 621.915 369.167 622.568 366.46C622.755 365.76 623.011 365.293 623.338 365.06C623.665 364.78 624.108 364.64 624.668 364.64H632.648C633.068 364.64 633.418 364.78 633.698 365.06C634.025 365.34 634.188 365.69 634.188 366.11C634.095 368.583 633.535 370.823 632.508 372.83C631.481 374.837 630.035 376.587 628.168 378.08C626.301 379.573 624.085 380.717 621.518 381.51C618.951 382.303 616.105 382.7 612.978 382.7Z" fill="white"></path>
    <path d="M472.67 381.51L471.256 382.924L471.256 382.924L472.67 381.51ZM472.67 333.49L474.084 334.904L474.084 334.904L472.67 333.49ZM483.1 333.49L481.686 334.904L481.686 334.904L483.1 333.49ZM483.1 381.51L481.686 380.096L481.686 380.096L483.1 381.51ZM473.93 380C473.887 380 473.904 379.994 473.955 380.013C473.979 380.023 474.005 380.036 474.03 380.052C474.055 380.068 474.073 380.084 474.084 380.096L471.256 382.924C472.001 383.669 472.951 384 473.93 384V380ZM474.084 380.096C474.096 380.107 474.112 380.125 474.128 380.15C474.144 380.175 474.157 380.201 474.167 380.225C474.186 380.276 474.18 380.293 474.18 380.25H470.18C470.18 381.229 470.511 382.179 471.256 382.924L474.084 380.096ZM474.18 380.25V334.75H470.18V380.25H474.18ZM474.18 334.75C474.18 334.707 474.186 334.724 474.167 334.775C474.157 334.799 474.144 334.825 474.128 334.85C474.112 334.875 474.096 334.893 474.084 334.904L471.256 332.076C470.511 332.821 470.18 333.771 470.18 334.75H474.18ZM474.084 334.904C474.073 334.916 474.055 334.932 474.03 334.948C474.005 334.964 473.979 334.977 473.955 334.987C473.904 335.006 473.887 335 473.93 335V331C472.951 331 472.001 331.331 471.256 332.076L474.084 334.904ZM473.93 335H481.84V331H473.93V335ZM481.84 335C481.883 335 481.866 335.006 481.815 334.987C481.791 334.977 481.765 334.964 481.74 334.948C481.715 334.932 481.697 334.916 481.686 334.904L484.514 332.076C483.769 331.331 482.819 331 481.84 331V335ZM481.686 334.904C481.674 334.893 481.658 334.875 481.642 334.85C481.626 334.825 481.613 334.799 481.603 334.775C481.584 334.724 481.59 334.707 481.59 334.75H485.59C485.59 333.771 485.259 332.821 484.514 332.076L481.686 334.904ZM481.59 334.75V380.25H485.59V334.75H481.59ZM481.59 380.25C481.59 380.293 481.584 380.276 481.603 380.225C481.613 380.201 481.626 380.175 481.642 380.15C481.658 380.125 481.674 380.107 481.686 380.096L484.514 382.924C485.259 382.179 485.59 381.229 485.59 380.25H481.59ZM481.686 380.096C481.697 380.084 481.715 380.068 481.74 380.052C481.765 380.036 481.791 380.023 481.815 380.013C481.866 379.994 481.883 380 481.84 380V384C482.819 384 483.769 383.669 484.514 382.924L481.686 380.096ZM481.84 380H473.93V384H481.84V380ZM494.408 381.51L492.994 382.924L492.994 382.924L494.408 381.51ZM494.408 333.49L495.822 334.904L495.822 334.904L494.408 333.49ZM503.578 333.49L502.164 334.904L502.164 334.904L503.578 333.49ZM504.208 334.26L502.419 335.154L502.467 335.249L502.524 335.338L504.208 334.26ZM522.898 363.45L521.214 364.528L524.898 370.283V363.45H522.898ZM523.388 333.49L524.802 334.904L524.803 334.904L523.388 333.49ZM532.978 333.49L531.564 334.904L531.564 334.904L532.978 333.49ZM532.978 381.51L534.392 382.924L534.44 382.877L534.483 382.827L532.978 381.51ZM523.738 381.51L522.138 382.71L522.224 382.824L522.324 382.924L523.738 381.51ZM523.108 380.74L521.438 381.84L521.55 382.01L521.694 382.154L523.108 380.74ZM504.488 352.46L506.159 351.36L502.488 345.786V352.46H504.488ZM495.668 380C495.625 380 495.642 379.994 495.693 380.013C495.717 380.023 495.743 380.036 495.768 380.052C495.793 380.068 495.811 380.084 495.822 380.096L492.994 382.924C493.739 383.669 494.689 384 495.668 384V380ZM495.822 380.096C495.834 380.107 495.85 380.125 495.866 380.15C495.882 380.175 495.895 380.201 495.905 380.225C495.925 380.276 495.918 380.293 495.918 380.25H491.918C491.918 381.229 492.249 382.179 492.994 382.924L495.822 380.096ZM495.918 380.25V334.75H491.918V380.25H495.918ZM495.918 334.75C495.918 334.707 495.925 334.724 495.905 334.775C495.895 334.799 495.882 334.825 495.866 334.85C495.85 334.875 495.834 334.893 495.822 334.904L492.994 332.076C492.249 332.821 491.918 333.771 491.918 334.75H495.918ZM495.822 334.904C495.811 334.916 495.793 334.932 495.768 334.948C495.743 334.964 495.717 334.977 495.693 334.987C495.642 335.006 495.625 335 495.668 335V331C494.689 331 493.739 331.331 492.994 332.076L495.822 334.904ZM495.668 335H502.038V331H495.668V335ZM502.038 335C502.136 335 502.21 335.006 502.261 335.013C502.313 335.02 502.338 335.027 502.342 335.028C502.345 335.029 502.325 335.023 502.291 335.003C502.255 334.982 502.21 334.95 502.164 334.904L504.992 332.076C504.136 331.219 503 331 502.038 331V335ZM502.164 334.904C502.297 335.037 502.383 335.133 502.433 335.194C502.457 335.224 502.467 335.237 502.466 335.236C502.465 335.235 502.46 335.228 502.453 335.216C502.445 335.203 502.434 335.183 502.419 335.154L505.997 333.366C505.748 332.867 505.332 332.416 504.992 332.076L502.164 334.904ZM502.524 335.338L521.214 364.528L524.583 362.372L505.893 333.182L502.524 335.338ZM524.898 363.45V334.75H520.898V363.45H524.898ZM524.898 334.75C524.898 334.707 524.905 334.724 524.885 334.775C524.875 334.799 524.862 334.825 524.846 334.85C524.83 334.875 524.814 334.893 524.802 334.904L521.974 332.076C521.229 332.821 520.898 333.771 520.898 334.75H524.898ZM524.803 334.904C524.794 334.913 524.756 334.945 524.692 334.972C524.629 334.998 524.583 335 524.578 335V331C523.587 331 522.68 331.37 521.974 332.076L524.803 334.904ZM524.578 335H531.718V331H524.578V335ZM531.718 335C531.761 335 531.744 335.006 531.693 334.987C531.669 334.977 531.643 334.964 531.618 334.948C531.594 334.932 531.576 334.916 531.564 334.904L534.392 332.076C533.647 331.331 532.697 331 531.718 331V335ZM531.564 334.904C531.553 334.893 531.537 334.875 531.521 334.85C531.504 334.825 531.491 334.799 531.482 334.775C531.462 334.724 531.468 334.707 531.468 334.75H535.468C535.468 333.771 535.138 332.821 534.392 332.076L531.564 334.904ZM531.468 334.75V380.25H535.468V334.75H531.468ZM531.468 380.25C531.468 380.249 531.468 380.242 531.471 380.229C531.473 380.216 531.477 380.202 531.482 380.19C531.487 380.178 531.491 380.171 531.491 380.17C531.491 380.17 531.487 380.177 531.473 380.193L534.483 382.827C535.107 382.114 535.468 381.233 535.468 380.25H531.468ZM531.564 380.096C531.576 380.084 531.594 380.068 531.618 380.052C531.643 380.036 531.669 380.023 531.693 380.013C531.744 379.994 531.761 380 531.718 380V384C532.697 384 533.647 383.669 534.392 382.924L531.564 380.096ZM531.718 380H525.278V384H531.718V380ZM525.278 380C525.18 380 525.107 379.994 525.055 379.987C525.003 379.98 524.978 379.973 524.975 379.972C524.971 379.971 524.991 379.977 525.026 379.997C525.062 380.018 525.106 380.05 525.152 380.096L522.324 382.924C523.181 383.781 524.317 384 525.278 384V380ZM525.338 380.31C525.057 379.935 524.773 379.576 524.522 379.326L521.694 382.154C521.692 382.152 521.702 382.162 521.727 382.19C521.751 382.217 521.782 382.254 521.823 382.304C521.905 382.404 522.009 382.538 522.138 382.71L525.338 380.31ZM524.779 379.64L506.159 351.36L502.818 353.56L521.438 381.84L524.779 379.64ZM502.488 352.46V380.25H506.488V352.46H502.488ZM502.488 380.25C502.488 380.293 502.482 380.276 502.502 380.225C502.511 380.201 502.524 380.175 502.541 380.15C502.557 380.125 502.573 380.107 502.584 380.096L505.412 382.924C506.158 382.179 506.488 381.229 506.488 380.25H502.488ZM502.584 380.096C502.596 380.084 502.614 380.068 502.638 380.052C502.663 380.036 502.689 380.023 502.713 380.013C502.764 379.994 502.781 380 502.738 380V384C503.717 384 504.667 383.669 505.412 382.924L502.584 380.096ZM502.738 380H495.668V384H502.738V380ZM552.221 380.53L551.348 382.33L551.364 382.338L551.381 382.345L552.221 380.53ZM545.011 374.09L543.288 375.107L543.298 375.123L543.308 375.14L545.011 374.09ZM542.281 363.8L540.281 363.846L540.281 363.858L540.282 363.87L542.281 363.8ZM542.281 350.85L540.282 350.779L540.281 350.792L540.281 350.805L542.281 350.85ZM545.011 340.84L543.316 339.777L543.31 339.788L543.303 339.798L545.011 340.84ZM552.291 334.54L553.13 336.355L553.142 336.35L552.291 334.54ZM572.591 333.63L571.948 335.524L572.591 333.63ZM579.171 337.13L577.906 338.68L577.919 338.69L577.931 338.7L579.171 337.13ZM583.231 341.75L584.979 340.779L584.979 340.779L583.231 341.75ZM584.701 346.58H586.701V346.55L586.7 346.519L584.701 346.58ZM584.281 347.7L585.695 349.114L585.749 349.06L585.799 349.002L584.281 347.7ZM573.361 347.84L572.111 349.402L572.179 349.456L572.251 349.504L573.361 347.84ZM572.731 347L570.867 347.725L570.9 347.811L570.942 347.894L572.731 347ZM571.121 344.48L569.551 345.719L569.587 345.765L569.626 345.809L571.121 344.48ZM568.251 342.24L567.356 344.029L567.356 344.029L568.251 342.24ZM556.491 343.64L555.159 342.147L555.149 342.156L555.139 342.166L556.491 343.64ZM553.761 351.2L551.762 351.12L551.762 351.13L553.761 351.2ZM553.761 363.45L551.762 363.517L551.762 363.527L553.761 363.45ZM556.561 371.29L555.207 372.763L555.217 372.772L555.227 372.78L556.561 371.29ZM568.741 372.69L569.542 374.522L569.555 374.517L569.568 374.511L568.741 372.69ZM572.381 369.47L570.675 368.425L570.675 368.425L572.381 369.47ZM573.711 362.19H575.711V360.19H573.711V362.19ZM564.891 361.7L563.385 363.017L563.429 363.067L563.476 363.114L564.891 361.7ZM582.321 373.88L580.623 372.823L580.617 372.833L580.611 372.843L582.321 373.88ZM574.831 380.46L575.672 382.274L575.683 382.269L574.831 380.46ZM563.491 380.7C559.317 380.7 555.862 380.011 553.06 378.715L551.381 382.345C554.832 383.942 558.89 384.7 563.491 384.7V380.7ZM553.093 378.73C550.341 377.396 548.232 375.503 546.713 373.04L543.308 375.14C545.243 378.277 547.94 380.677 551.348 382.33L553.093 378.73ZM546.733 373.073C545.256 370.57 544.41 367.481 544.279 363.73L540.282 363.87C540.431 368.146 541.406 371.917 543.288 375.107L546.733 373.073ZM544.28 363.753C544.234 361.764 544.211 359.633 544.211 357.36H540.211C540.211 359.66 540.234 361.822 540.281 363.846L544.28 363.753ZM544.211 357.36C544.211 355.087 544.234 352.932 544.28 350.895L540.281 350.805C540.234 352.875 540.211 355.06 540.211 357.36H544.211ZM544.279 350.921C544.41 347.271 545.252 344.285 546.718 341.882L543.303 339.798C541.41 342.902 540.432 346.589 540.282 350.779L544.279 350.921ZM546.705 341.903C548.213 339.498 550.333 337.649 553.13 336.355L551.451 332.725C547.995 334.324 545.261 336.676 543.316 339.777L546.705 341.903ZM553.142 336.35C555.996 335.007 559.427 334.3 563.491 334.3V330.3C558.968 330.3 554.932 331.087 551.439 332.73L553.142 336.35ZM563.491 334.3C566.778 334.3 569.586 334.723 571.948 335.524L573.233 331.736C570.368 330.764 567.11 330.3 563.491 330.3V334.3ZM571.948 335.524C574.38 336.349 576.352 337.411 577.906 338.68L580.435 335.58C578.443 333.955 576.027 332.684 573.233 331.736L571.948 335.524ZM577.931 338.7C579.533 339.964 580.698 341.309 581.482 342.721L584.979 340.779C583.897 338.831 582.355 337.096 580.41 335.56L577.931 338.7ZM581.482 342.721C582.298 344.19 582.667 345.489 582.702 346.641L586.7 346.519C586.641 344.591 586.03 342.67 584.979 340.779L581.482 342.721ZM582.701 346.58C582.701 346.563 582.704 346.522 582.723 346.473C582.732 346.45 582.741 346.431 582.749 346.417C582.758 346.404 582.763 346.397 582.762 346.398L585.799 349.002C586.382 348.322 586.701 347.49 586.701 346.58H582.701ZM582.866 346.286C582.93 346.222 583.01 346.172 583.088 346.142C583.161 346.115 583.194 346.12 583.161 346.12V350.12C584.056 350.12 584.973 349.836 585.695 349.114L582.866 346.286ZM583.161 346.12H574.481V350.12H583.161V346.12ZM574.481 346.12C574.43 346.12 574.394 346.117 574.369 346.115C574.344 346.112 574.334 346.109 574.336 346.11C574.34 346.111 574.394 346.125 574.47 346.176L572.251 349.504C572.964 349.979 573.767 350.12 574.481 350.12V346.12ZM574.61 346.278C574.645 346.306 574.649 346.318 574.628 346.29C574.607 346.262 574.569 346.205 574.519 346.106L570.942 347.894C571.21 348.431 571.581 348.977 572.111 349.402L574.61 346.278ZM574.595 346.275C574.163 345.166 573.483 344.127 572.615 343.151L569.626 345.809C570.252 346.513 570.644 347.154 570.867 347.725L574.595 346.275ZM572.69 343.241C571.775 342.082 570.569 341.163 569.145 340.451L567.356 344.029C568.359 344.53 569.066 345.105 569.551 345.719L572.69 343.241ZM569.145 340.451C567.558 339.658 565.633 339.33 563.491 339.33V343.33C565.268 343.33 566.516 343.609 567.356 344.029L569.145 340.451ZM563.491 339.33C560.197 339.33 557.343 340.2 555.159 342.147L557.822 345.133C559.091 344 560.904 343.33 563.491 343.33V339.33ZM555.139 342.166C552.899 344.219 551.912 347.368 551.762 351.12L555.759 351.28C555.889 348.032 556.722 346.141 557.842 345.114L555.139 342.166ZM551.762 351.13C551.62 355.191 551.62 359.32 551.762 363.517L555.759 363.383C555.621 359.273 555.621 355.236 555.759 351.27L551.762 351.13ZM551.762 363.527C551.912 367.412 552.918 370.659 555.207 372.763L557.914 369.817C556.75 368.748 555.89 366.768 555.759 363.373L551.762 363.527ZM555.227 372.78C557.448 374.768 560.319 375.67 563.631 375.67V371.67C561.062 371.67 559.22 370.986 557.894 369.8L555.227 372.78ZM563.631 375.67C565.772 375.67 567.756 375.304 569.542 374.522L567.939 370.858C566.739 371.383 565.315 371.67 563.631 371.67V375.67ZM569.568 374.511C571.473 373.645 572.991 372.301 574.086 370.515L570.675 368.425C569.997 369.532 569.088 370.335 567.913 370.869L569.568 374.511ZM574.086 370.515C575.218 368.668 575.711 366.434 575.711 363.94H571.711C571.711 365.926 571.317 367.378 570.675 368.425L574.086 370.515ZM575.711 363.94V362.19H571.711V363.94H575.711ZM573.711 360.19H566.081V364.19H573.711V360.19ZM566.081 360.19C566.085 360.19 566.131 360.192 566.195 360.218C566.259 360.245 566.296 360.277 566.305 360.286L563.476 363.114C564.182 363.82 565.09 364.19 566.081 364.19V360.19ZM566.396 360.383C566.382 360.367 566.378 360.36 566.378 360.36C566.378 360.361 566.382 360.368 566.387 360.38C566.392 360.392 566.396 360.406 566.398 360.419C566.399 360.425 566.4 360.43 566.4 360.434C566.4 360.436 566.401 360.437 566.401 360.438C566.401 360.439 566.401 360.439 566.401 360.44C566.401 360.44 566.401 360.44 566.401 360.44C566.401 360.44 566.401 360.44 566.401 360.44C566.401 360.44 566.401 360.44 566.401 360.44H562.401C562.401 361.423 562.762 362.304 563.385 363.017L566.396 360.383ZM566.401 360.44V355.96H562.401V360.44H566.401ZM566.401 355.96C566.401 355.917 566.407 355.934 566.387 355.985C566.378 356.009 566.365 356.035 566.348 356.06C566.332 356.085 566.316 356.103 566.305 356.114L563.476 353.286C562.731 354.031 562.401 354.981 562.401 355.96H566.401ZM566.305 356.114C566.296 356.123 566.259 356.155 566.195 356.182C566.131 356.208 566.085 356.21 566.081 356.21V352.21C565.09 352.21 564.182 352.58 563.476 353.286L566.305 356.114ZM566.081 356.21H583.231V352.21H566.081V356.21ZM583.231 356.21C583.273 356.21 583.257 356.216 583.206 356.197C583.181 356.187 583.156 356.174 583.131 356.158C583.106 356.142 583.088 356.126 583.076 356.114L585.905 353.286C585.16 352.541 584.21 352.21 583.231 352.21V356.21ZM583.076 356.114C583.065 356.103 583.049 356.085 583.033 356.06C583.017 356.035 583.004 356.009 582.994 355.985C582.974 355.934 582.981 355.917 582.981 355.96H586.981C586.981 354.981 586.65 354.031 585.905 353.286L583.076 356.114ZM582.981 355.96V363.59H586.981V355.96H582.981ZM582.981 363.59C582.981 367.304 582.163 370.351 580.623 372.823L584.018 374.937C586.025 371.716 586.981 367.903 586.981 363.59H582.981ZM580.611 372.843C579.105 375.325 576.921 377.264 573.978 378.651L575.683 382.269C579.274 380.576 582.083 378.128 584.031 374.917L580.611 372.843ZM573.989 378.646C571.085 379.993 567.603 380.7 563.491 380.7V384.7C568.058 384.7 572.136 383.914 575.672 382.274L573.989 378.646ZM601.778 380.53L600.895 382.324L600.911 382.332L600.928 382.34L601.778 380.53ZM594.708 374.09L592.985 375.107L592.989 375.113L592.993 375.119L594.708 374.09ZM591.908 363.73L589.908 363.779L589.909 363.8L589.91 363.822L591.908 363.73ZM591.908 351.27L589.91 351.177L589.909 351.2L589.908 351.224L591.908 351.27ZM594.708 341.05L592.998 340.013L592.993 340.021L594.708 341.05ZM601.918 334.54L601.045 332.74L601.045 332.74L601.918 334.54ZM621.518 333.49L620.927 335.401L620.927 335.401L621.518 333.49ZM628.168 336.92L626.919 338.482L626.919 338.482L628.168 336.92ZM632.508 342.17L630.727 343.081L630.727 343.081L632.508 342.17ZM634.188 348.89H636.188V348.852L636.186 348.815L634.188 348.89ZM633.698 349.94L632.396 348.421L632.338 348.471L632.284 348.526L633.698 349.94ZM623.338 349.94L622.036 351.459L622.036 351.459L623.338 349.94ZM622.568 348.54L620.63 349.033L620.637 349.061L620.645 349.089L622.568 348.54ZM619.068 342.87L618.004 344.563L618.004 344.563L619.068 342.87ZM606.118 343.71L604.745 342.256L604.745 342.256L606.118 343.71ZM603.388 351.62L601.389 351.544L601.389 351.547L603.388 351.62ZM603.388 363.38L601.389 363.45L601.389 363.456L603.388 363.38ZM606.118 371.29L607.491 369.836L606.118 371.29ZM619.068 372.13L620.132 373.823L620.138 373.819L620.145 373.815L619.068 372.13ZM622.568 366.46L620.635 365.945L620.629 365.968L620.624 365.991L622.568 366.46ZM623.338 365.06L624.5 366.687L624.572 366.636L624.639 366.579L623.338 365.06ZM633.698 365.06L632.284 366.474L632.338 366.529L632.396 366.579L633.698 365.06ZM634.188 366.11L636.186 366.185L636.188 366.148V366.11H634.188ZM632.508 372.83L630.727 371.919L630.727 371.919L632.508 372.83ZM628.168 378.08L626.919 376.518L626.919 376.518L628.168 378.08ZM621.518 381.51L620.927 379.599L621.518 381.51ZM612.978 380.7C608.803 380.7 605.377 380.011 602.628 378.72L600.928 382.34C604.339 383.943 608.379 384.7 612.978 384.7V380.7ZM602.661 378.736C599.96 377.406 597.898 375.519 596.423 373.061L592.993 375.119C594.878 378.261 597.529 380.667 600.895 382.324L602.661 378.736ZM596.43 373.073C594.95 370.565 594.081 367.446 593.906 363.638L589.91 363.822C590.108 368.134 591.106 371.921 592.985 375.107L596.43 373.073ZM593.907 363.681C593.861 361.786 593.838 359.749 593.838 357.57H589.838C589.838 359.777 589.861 361.847 589.908 363.779L593.907 363.681ZM593.838 357.57C593.838 355.391 593.861 353.306 593.907 351.316L589.908 351.224C589.861 353.247 589.838 355.363 589.838 357.57H593.838ZM593.906 351.363C594.081 347.605 594.948 344.537 596.423 342.079L592.993 340.021C591.108 343.163 590.109 346.908 589.91 351.177L593.906 351.363ZM596.418 342.087C597.939 339.58 600.047 337.67 602.79 336.34L601.045 332.74C597.629 334.397 594.93 336.827 592.998 340.013L596.418 342.087ZM602.79 336.34C605.538 335.007 608.912 334.3 612.978 334.3V330.3C608.457 330.3 604.457 331.086 601.045 332.74L602.79 336.34ZM612.978 334.3C615.936 334.3 618.58 334.675 620.927 335.401L622.109 331.579C619.322 330.718 616.273 330.3 612.978 330.3V334.3ZM620.927 335.401C623.284 336.129 625.27 337.163 626.919 338.482L629.417 335.358C627.332 333.69 624.885 332.437 622.109 331.579L620.927 335.401ZM626.919 338.482C628.578 339.809 629.837 341.341 630.727 343.081L634.288 341.259C633.125 338.985 631.491 337.018 629.417 335.358L626.919 338.482ZM630.727 343.081C631.609 344.804 632.106 346.754 632.189 348.965L636.186 348.815C636.083 346.079 635.46 343.55 634.288 341.259L630.727 343.081ZM632.188 348.89C632.188 348.834 632.201 348.734 632.253 348.622C632.305 348.511 632.368 348.446 632.396 348.421L634.999 351.459C635.757 350.809 636.188 349.91 636.188 348.89H632.188ZM632.284 348.526C632.325 348.484 632.394 348.434 632.483 348.398C632.569 348.363 632.632 348.36 632.648 348.36V352.36C633.563 352.36 634.433 352.034 635.112 351.354L632.284 348.526ZM632.648 348.36H624.668V352.36H632.648V348.36ZM624.668 348.36C624.552 348.36 624.509 348.345 624.518 348.348C624.523 348.349 624.539 348.355 624.562 348.368C624.586 348.381 624.613 348.399 624.639 348.421L622.036 351.459C622.823 352.133 623.777 352.36 624.668 352.36V348.36ZM624.639 348.421C624.696 348.47 624.692 348.487 624.653 348.416C624.613 348.344 624.554 348.211 624.491 347.991L620.645 349.089C620.882 349.919 621.286 350.815 622.036 351.459L624.639 348.421ZM624.506 348.047C623.739 345.029 622.368 342.582 620.132 341.177L618.004 344.563C619.035 345.211 619.997 346.545 620.63 349.033L624.506 348.047ZM620.132 341.177C618.107 339.904 615.685 339.33 612.978 339.33V343.33C615.124 343.33 616.762 343.783 618.004 344.563L620.132 341.177ZM612.978 339.33C609.709 339.33 606.883 340.236 604.745 342.256L607.491 345.164C608.712 344.011 610.461 343.33 612.978 343.33V339.33ZM604.745 342.256C602.51 344.366 601.538 347.634 601.389 351.544L605.386 351.696C605.518 348.233 606.365 346.227 607.491 345.164L604.745 342.256ZM601.389 351.547C601.247 355.423 601.248 359.391 601.389 363.45L605.387 363.31C605.248 359.342 605.248 355.47 605.387 351.693L601.389 351.547ZM601.389 363.456C601.538 367.366 602.51 370.634 604.745 372.744L607.491 369.836C606.365 368.773 605.518 366.767 605.386 363.304L601.389 363.456ZM604.745 372.744C606.883 374.764 609.709 375.67 612.978 375.67V371.67C610.461 371.67 608.712 370.989 607.491 369.836L604.745 372.744ZM612.978 375.67C615.685 375.67 618.107 375.096 620.132 373.823L618.004 370.437C616.762 371.217 615.124 371.67 612.978 371.67V375.67ZM620.145 373.815C622.408 372.37 623.786 369.937 624.512 366.929L620.624 365.991C620.043 368.396 619.088 369.744 617.991 370.445L620.145 373.815ZM624.5 366.975C624.566 366.73 624.625 366.6 624.653 366.549C624.682 366.496 624.647 366.583 624.5 366.687L622.175 363.433C621.268 364.081 620.856 365.117 620.635 365.945L624.5 366.975ZM624.639 366.579C624.613 366.601 624.586 366.619 624.562 366.632C624.539 366.645 624.523 366.651 624.518 366.652C624.509 366.655 624.552 366.64 624.668 366.64V362.64C623.777 362.64 622.823 362.867 622.036 363.541L624.639 366.579ZM624.668 366.64H632.648V362.64H624.668V366.64ZM632.648 366.64C632.632 366.64 632.569 366.637 632.483 366.602C632.394 366.566 632.325 366.516 632.284 366.474L635.112 363.646C634.433 362.966 633.563 362.64 632.648 362.64V366.64ZM632.396 366.579C632.368 366.554 632.305 366.489 632.253 366.378C632.201 366.266 632.188 366.166 632.188 366.11H636.188C636.188 365.09 635.757 364.191 634.999 363.541L632.396 366.579ZM632.189 366.035C632.106 368.246 631.609 370.196 630.727 371.919L634.288 373.741C635.46 371.45 636.083 368.921 636.186 366.185L632.189 366.035ZM630.727 371.919C629.837 373.659 628.578 375.191 626.919 376.518L629.417 379.642C631.491 377.982 633.125 376.015 634.288 373.741L630.727 371.919ZM626.919 376.518C625.27 377.837 623.284 378.871 620.927 379.599L622.109 383.421C624.885 382.563 627.332 381.31 629.417 379.642L626.919 376.518ZM620.927 379.599C618.58 380.325 615.936 380.7 612.978 380.7V384.7C616.273 384.7 619.322 384.282 622.109 383.421L620.927 379.599Z" fill="white" mask="url(#path-56-outside-1_141_91)"></path>
  </g>
  <defs>
    <linearGradient id="paint0_linear_141_91" x1="2.3893e-05" y1="774.999" x2="1040.25" y2="775.004" gradientUnits="userSpaceOnUse">
      <stop></stop>
      <stop offset="1" stop-color="white" stop-opacity="0.5"></stop>
    </linearGradient>
    <linearGradient id="paint1_linear_141_91" x1="2.3893e-05" y1="759.999" x2="1040.25" y2="760.004" gradientUnits="userSpaceOnUse">
      <stop></stop>
      <stop offset="1" stop-color="white" stop-opacity="0.5"></stop>
    </linearGradient>
    <linearGradient id="paint2_linear_141_91" x1="2.3893e-05" y1="744.999" x2="1040.25" y2="745.004" gradientUnits="userSpaceOnUse">
      <stop></stop>
      <stop offset="1" stop-color="white" stop-opacity="0.5"></stop>
    </linearGradient>
    <linearGradient id="paint3_linear_141_91" x1="2.3893e-05" y1="729.999" x2="1040.25" y2="730.004" gradientUnits="userSpaceOnUse">
      <stop></stop>
      <stop offset="1" stop-color="white" stop-opacity="0.5"></stop>
    </linearGradient>
    <linearGradient id="paint4_linear_141_91" x1="2.3893e-05" y1="714.999" x2="1040.25" y2="715.004" gradientUnits="userSpaceOnUse">
      <stop></stop>
      <stop offset="1" stop-color="white" stop-opacity="0.5"></stop>
    </linearGradient>
    <linearGradient id="paint5_linear_141_91" x1="2.3893e-05" y1="699.999" x2="1040.25" y2="700.004" gradientUnits="userSpaceOnUse">
      <stop></stop>
      <stop offset="1" stop-color="white" stop-opacity="0.5"></stop>
    </linearGradient>
    <linearGradient id="paint6_linear_141_91" x1="2.3893e-05" y1="684.999" x2="1040.25" y2="685.004" gradientUnits="userSpaceOnUse">
      <stop></stop>
      <stop offset="1" stop-color="white" stop-opacity="0.5"></stop>
    </linearGradient>
    <linearGradient id="paint7_linear_141_91" x1="2.3893e-05" y1="669.999" x2="1040.25" y2="670.004" gradientUnits="userSpaceOnUse">
      <stop></stop>
      <stop offset="1" stop-color="white" stop-opacity="0.5"></stop>
    </linearGradient>
    <linearGradient id="paint8_linear_141_91" x1="2.3893e-05" y1="654.999" x2="1040.25" y2="655.004" gradientUnits="userSpaceOnUse">
      <stop></stop>
      <stop offset="1" stop-color="white" stop-opacity="0.5"></stop>
    </linearGradient>
    <linearGradient id="paint9_linear_141_91" x1="2.3893e-05" y1="639.999" x2="1040.25" y2="640.004" gradientUnits="userSpaceOnUse">
      <stop></stop>
      <stop offset="1" stop-color="white" stop-opacity="0.5"></stop>
    </linearGradient>
    <linearGradient id="paint10_linear_141_91" x1="2.3893e-05" y1="624.999" x2="1040.25" y2="625.004" gradientUnits="userSpaceOnUse">
      <stop></stop>
      <stop offset="1" stop-color="white" stop-opacity="0.5"></stop>
    </linearGradient>
    <linearGradient id="paint11_linear_141_91" x1="2.3893e-05" y1="609.999" x2="1040.25" y2="610.004" gradientUnits="userSpaceOnUse">
      <stop></stop>
      <stop offset="1" stop-color="white" stop-opacity="0.5"></stop>
    </linearGradient>
    <linearGradient id="paint12_linear_141_91" x1="2.3893e-05" y1="594.999" x2="1040.25" y2="595.004" gradientUnits="userSpaceOnUse">
      <stop></stop>
      <stop offset="1" stop-color="white" stop-opacity="0.5"></stop>
    </linearGradient>
    <linearGradient id="paint13_linear_141_91" x1="2.3893e-05" y1="579.999" x2="1040.25" y2="580.004" gradientUnits="userSpaceOnUse">
      <stop></stop>
      <stop offset="1" stop-color="white" stop-opacity="0.5"></stop>
    </linearGradient>
    <linearGradient id="paint14_linear_141_91" x1="2.3893e-05" y1="564.999" x2="1040.25" y2="565.004" gradientUnits="userSpaceOnUse">
      <stop></stop>
      <stop offset="1" stop-color="white" stop-opacity="0.5"></stop>
    </linearGradient>
    <linearGradient id="paint15_linear_141_91" x1="2.3893e-05" y1="549.999" x2="1040.25" y2="550.004" gradientUnits="userSpaceOnUse">
      <stop></stop>
      <stop offset="1" stop-color="white" stop-opacity="0.5"></stop>
    </linearGradient>
    <linearGradient id="paint16_linear_141_91" x1="2.3893e-05" y1="534.999" x2="1040.25" y2="535.004" gradientUnits="userSpaceOnUse">
      <stop></stop>
      <stop offset="1" stop-color="white" stop-opacity="0.5"></stop>
    </linearGradient>
    <linearGradient id="paint17_linear_141_91" x1="2.3893e-05" y1="519.999" x2="1040.25" y2="520.004" gradientUnits="userSpaceOnUse">
      <stop></stop>
      <stop offset="1" stop-color="white" stop-opacity="0.5"></stop>
    </linearGradient>
    <linearGradient id="paint18_linear_141_91" x1="2.3893e-05" y1="504.999" x2="1040.25" y2="505.004" gradientUnits="userSpaceOnUse">
      <stop></stop>
      <stop offset="1" stop-color="white" stop-opacity="0.5"></stop>
    </linearGradient>
    <linearGradient id="paint19_linear_141_91" x1="2.3893e-05" y1="489.999" x2="1040.25" y2="490.004" gradientUnits="userSpaceOnUse">
      <stop></stop>
      <stop offset="1" stop-color="white" stop-opacity="0.5"></stop>
    </linearGradient>
    <linearGradient id="paint20_linear_141_91" x1="2.3893e-05" y1="474.999" x2="1040.25" y2="475.004" gradientUnits="userSpaceOnUse">
      <stop></stop>
      <stop offset="1" stop-color="white" stop-opacity="0.5"></stop>
    </linearGradient>
    <linearGradient id="paint21_linear_141_91" x1="2.3893e-05" y1="459.999" x2="1040.25" y2="460.004" gradientUnits="userSpaceOnUse">
      <stop></stop>
      <stop offset="1" stop-color="white" stop-opacity="0.5"></stop>
    </linearGradient>
    <linearGradient id="paint22_linear_141_91" x1="2.3893e-05" y1="444.999" x2="1040.25" y2="445.004" gradientUnits="userSpaceOnUse">
      <stop></stop>
      <stop offset="1" stop-color="white" stop-opacity="0.5"></stop>
    </linearGradient>
    <linearGradient id="paint23_linear_141_91" x1="2.3893e-05" y1="429.999" x2="1040.25" y2="430.004" gradientUnits="userSpaceOnUse">
      <stop></stop>
      <stop offset="1" stop-color="white" stop-opacity="0.5"></stop>
    </linearGradient>
    <linearGradient id="paint24_linear_141_91" x1="2.3893e-05" y1="414.999" x2="1040.25" y2="415.004" gradientUnits="userSpaceOnUse">
      <stop></stop>
      <stop offset="1" stop-color="white" stop-opacity="0.5"></stop>
    </linearGradient>
    <linearGradient id="paint25_linear_141_91" x1="2.3893e-05" y1="399.999" x2="1040.25" y2="400.004" gradientUnits="userSpaceOnUse">
      <stop></stop>
      <stop offset="1" stop-color="white" stop-opacity="0.5"></stop>
    </linearGradient>
    <linearGradient id="paint26_linear_141_91" x1="2.3893e-05" y1="384.999" x2="1040.25" y2="385.004" gradientUnits="userSpaceOnUse">
      <stop></stop>
      <stop offset="1" stop-color="white" stop-opacity="0.5"></stop>
    </linearGradient>
    <linearGradient id="paint27_linear_141_91" x1="2.3893e-05" y1="369.999" x2="1040.25" y2="370.004" gradientUnits="userSpaceOnUse">
      <stop></stop>
      <stop offset="1" stop-color="white" stop-opacity="0.5"></stop>
    </linearGradient>
    <linearGradient id="paint28_linear_141_91" x1="2.3893e-05" y1="354.999" x2="1040.25" y2="355.004" gradientUnits="userSpaceOnUse">
      <stop></stop>
      <stop offset="1" stop-color="white" stop-opacity="0.5"></stop>
    </linearGradient>
    <linearGradient id="paint29_linear_141_91" x1="2.3893e-05" y1="339.999" x2="1040.25" y2="340.004" gradientUnits="userSpaceOnUse">
      <stop></stop>
      <stop offset="1" stop-color="white" stop-opacity="0.5"></stop>
    </linearGradient>
    <linearGradient id="paint30_linear_141_91" x1="2.3893e-05" y1="324.999" x2="1040.25" y2="325.004" gradientUnits="userSpaceOnUse">
      <stop></stop>
      <stop offset="1" stop-color="white" stop-opacity="0.5"></stop>
    </linearGradient>
    <linearGradient id="paint31_linear_141_91" x1="2.3893e-05" y1="309.999" x2="1040.25" y2="310.004" gradientUnits="userSpaceOnUse">
      <stop></stop>
      <stop offset="1" stop-color="white" stop-opacity="0.5"></stop>
    </linearGradient>
    <linearGradient id="paint32_linear_141_91" x1="2.3893e-05" y1="294.999" x2="1040.25" y2="295.004" gradientUnits="userSpaceOnUse">
      <stop></stop>
      <stop offset="1" stop-color="white" stop-opacity="0.5"></stop>
    </linearGradient>
    <linearGradient id="paint33_linear_141_91" x1="2.3893e-05" y1="279.999" x2="1040.25" y2="280.004" gradientUnits="userSpaceOnUse">
      <stop></stop>
      <stop offset="1" stop-color="white" stop-opacity="0.5"></stop>
    </linearGradient>
    <linearGradient id="paint34_linear_141_91" x1="2.3893e-05" y1="264.999" x2="1040.25" y2="265.004" gradientUnits="userSpaceOnUse">
      <stop></stop>
      <stop offset="1" stop-color="white" stop-opacity="0.5"></stop>
    </linearGradient>
    <linearGradient id="paint35_linear_141_91" x1="2.3893e-05" y1="249.999" x2="1040.25" y2="250.004" gradientUnits="userSpaceOnUse">
      <stop></stop>
      <stop offset="1" stop-color="white" stop-opacity="0.5"></stop>
    </linearGradient>
    <linearGradient id="paint36_linear_141_91" x1="2.3893e-05" y1="234.999" x2="1040.25" y2="235.004" gradientUnits="userSpaceOnUse">
      <stop></stop>
      <stop offset="1" stop-color="white" stop-opacity="0.5"></stop>
    </linearGradient>
    <linearGradient id="paint37_linear_141_91" x1="2.3893e-05" y1="219.999" x2="1040.25" y2="220.004" gradientUnits="userSpaceOnUse">
      <stop></stop>
      <stop offset="1" stop-color="white" stop-opacity="0.5"></stop>
    </linearGradient>
    <linearGradient id="paint38_linear_141_91" x1="2.3893e-05" y1="204.999" x2="1040.25" y2="205.004" gradientUnits="userSpaceOnUse">
      <stop></stop>
      <stop offset="1" stop-color="white" stop-opacity="0.5"></stop>
    </linearGradient>
    <linearGradient id="paint39_linear_141_91" x1="2.3893e-05" y1="189.999" x2="1040.25" y2="190.004" gradientUnits="userSpaceOnUse">
      <stop></stop>
      <stop offset="1" stop-color="white" stop-opacity="0.5"></stop>
    </linearGradient>
    <linearGradient id="paint40_linear_141_91" x1="2.3893e-05" y1="174.999" x2="1040.25" y2="175.004" gradientUnits="userSpaceOnUse">
      <stop></stop>
      <stop offset="1" stop-color="white" stop-opacity="0.5"></stop>
    </linearGradient>
    <linearGradient id="paint41_linear_141_91" x1="2.3893e-05" y1="159.999" x2="1040.25" y2="160.004" gradientUnits="userSpaceOnUse">
      <stop></stop>
      <stop offset="1" stop-color="white" stop-opacity="0.5"></stop>
    </linearGradient>
    <linearGradient id="paint42_linear_141_91" x1="2.3893e-05" y1="144.999" x2="1040.25" y2="145.004" gradientUnits="userSpaceOnUse">
      <stop></stop>
      <stop offset="1" stop-color="white" stop-opacity="0.5"></stop>
    </linearGradient>
    <linearGradient id="paint43_linear_141_91" x1="2.3893e-05" y1="129.999" x2="1040.25" y2="130.004" gradientUnits="userSpaceOnUse">
      <stop></stop>
      <stop offset="1" stop-color="white" stop-opacity="0.5"></stop>
    </linearGradient>
    <linearGradient id="paint44_linear_141_91" x1="2.3893e-05" y1="114.999" x2="1040.25" y2="115.004" gradientUnits="userSpaceOnUse">
      <stop></stop>
      <stop offset="1" stop-color="white" stop-opacity="0.5"></stop>
    </linearGradient>
    <linearGradient id="paint45_linear_141_91" x1="2.3893e-05" y1="99.999" x2="1040.25" y2="100.004" gradientUnits="userSpaceOnUse">
      <stop></stop>
      <stop offset="1" stop-color="white" stop-opacity="0.5"></stop>
    </linearGradient>
    <linearGradient id="paint46_linear_141_91" x1="2.3893e-05" y1="84.999" x2="1040.25" y2="85.004" gradientUnits="userSpaceOnUse">
      <stop></stop>
      <stop offset="1" stop-color="white" stop-opacity="0.5"></stop>
    </linearGradient>
    <linearGradient id="paint47_linear_141_91" x1="2.3893e-05" y1="69.999" x2="1040.25" y2="70.004" gradientUnits="userSpaceOnUse">
      <stop></stop>
      <stop offset="1" stop-color="white" stop-opacity="0.5"></stop>
    </linearGradient>
    <linearGradient id="paint48_linear_141_91" x1="2.3893e-05" y1="54.999" x2="1040.25" y2="55.004" gradientUnits="userSpaceOnUse">
      <stop></stop>
      <stop offset="1" stop-color="white" stop-opacity="0.5"></stop>
    </linearGradient>
    <linearGradient id="paint49_linear_141_91" x1="2.3893e-05" y1="39.999" x2="1040.25" y2="40.004" gradientUnits="userSpaceOnUse">
      <stop></stop>
      <stop offset="1" stop-color="white" stop-opacity="0.5"></stop>
    </linearGradient>
    <linearGradient id="paint50_linear_141_91" x1="2.3893e-05" y1="24.999" x2="1040.25" y2="25.004" gradientUnits="userSpaceOnUse">
      <stop></stop>
      <stop offset="1" stop-color="white" stop-opacity="0.5"></stop>
    </linearGradient>
    <linearGradient id="paint51_linear_141_91" x1="2.3893e-05" y1="9.99902" x2="1040.25" y2="10.004" gradientUnits="userSpaceOnUse">
      <stop></stop>
      <stop offset="1" stop-color="white" stop-opacity="0.5"></stop>
    </linearGradient>
    <linearGradient id="paint52_linear_141_91" x1="2.3893e-05" y1="-5.00098" x2="1040.25" y2="-4.99601" gradientUnits="userSpaceOnUse">
      <stop></stop>
      <stop offset="1" stop-color="white" stop-opacity="0.5"></stop>
    </linearGradient>
    <clipPath id="clip0_141_91">
      <rect width="2161" height="780" fill="white"></rect>
    </clipPath>
  </defs>
</svg>
