<?xml version="1.0" encoding="UTF-8"?>
<svg xmlns="http://www.w3.org/2000/svg" width="1516" height="782" viewBox="0 0 1516 782" fill="none">
  <rect width="1516" height="782" fill="#0E0E0E"></rect>
  <mask id="mask0_151_160" style="mask-type:alpha" maskUnits="userSpaceOnUse" x="11" y="-369" width="1466" height="1133">
    <path d="M15 756C12.7909 756 11 757.791 11 760C11 762.209 12.7909 764 15 764V756ZM1477 756L15 756V764L1477 764V756Z" fill="url(#paint0_linear_151_160)"></path>
    <path d="M15 741C12.7909 741 11 742.791 11 745C11 747.209 12.7909 749 15 749V741ZM1477 741L15 741V749L1477 749V741Z" fill="url(#paint1_linear_151_160)"></path>
    <path d="M15 726C12.7909 726 11 727.791 11 730C11 732.209 12.7909 734 15 734V726ZM1477 726L15 726V734L1477 734V726Z" fill="url(#paint2_linear_151_160)"></path>
    <path d="M15 711C12.7909 711 11 712.791 11 715C11 717.209 12.7909 719 15 719V711ZM1477 711L15 711V719L1477 719V711Z" fill="url(#paint3_linear_151_160)"></path>
    <path d="M15 696C12.7909 696 11 697.791 11 700C11 702.209 12.7909 704 15 704V696ZM1477 696L15 696V704L1477 704V696Z" fill="url(#paint4_linear_151_160)"></path>
    <path d="M15 681C12.7909 681 11 682.791 11 685C11 687.209 12.7909 689 15 689V681ZM1477 681L15 681V689L1477 689V681Z" fill="url(#paint5_linear_151_160)"></path>
    <path d="M15 666C12.7909 666 11 667.791 11 670C11 672.209 12.7909 674 15 674V666ZM1477 666L15 666V674L1477 674V666Z" fill="url(#paint6_linear_151_160)"></path>
    <path d="M15 651C12.7909 651 11 652.791 11 655C11 657.209 12.7909 659 15 659V651ZM1477 651L15 651V659L1477 659V651Z" fill="url(#paint7_linear_151_160)"></path>
    <path d="M15 636C12.7909 636 11 637.791 11 640C11 642.209 12.7909 644 15 644V636ZM1477 636L15 636V644L1477 644V636Z" fill="url(#paint8_linear_151_160)"></path>
    <path d="M15 621C12.7909 621 11 622.791 11 625C11 627.209 12.7909 629 15 629V621ZM1477 621L15 621V629L1477 629V621Z" fill="url(#paint9_linear_151_160)"></path>
    <path d="M15 606C12.7909 606 11 607.791 11 610C11 612.209 12.7909 614 15 614V606ZM1477 606L15 606V614L1477 614V606Z" fill="url(#paint10_linear_151_160)"></path>
    <path d="M15 591C12.7909 591 11 592.791 11 595C11 597.209 12.7909 599 15 599V591ZM1477 591L15 591V599L1477 599V591Z" fill="url(#paint11_linear_151_160)"></path>
    <path d="M15 576C12.7909 576 11 577.791 11 580C11 582.209 12.7909 584 15 584V576ZM1477 576L15 576V584L1477 584V576Z" fill="url(#paint12_linear_151_160)"></path>
    <path d="M15 561C12.7909 561 11 562.791 11 565C11 567.209 12.7909 569 15 569V561ZM1477 561L15 561V569L1477 569V561Z" fill="url(#paint13_linear_151_160)"></path>
    <path d="M15 546C12.7909 546 11 547.791 11 550C11 552.209 12.7909 554 15 554V546ZM1477 546L15 546V554L1477 554V546Z" fill="url(#paint14_linear_151_160)"></path>
    <path d="M15 531C12.7909 531 11 532.791 11 535C11 537.209 12.7909 539 15 539V531ZM1477 531L15 531V539L1477 539V531Z" fill="url(#paint15_linear_151_160)"></path>
    <path d="M15 516C12.7909 516 11 517.791 11 520C11 522.209 12.7909 524 15 524V516ZM1477 516L15 516V524L1477 524V516Z" fill="url(#paint16_linear_151_160)"></path>
    <path d="M15 501C12.7909 501 11 502.791 11 505C11 507.209 12.7909 509 15 509V501ZM1477 501L15 501V509L1477 509V501Z" fill="url(#paint17_linear_151_160)"></path>
    <path d="M15 486C12.7909 486 11 487.791 11 490C11 492.209 12.7909 494 15 494V486ZM1477 486L15 486V494L1477 494V486Z" fill="url(#paint18_linear_151_160)"></path>
    <path d="M15 471C12.7909 471 11 472.791 11 475C11 477.209 12.7909 479 15 479V471ZM1477 471L15 471V479L1477 479V471Z" fill="url(#paint19_linear_151_160)"></path>
    <path d="M15 456C12.7909 456 11 457.791 11 460C11 462.209 12.7909 464 15 464V456ZM1477 456L15 456V464L1477 464V456Z" fill="url(#paint20_linear_151_160)"></path>
    <path d="M15 441C12.7909 441 11 442.791 11 445C11 447.209 12.7909 449 15 449V441ZM1477 441L15 441V449L1477 449V441Z" fill="url(#paint21_linear_151_160)"></path>
    <path d="M15 426C12.7909 426 11 427.791 11 430C11 432.209 12.7909 434 15 434V426ZM1477 426L15 426V434L1477 434V426Z" fill="url(#paint22_linear_151_160)"></path>
    <path d="M15 411C12.7909 411 11 412.791 11 415C11 417.209 12.7909 419 15 419V411ZM1477 411L15 411V419L1477 419V411Z" fill="url(#paint23_linear_151_160)"></path>
    <path d="M15 396C12.7909 396 11 397.791 11 400C11 402.209 12.7909 404 15 404V396ZM1477 396L15 396V404L1477 404V396Z" fill="url(#paint24_linear_151_160)"></path>
    <path d="M15 381C12.7909 381 11 382.791 11 385C11 387.209 12.7909 389 15 389V381ZM1477 381L15 381V389L1477 389V381Z" fill="url(#paint25_linear_151_160)"></path>
    <path d="M15 366C12.7909 366 11 367.791 11 370C11 372.209 12.7909 374 15 374V366ZM1477 366L15 366V374L1477 374V366Z" fill="url(#paint26_linear_151_160)"></path>
    <path d="M15 351C12.7909 351 11 352.791 11 355C11 357.209 12.7909 359 15 359V351ZM1477 351L15 351V359L1477 359V351Z" fill="url(#paint27_linear_151_160)"></path>
    <path d="M15 336C12.7909 336 11 337.791 11 340C11 342.209 12.7909 344 15 344V336ZM1477 336L15 336V344L1477 344V336Z" fill="url(#paint28_linear_151_160)"></path>
    <path d="M15 321C12.7909 321 11 322.791 11 325C11 327.209 12.7909 329 15 329V321ZM1477 321L15 321V329L1477 329V321Z" fill="url(#paint29_linear_151_160)"></path>
    <path d="M15 306C12.7909 306 11 307.791 11 310C11 312.209 12.7909 314 15 314V306ZM1477 306L15 306V314L1477 314V306Z" fill="url(#paint30_linear_151_160)"></path>
    <path d="M15 291C12.7909 291 11 292.791 11 295C11 297.209 12.7909 299 15 299V291ZM1477 291L15 291V299L1477 299V291Z" fill="url(#paint31_linear_151_160)"></path>
    <path d="M15 276C12.7909 276 11 277.791 11 280C11 282.209 12.7909 284 15 284V276ZM1477 276L15 276V284L1477 284V276Z" fill="url(#paint32_linear_151_160)"></path>
    <path d="M15 261C12.7909 261 11 262.791 11 265C11 267.209 12.7909 269 15 269V261ZM1477 261L15 261V269L1477 269V261Z" fill="url(#paint33_linear_151_160)"></path>
    <path d="M15 246C12.7909 246 11 247.791 11 250C11 252.209 12.7909 254 15 254V246ZM1477 246L15 246V254L1477 254V246Z" fill="url(#paint34_linear_151_160)"></path>
    <path d="M15 231C12.7909 231 11 232.791 11 235C11 237.209 12.7909 239 15 239V231ZM1477 231L15 231V239L1477 239V231Z" fill="url(#paint35_linear_151_160)"></path>
    <path d="M15 216C12.7909 216 11 217.791 11 220C11 222.209 12.7909 224 15 224V216ZM1477 216L15 216V224L1477 224V216Z" fill="url(#paint36_linear_151_160)"></path>
    <path d="M15 201C12.7909 201 11 202.791 11 205C11 207.209 12.7909 209 15 209V201ZM1477 201L15 201V209L1477 209V201Z" fill="url(#paint37_linear_151_160)"></path>
    <path d="M15 186C12.7909 186 11 187.791 11 190C11 192.209 12.7909 194 15 194V186ZM1477 186L15 186V194L1477 194V186Z" fill="url(#paint38_linear_151_160)"></path>
    <path d="M15 171C12.7909 171 11 172.791 11 175C11 177.209 12.7909 179 15 179V171ZM1477 171L15 171V179L1477 179V171Z" fill="url(#paint39_linear_151_160)"></path>
    <path d="M15 156C12.7909 156 11 157.791 11 160C11 162.209 12.7909 164 15 164V156ZM1477 156L15 156V164L1477 164V156Z" fill="url(#paint40_linear_151_160)"></path>
    <path d="M15 141C12.7909 141 11 142.791 11 145C11 147.209 12.7909 149 15 149V141ZM1477 141L15 141V149L1477 149V141Z" fill="url(#paint41_linear_151_160)"></path>
    <path d="M15 126C12.7909 126 11 127.791 11 130C11 132.209 12.7909 134 15 134V126ZM1477 126L15 126V134L1477 134V126Z" fill="url(#paint42_linear_151_160)"></path>
    <path d="M15 111C12.7909 111 11 112.791 11 115C11 117.209 12.7909 119 15 119V111ZM1477 111L15 111V119L1477 119V111Z" fill="url(#paint43_linear_151_160)"></path>
    <path d="M15 96C12.7909 96 11 97.7909 11 100C11 102.209 12.7909 104 15 104V96ZM1477 96L15 96V104L1477 104V96Z" fill="url(#paint44_linear_151_160)"></path>
    <path d="M15 81C12.7909 81 11 82.7909 11 85C11 87.2091 12.7909 89 15 89V81ZM1477 81L15 81V89L1477 89V81Z" fill="url(#paint45_linear_151_160)"></path>
    <path d="M15 66C12.7909 66 11 67.7909 11 70C11 72.2091 12.7909 74 15 74V66ZM1477 66L15 66V74L1477 74V66Z" fill="url(#paint46_linear_151_160)"></path>
    <path d="M15 51C12.7909 51 11 52.7909 11 55C11 57.2091 12.7909 59 15 59V51ZM1477 51L15 51V59L1477 59V51Z" fill="url(#paint47_linear_151_160)"></path>
    <path d="M15 36C12.7909 36 11 37.7909 11 40C11 42.2091 12.7909 44 15 44V36ZM1477 36L15 36V44L1477 44V36Z" fill="url(#paint48_linear_151_160)"></path>
    <path d="M15 21C12.7909 21 11 22.7909 11 25C11 27.2091 12.7909 29 15 29V21ZM1477 21L15 21V29L1477 29V21Z" fill="url(#paint49_linear_151_160)"></path>
    <path d="M15 6C12.7909 6 11 7.79086 11 10C11 12.2091 12.7909 14 15 14V6ZM1477 6L15 6V14L1477 14V6Z" fill="url(#paint50_linear_151_160)"></path>
  </mask>
  <g mask="url(#mask0_151_160)">
    <path d="M-81.5 4.78418L1543.52 4.78418L1541.5 758.957H10L-81.5 4.78418Z" fill="#111111"></path>
  </g>
  <path d="M1516 769L705 769L964.769 2.74181e-06L1516 2.74181e-06V769Z" fill="#121212"></path>
  <line y1="-2.5" x2="804.692" y2="-2.5" transform="matrix(-0.31019 0.950674 -0.927891 -0.372852 958.212 0)" stroke="white" stroke-width="5"></line>
  <defs>
    <linearGradient id="paint0_linear_151_160" x1="15" y1="754.999" x2="1563.73" y2="755.01" gradientUnits="userSpaceOnUse">
      <stop></stop>
      <stop offset="1" stop-color="white" stop-opacity="0.5"></stop>
    </linearGradient>
    <linearGradient id="paint1_linear_151_160" x1="15" y1="739.999" x2="1563.73" y2="740.01" gradientUnits="userSpaceOnUse">
      <stop></stop>
      <stop offset="1" stop-color="white" stop-opacity="0.5"></stop>
    </linearGradient>
    <linearGradient id="paint2_linear_151_160" x1="15" y1="724.999" x2="1563.73" y2="725.01" gradientUnits="userSpaceOnUse">
      <stop></stop>
      <stop offset="1" stop-color="white" stop-opacity="0.5"></stop>
    </linearGradient>
    <linearGradient id="paint3_linear_151_160" x1="15" y1="709.999" x2="1563.73" y2="710.01" gradientUnits="userSpaceOnUse">
      <stop></stop>
      <stop offset="1" stop-color="white" stop-opacity="0.5"></stop>
    </linearGradient>
    <linearGradient id="paint4_linear_151_160" x1="15" y1="694.999" x2="1563.73" y2="695.01" gradientUnits="userSpaceOnUse">
      <stop></stop>
      <stop offset="1" stop-color="white" stop-opacity="0.5"></stop>
    </linearGradient>
    <linearGradient id="paint5_linear_151_160" x1="15" y1="679.999" x2="1563.73" y2="680.01" gradientUnits="userSpaceOnUse">
      <stop></stop>
      <stop offset="1" stop-color="white" stop-opacity="0.5"></stop>
    </linearGradient>
    <linearGradient id="paint6_linear_151_160" x1="15" y1="664.999" x2="1563.73" y2="665.01" gradientUnits="userSpaceOnUse">
      <stop></stop>
      <stop offset="1" stop-color="white" stop-opacity="0.5"></stop>
    </linearGradient>
    <linearGradient id="paint7_linear_151_160" x1="15" y1="649.999" x2="1563.73" y2="650.01" gradientUnits="userSpaceOnUse">
      <stop></stop>
      <stop offset="1" stop-color="white" stop-opacity="0.5"></stop>
    </linearGradient>
    <linearGradient id="paint8_linear_151_160" x1="15" y1="634.999" x2="1563.73" y2="635.01" gradientUnits="userSpaceOnUse">
      <stop></stop>
      <stop offset="1" stop-color="white" stop-opacity="0.5"></stop>
    </linearGradient>
    <linearGradient id="paint9_linear_151_160" x1="15" y1="619.999" x2="1563.73" y2="620.01" gradientUnits="userSpaceOnUse">
      <stop></stop>
      <stop offset="1" stop-color="white" stop-opacity="0.5"></stop>
    </linearGradient>
    <linearGradient id="paint10_linear_151_160" x1="15" y1="604.999" x2="1563.73" y2="605.01" gradientUnits="userSpaceOnUse">
      <stop></stop>
      <stop offset="1" stop-color="white" stop-opacity="0.5"></stop>
    </linearGradient>
    <linearGradient id="paint11_linear_151_160" x1="15" y1="589.999" x2="1563.73" y2="590.01" gradientUnits="userSpaceOnUse">
      <stop></stop>
      <stop offset="1" stop-color="white" stop-opacity="0.5"></stop>
    </linearGradient>
    <linearGradient id="paint12_linear_151_160" x1="15" y1="574.999" x2="1563.73" y2="575.01" gradientUnits="userSpaceOnUse">
      <stop></stop>
      <stop offset="1" stop-color="white" stop-opacity="0.5"></stop>
    </linearGradient>
    <linearGradient id="paint13_linear_151_160" x1="15" y1="559.999" x2="1563.73" y2="560.01" gradientUnits="userSpaceOnUse">
      <stop></stop>
      <stop offset="1" stop-color="white" stop-opacity="0.5"></stop>
    </linearGradient>
    <linearGradient id="paint14_linear_151_160" x1="15" y1="544.999" x2="1563.73" y2="545.01" gradientUnits="userSpaceOnUse">
      <stop></stop>
      <stop offset="1" stop-color="white" stop-opacity="0.5"></stop>
    </linearGradient>
    <linearGradient id="paint15_linear_151_160" x1="15" y1="529.999" x2="1563.73" y2="530.01" gradientUnits="userSpaceOnUse">
      <stop></stop>
      <stop offset="1" stop-color="white" stop-opacity="0.5"></stop>
    </linearGradient>
    <linearGradient id="paint16_linear_151_160" x1="15" y1="514.999" x2="1563.73" y2="515.01" gradientUnits="userSpaceOnUse">
      <stop></stop>
      <stop offset="1" stop-color="white" stop-opacity="0.5"></stop>
    </linearGradient>
    <linearGradient id="paint17_linear_151_160" x1="15" y1="499.999" x2="1563.73" y2="500.01" gradientUnits="userSpaceOnUse">
      <stop></stop>
      <stop offset="1" stop-color="white" stop-opacity="0.5"></stop>
    </linearGradient>
    <linearGradient id="paint18_linear_151_160" x1="15" y1="484.999" x2="1563.73" y2="485.01" gradientUnits="userSpaceOnUse">
      <stop></stop>
      <stop offset="1" stop-color="white" stop-opacity="0.5"></stop>
    </linearGradient>
    <linearGradient id="paint19_linear_151_160" x1="15" y1="469.999" x2="1563.73" y2="470.01" gradientUnits="userSpaceOnUse">
      <stop></stop>
      <stop offset="1" stop-color="white" stop-opacity="0.5"></stop>
    </linearGradient>
    <linearGradient id="paint20_linear_151_160" x1="15" y1="454.999" x2="1563.73" y2="455.01" gradientUnits="userSpaceOnUse">
      <stop></stop>
      <stop offset="1" stop-color="white" stop-opacity="0.5"></stop>
    </linearGradient>
    <linearGradient id="paint21_linear_151_160" x1="15" y1="439.999" x2="1563.73" y2="440.01" gradientUnits="userSpaceOnUse">
      <stop></stop>
      <stop offset="1" stop-color="white" stop-opacity="0.5"></stop>
    </linearGradient>
    <linearGradient id="paint22_linear_151_160" x1="15" y1="424.999" x2="1563.73" y2="425.01" gradientUnits="userSpaceOnUse">
      <stop></stop>
      <stop offset="1" stop-color="white" stop-opacity="0.5"></stop>
    </linearGradient>
    <linearGradient id="paint23_linear_151_160" x1="15" y1="409.999" x2="1563.73" y2="410.01" gradientUnits="userSpaceOnUse">
      <stop></stop>
      <stop offset="1" stop-color="white" stop-opacity="0.5"></stop>
    </linearGradient>
    <linearGradient id="paint24_linear_151_160" x1="15" y1="394.999" x2="1563.73" y2="395.01" gradientUnits="userSpaceOnUse">
      <stop></stop>
      <stop offset="1" stop-color="white" stop-opacity="0.5"></stop>
    </linearGradient>
    <linearGradient id="paint25_linear_151_160" x1="15" y1="379.999" x2="1563.73" y2="380.01" gradientUnits="userSpaceOnUse">
      <stop></stop>
      <stop offset="1" stop-color="white" stop-opacity="0.5"></stop>
    </linearGradient>
    <linearGradient id="paint26_linear_151_160" x1="15" y1="364.999" x2="1563.73" y2="365.01" gradientUnits="userSpaceOnUse">
      <stop></stop>
      <stop offset="1" stop-color="white" stop-opacity="0.5"></stop>
    </linearGradient>
    <linearGradient id="paint27_linear_151_160" x1="15" y1="349.999" x2="1563.73" y2="350.01" gradientUnits="userSpaceOnUse">
      <stop></stop>
      <stop offset="1" stop-color="white" stop-opacity="0.5"></stop>
    </linearGradient>
    <linearGradient id="paint28_linear_151_160" x1="15" y1="334.999" x2="1563.73" y2="335.01" gradientUnits="userSpaceOnUse">
      <stop></stop>
      <stop offset="1" stop-color="white" stop-opacity="0.5"></stop>
    </linearGradient>
    <linearGradient id="paint29_linear_151_160" x1="15" y1="319.999" x2="1563.73" y2="320.01" gradientUnits="userSpaceOnUse">
      <stop></stop>
      <stop offset="1" stop-color="white" stop-opacity="0.5"></stop>
    </linearGradient>
    <linearGradient id="paint30_linear_151_160" x1="15" y1="304.999" x2="1563.73" y2="305.01" gradientUnits="userSpaceOnUse">
      <stop></stop>
      <stop offset="1" stop-color="white" stop-opacity="0.5"></stop>
    </linearGradient>
    <linearGradient id="paint31_linear_151_160" x1="15" y1="289.999" x2="1563.73" y2="290.01" gradientUnits="userSpaceOnUse">
      <stop></stop>
      <stop offset="1" stop-color="white" stop-opacity="0.5"></stop>
    </linearGradient>
    <linearGradient id="paint32_linear_151_160" x1="15" y1="274.999" x2="1563.73" y2="275.01" gradientUnits="userSpaceOnUse">
      <stop></stop>
      <stop offset="1" stop-color="white" stop-opacity="0.5"></stop>
    </linearGradient>
    <linearGradient id="paint33_linear_151_160" x1="15" y1="259.999" x2="1563.73" y2="260.01" gradientUnits="userSpaceOnUse">
      <stop></stop>
      <stop offset="1" stop-color="white" stop-opacity="0.5"></stop>
    </linearGradient>
    <linearGradient id="paint34_linear_151_160" x1="15" y1="244.999" x2="1563.73" y2="245.01" gradientUnits="userSpaceOnUse">
      <stop></stop>
      <stop offset="1" stop-color="white" stop-opacity="0.5"></stop>
    </linearGradient>
    <linearGradient id="paint35_linear_151_160" x1="15" y1="229.999" x2="1563.73" y2="230.01" gradientUnits="userSpaceOnUse">
      <stop></stop>
      <stop offset="1" stop-color="white" stop-opacity="0.5"></stop>
    </linearGradient>
    <linearGradient id="paint36_linear_151_160" x1="15" y1="214.999" x2="1563.73" y2="215.01" gradientUnits="userSpaceOnUse">
      <stop></stop>
      <stop offset="1" stop-color="white" stop-opacity="0.5"></stop>
    </linearGradient>
    <linearGradient id="paint37_linear_151_160" x1="15" y1="199.999" x2="1563.73" y2="200.01" gradientUnits="userSpaceOnUse">
      <stop></stop>
      <stop offset="1" stop-color="white" stop-opacity="0.5"></stop>
    </linearGradient>
    <linearGradient id="paint38_linear_151_160" x1="15" y1="184.999" x2="1563.73" y2="185.01" gradientUnits="userSpaceOnUse">
      <stop></stop>
      <stop offset="1" stop-color="white" stop-opacity="0.5"></stop>
    </linearGradient>
    <linearGradient id="paint39_linear_151_160" x1="15" y1="169.999" x2="1563.73" y2="170.01" gradientUnits="userSpaceOnUse">
      <stop></stop>
      <stop offset="1" stop-color="white" stop-opacity="0.5"></stop>
    </linearGradient>
    <linearGradient id="paint40_linear_151_160" x1="15" y1="154.999" x2="1563.73" y2="155.01" gradientUnits="userSpaceOnUse">
      <stop></stop>
      <stop offset="1" stop-color="white" stop-opacity="0.5"></stop>
    </linearGradient>
    <linearGradient id="paint41_linear_151_160" x1="15" y1="139.999" x2="1563.73" y2="140.01" gradientUnits="userSpaceOnUse">
      <stop></stop>
      <stop offset="1" stop-color="white" stop-opacity="0.5"></stop>
    </linearGradient>
    <linearGradient id="paint42_linear_151_160" x1="15" y1="124.999" x2="1563.73" y2="125.01" gradientUnits="userSpaceOnUse">
      <stop></stop>
      <stop offset="1" stop-color="white" stop-opacity="0.5"></stop>
    </linearGradient>
    <linearGradient id="paint43_linear_151_160" x1="15" y1="109.999" x2="1563.73" y2="110.01" gradientUnits="userSpaceOnUse">
      <stop></stop>
      <stop offset="1" stop-color="white" stop-opacity="0.5"></stop>
    </linearGradient>
    <linearGradient id="paint44_linear_151_160" x1="15" y1="94.999" x2="1563.73" y2="95.01" gradientUnits="userSpaceOnUse">
      <stop></stop>
      <stop offset="1" stop-color="white" stop-opacity="0.5"></stop>
    </linearGradient>
    <linearGradient id="paint45_linear_151_160" x1="15" y1="79.999" x2="1563.73" y2="80.01" gradientUnits="userSpaceOnUse">
      <stop></stop>
      <stop offset="1" stop-color="white" stop-opacity="0.5"></stop>
    </linearGradient>
    <linearGradient id="paint46_linear_151_160" x1="15" y1="64.999" x2="1563.73" y2="65.01" gradientUnits="userSpaceOnUse">
      <stop></stop>
      <stop offset="1" stop-color="white" stop-opacity="0.5"></stop>
    </linearGradient>
    <linearGradient id="paint47_linear_151_160" x1="15" y1="49.999" x2="1563.73" y2="50.01" gradientUnits="userSpaceOnUse">
      <stop></stop>
      <stop offset="1" stop-color="white" stop-opacity="0.5"></stop>
    </linearGradient>
    <linearGradient id="paint48_linear_151_160" x1="15" y1="34.999" x2="1563.73" y2="35.01" gradientUnits="userSpaceOnUse">
      <stop></stop>
      <stop offset="1" stop-color="white" stop-opacity="0.5"></stop>
    </linearGradient>
    <linearGradient id="paint49_linear_151_160" x1="15" y1="19.999" x2="1563.73" y2="20.01" gradientUnits="userSpaceOnUse">
      <stop></stop>
      <stop offset="1" stop-color="white" stop-opacity="0.5"></stop>
    </linearGradient>
    <linearGradient id="paint50_linear_151_160" x1="15" y1="4.99902" x2="1563.73" y2="5.01003" gradientUnits="userSpaceOnUse">
      <stop></stop>
      <stop offset="1" stop-color="white" stop-opacity="0.5"></stop>
    </linearGradient>
  </defs>
</svg>
