<?xml version="1.0" encoding="UTF-8"?>
<svg xmlns="http://www.w3.org/2000/svg" width="1924" height="780" viewBox="0 0 1924 780" fill="none">
  <g clip-path="url(#clip0_141_91)">
    <rect width="1924" height="780" fill="#0E0E0E"></rect>
    <mask id="mask0_141_91" style="mask-type:alpha" maskUnits="userSpaceOnUse" x="-178" y="-319" width="986" height="1133">
      <path d="M-174 776C-176.209 776 -178 777.791 -178 780C-178 782.209 -176.209 784 -174 784V776ZM808 776L-174 776V784L808 784V776Z" fill="url(#paint0_linear_141_91)"></path>
      <path d="M-174 761C-176.209 761 -178 762.791 -178 765C-178 767.209 -176.209 769 -174 769V761ZM808 761L-174 761V769L808 769V761Z" fill="url(#paint1_linear_141_91)"></path>
      <path d="M-174 746C-176.209 746 -178 747.791 -178 750C-178 752.209 -176.209 754 -174 754V746ZM808 746L-174 746V754L808 754V746Z" fill="url(#paint2_linear_141_91)"></path>
      <path d="M-174 731C-176.209 731 -178 732.791 -178 735C-178 737.209 -176.209 739 -174 739V731ZM808 731L-174 731V739L808 739V731Z" fill="url(#paint3_linear_141_91)"></path>
      <path d="M-174 716C-176.209 716 -178 717.791 -178 720C-178 722.209 -176.209 724 -174 724V716ZM808 716L-174 716V724L808 724V716Z" fill="url(#paint4_linear_141_91)"></path>
      <path d="M-174 701C-176.209 701 -178 702.791 -178 705C-178 707.209 -176.209 709 -174 709V701ZM808 701L-174 701V709L808 709V701Z" fill="url(#paint5_linear_141_91)"></path>
      <path d="M-174 686C-176.209 686 -178 687.791 -178 690C-178 692.209 -176.209 694 -174 694V686ZM808 686L-174 686V694L808 694V686Z" fill="url(#paint6_linear_141_91)"></path>
      <path d="M-174 671C-176.209 671 -178 672.791 -178 675C-178 677.209 -176.209 679 -174 679V671ZM808 671L-174 671V679L808 679V671Z" fill="url(#paint7_linear_141_91)"></path>
      <path d="M-174 656C-176.209 656 -178 657.791 -178 660C-178 662.209 -176.209 664 -174 664V656ZM808 656L-174 656V664L808 664V656Z" fill="url(#paint8_linear_141_91)"></path>
      <path d="M-174 641C-176.209 641 -178 642.791 -178 645C-178 647.209 -176.209 649 -174 649V641ZM808 641L-174 641V649L808 649V641Z" fill="url(#paint9_linear_141_91)"></path>
      <path d="M-174 626C-176.209 626 -178 627.791 -178 630C-178 632.209 -176.209 634 -174 634V626ZM808 626L-174 626V634L808 634V626Z" fill="url(#paint10_linear_141_91)"></path>
      <path d="M-174 611C-176.209 611 -178 612.791 -178 615C-178 617.209 -176.209 619 -174 619V611ZM808 611L-174 611V619L808 619V611Z" fill="url(#paint11_linear_141_91)"></path>
      <path d="M-174 596C-176.209 596 -178 597.791 -178 600C-178 602.209 -176.209 604 -174 604V596ZM808 596L-174 596V604L808 604V596Z" fill="url(#paint12_linear_141_91)"></path>
      <path d="M-174 581C-176.209 581 -178 582.791 -178 585C-178 587.209 -176.209 589 -174 589V581ZM808 581L-174 581V589L808 589V581Z" fill="url(#paint13_linear_141_91)"></path>
      <path d="M-174 566C-176.209 566 -178 567.791 -178 570C-178 572.209 -176.209 574 -174 574V566ZM808 566L-174 566V574L808 574V566Z" fill="url(#paint14_linear_141_91)"></path>
      <path d="M-174 551C-176.209 551 -178 552.791 -178 555C-178 557.209 -176.209 559 -174 559V551ZM808 551L-174 551V559L808 559V551Z" fill="url(#paint15_linear_141_91)"></path>
      <path d="M-174 536C-176.209 536 -178 537.791 -178 540C-178 542.209 -176.209 544 -174 544V536ZM808 536L-174 536V544L808 544V536Z" fill="url(#paint16_linear_141_91)"></path>
      <path d="M-174 521C-176.209 521 -178 522.791 -178 525C-178 527.209 -176.209 529 -174 529V521ZM808 521L-174 521V529L808 529V521Z" fill="url(#paint17_linear_141_91)"></path>
      <path d="M-174 506C-176.209 506 -178 507.791 -178 510C-178 512.209 -176.209 514 -174 514V506ZM808 506L-174 506V514L808 514V506Z" fill="url(#paint18_linear_141_91)"></path>
      <path d="M-174 491C-176.209 491 -178 492.791 -178 495C-178 497.209 -176.209 499 -174 499V491ZM808 491L-174 491V499L808 499V491Z" fill="url(#paint19_linear_141_91)"></path>
      <path d="M-174 476C-176.209 476 -178 477.791 -178 480C-178 482.209 -176.209 484 -174 484V476ZM808 476L-174 476V484L808 484V476Z" fill="url(#paint20_linear_141_91)"></path>
      <path d="M-174 461C-176.209 461 -178 462.791 -178 465C-178 467.209 -176.209 469 -174 469V461ZM808 461L-174 461V469L808 469V461Z" fill="url(#paint21_linear_141_91)"></path>
      <path d="M-174 446C-176.209 446 -178 447.791 -178 450C-178 452.209 -176.209 454 -174 454V446ZM808 446L-174 446V454L808 454V446Z" fill="url(#paint22_linear_141_91)"></path>
      <path d="M-174 431C-176.209 431 -178 432.791 -178 435C-178 437.209 -176.209 439 -174 439V431ZM808 431L-174 431V439L808 439V431Z" fill="url(#paint23_linear_141_91)"></path>
      <path d="M-174 416C-176.209 416 -178 417.791 -178 420C-178 422.209 -176.209 424 -174 424V416ZM808 416L-174 416V424L808 424V416Z" fill="url(#paint24_linear_141_91)"></path>
      <path d="M-174 401C-176.209 401 -178 402.791 -178 405C-178 407.209 -176.209 409 -174 409V401ZM808 401L-174 401V409L808 409V401Z" fill="url(#paint25_linear_141_91)"></path>
      <path d="M-174 386C-176.209 386 -178 387.791 -178 390C-178 392.209 -176.209 394 -174 394V386ZM808 386L-174 386V394L808 394V386Z" fill="url(#paint26_linear_141_91)"></path>
      <path d="M-174 371C-176.209 371 -178 372.791 -178 375C-178 377.209 -176.209 379 -174 379V371ZM808 371L-174 371V379L808 379V371Z" fill="url(#paint27_linear_141_91)"></path>
      <path d="M-174 356C-176.209 356 -178 357.791 -178 360C-178 362.209 -176.209 364 -174 364V356ZM808 356L-174 356V364L808 364V356Z" fill="url(#paint28_linear_141_91)"></path>
      <path d="M-174 341C-176.209 341 -178 342.791 -178 345C-178 347.209 -176.209 349 -174 349V341ZM808 341L-174 341V349L808 349V341Z" fill="url(#paint29_linear_141_91)"></path>
      <path d="M-174 326C-176.209 326 -178 327.791 -178 330C-178 332.209 -176.209 334 -174 334V326ZM808 326L-174 326V334L808 334V326Z" fill="url(#paint30_linear_141_91)"></path>
      <path d="M-174 311C-176.209 311 -178 312.791 -178 315C-178 317.209 -176.209 319 -174 319V311ZM808 311L-174 311V319L808 319V311Z" fill="url(#paint31_linear_141_91)"></path>
      <path d="M-174 296C-176.209 296 -178 297.791 -178 300C-178 302.209 -176.209 304 -174 304V296ZM808 296L-174 296V304L808 304V296Z" fill="url(#paint32_linear_141_91)"></path>
      <path d="M-174 281C-176.209 281 -178 282.791 -178 285C-178 287.209 -176.209 289 -174 289V281ZM808 281L-174 281V289L808 289V281Z" fill="url(#paint33_linear_141_91)"></path>
      <path d="M-174 266C-176.209 266 -178 267.791 -178 270C-178 272.209 -176.209 274 -174 274V266ZM808 266L-174 266V274L808 274V266Z" fill="url(#paint34_linear_141_91)"></path>
      <path d="M-174 251C-176.209 251 -178 252.791 -178 255C-178 257.209 -176.209 259 -174 259V251ZM808 251L-174 251V259L808 259V251Z" fill="url(#paint35_linear_141_91)"></path>
      <path d="M-174 236C-176.209 236 -178 237.791 -178 240C-178 242.209 -176.209 244 -174 244V236ZM808 236L-174 236V244L808 244V236Z" fill="url(#paint36_linear_141_91)"></path>
      <path d="M-174 221C-176.209 221 -178 222.791 -178 225C-178 227.209 -176.209 229 -174 229V221ZM808 221L-174 221V229L808 229V221Z" fill="url(#paint37_linear_141_91)"></path>
      <path d="M-174 206C-176.209 206 -178 207.791 -178 210C-178 212.209 -176.209 214 -174 214V206ZM808 206L-174 206V214L808 214V206Z" fill="url(#paint38_linear_141_91)"></path>
      <path d="M-174 191C-176.209 191 -178 192.791 -178 195C-178 197.209 -176.209 199 -174 199V191ZM808 191L-174 191V199L808 199V191Z" fill="url(#paint39_linear_141_91)"></path>
      <path d="M-174 176C-176.209 176 -178 177.791 -178 180C-178 182.209 -176.209 184 -174 184V176ZM808 176L-174 176V184L808 184V176Z" fill="url(#paint40_linear_141_91)"></path>
      <path d="M-174 161C-176.209 161 -178 162.791 -178 165C-178 167.209 -176.209 169 -174 169V161ZM808 161L-174 161V169L808 169V161Z" fill="url(#paint41_linear_141_91)"></path>
      <path d="M-174 146C-176.209 146 -178 147.791 -178 150C-178 152.209 -176.209 154 -174 154V146ZM808 146L-174 146V154L808 154V146Z" fill="url(#paint42_linear_141_91)"></path>
      <path d="M-174 131C-176.209 131 -178 132.791 -178 135C-178 137.209 -176.209 139 -174 139V131ZM808 131L-174 131V139L808 139V131Z" fill="url(#paint43_linear_141_91)"></path>
      <path d="M-174 116C-176.209 116 -178 117.791 -178 120C-178 122.209 -176.209 124 -174 124V116ZM808 116L-174 116V124L808 124V116Z" fill="url(#paint44_linear_141_91)"></path>
      <path d="M-174 101C-176.209 101 -178 102.791 -178 105C-178 107.209 -176.209 109 -174 109V101ZM808 101L-174 101V109L808 109V101Z" fill="url(#paint45_linear_141_91)"></path>
      <path d="M-174 86C-176.209 86 -178 87.7909 -178 90C-178 92.2091 -176.209 94 -174 94V86ZM808 86L-174 86V94L808 94V86Z" fill="url(#paint46_linear_141_91)"></path>
      <path d="M-174 71C-176.209 71 -178 72.7909 -178 75C-178 77.2091 -176.209 79 -174 79V71ZM808 71L-174 71V79L808 79V71Z" fill="url(#paint47_linear_141_91)"></path>
      <path d="M-174 56C-176.209 56 -178 57.7909 -178 60C-178 62.2091 -176.209 64 -174 64V56ZM808 56L-174 56V64L808 64V56Z" fill="url(#paint48_linear_141_91)"></path>
      <path d="M-174 41C-176.209 41 -178 42.7909 -178 45C-178 47.2091 -176.209 49 -174 49V41ZM808 41L-174 41V49L808 49V41Z" fill="url(#paint49_linear_141_91)"></path>
      <path d="M-174 26C-176.209 26 -178 27.7909 -178 30C-178 32.2091 -176.209 34 -174 34V26ZM808 26L-174 26V34L808 34V26Z" fill="url(#paint50_linear_141_91)"></path>
      <path d="M-174 11C-176.209 11 -178 12.7909 -178 15C-178 17.2091 -176.209 19 -174 19V11ZM808 11L-174 11V19L808 19V11Z" fill="url(#paint51_linear_141_91)"></path>
      <path d="M-174 -4C-176.209 -4 -178 -2.20914 -178 0C-178 2.20914 -176.209 4 -174 4V-4ZM808 -4L-174 -4V4L808 4V-4Z" fill="url(#paint52_linear_141_91)"></path>
    </mask>
    <g mask="url(#mask0_141_91)">
      <path d="M-180 0L731 0L439.2 780H-180L-180 0Z" fill="#1D1D1D"></path>
    </g>
    <circle cx="378.5" cy="286.5" r="129" fill="#101010" stroke="white" stroke-width="5"></circle>
    <mask id="path-56-outside-1_141_91" maskUnits="userSpaceOnUse" x="296" y="257" width="167" height="55" fill="black">
      <rect fill="white" x="296" y="257" width="167" height="55"></rect>
      <path d="M299.93 309C299.417 309 298.997 308.837 298.67 308.51C298.343 308.183 298.18 307.763 298.18 307.25V261.75C298.18 261.237 298.343 260.817 298.67 260.49C298.997 260.163 299.417 260 299.93 260H307.84C308.353 260 308.773 260.163 309.1 260.49C309.427 260.817 309.59 261.237 309.59 261.75V307.25C309.59 307.763 309.427 308.183 309.1 308.51C308.773 308.837 308.353 309 307.84 309H299.93ZM321.668 309C321.155 309 320.735 308.837 320.408 308.51C320.082 308.183 319.918 307.763 319.918 307.25V261.75C319.918 261.237 320.082 260.817 320.408 260.49C320.735 260.163 321.155 260 321.668 260H328.038C328.738 260 329.252 260.163 329.578 260.49C329.905 260.817 330.115 261.073 330.208 261.26L348.898 290.45V261.75C348.898 261.237 349.062 260.817 349.388 260.49C349.715 260.163 350.112 260 350.578 260H357.718C358.232 260 358.652 260.163 358.978 260.49C359.305 260.817 359.468 261.237 359.468 261.75V307.25C359.468 307.717 359.305 308.137 358.978 308.51C358.652 308.837 358.232 309 357.718 309H351.278C350.578 309 350.065 308.837 349.738 308.51C349.458 308.137 349.248 307.88 349.108 307.74L330.488 279.46V307.25C330.488 307.763 330.325 308.183 329.998 308.51C329.672 308.837 329.252 309 328.738 309H321.668ZM389.491 309.7C385.104 309.7 381.347 308.977 378.221 307.53C375.141 306.037 372.737 303.89 371.011 301.09C369.331 298.243 368.421 294.813 368.281 290.8C368.234 288.793 368.211 286.647 368.211 284.36C368.211 282.073 368.234 279.903 368.281 277.85C368.421 273.93 369.331 270.593 371.011 267.84C372.737 265.087 375.164 262.987 378.291 261.54C381.464 260.047 385.197 259.3 389.491 259.3C392.944 259.3 395.977 259.743 398.591 260.63C401.204 261.517 403.397 262.683 405.171 264.13C406.944 265.53 408.297 267.07 409.231 268.75C410.164 270.43 410.654 272.04 410.701 273.58C410.701 274 410.561 274.373 410.281 274.7C410.001 274.98 409.627 275.12 409.161 275.12H400.481C400.014 275.12 399.641 275.027 399.361 274.84C399.127 274.653 398.917 274.373 398.731 274C398.404 273.16 397.867 272.32 397.121 271.48C396.421 270.593 395.464 269.847 394.251 269.24C393.037 268.633 391.451 268.33 389.491 268.33C386.551 268.33 384.217 269.1 382.491 270.64C380.811 272.18 379.901 274.7 379.761 278.2C379.621 282.213 379.621 286.297 379.761 290.45C379.901 294.09 380.834 296.703 382.561 298.29C384.334 299.877 386.691 300.67 389.631 300.67C391.544 300.67 393.247 300.343 394.741 299.69C396.281 298.99 397.494 297.917 398.381 296.47C399.267 295.023 399.711 293.18 399.711 290.94V289.19H392.081C391.614 289.19 391.217 289.027 390.891 288.7C390.564 288.327 390.401 287.907 390.401 287.44V282.96C390.401 282.447 390.564 282.027 390.891 281.7C391.217 281.373 391.614 281.21 392.081 281.21H409.231C409.744 281.21 410.164 281.373 410.491 281.7C410.817 282.027 410.981 282.447 410.981 282.96V290.59C410.981 294.603 410.094 298.033 408.321 300.88C406.594 303.727 404.097 305.92 400.831 307.46C397.611 308.953 393.831 309.7 389.491 309.7ZM438.978 309.7C434.591 309.7 430.858 308.977 427.778 307.53C424.745 306.037 422.388 303.89 420.708 301.09C419.028 298.243 418.095 294.79 417.908 290.73C417.861 288.817 417.838 286.763 417.838 284.57C417.838 282.377 417.861 280.277 417.908 278.27C418.095 274.257 419.028 270.85 420.708 268.05C422.435 265.203 424.838 263.033 427.918 261.54C430.998 260.047 434.685 259.3 438.978 259.3C442.105 259.3 444.951 259.697 447.518 260.49C450.085 261.283 452.301 262.427 454.168 263.92C456.035 265.413 457.481 267.163 458.508 269.17C459.535 271.177 460.095 273.417 460.188 275.89C460.188 276.31 460.025 276.66 459.698 276.94C459.418 277.22 459.068 277.36 458.648 277.36H450.668C450.108 277.36 449.665 277.22 449.338 276.94C449.011 276.66 448.755 276.193 448.568 275.54C447.868 272.787 446.701 270.897 445.068 269.87C443.435 268.843 441.405 268.33 438.978 268.33C436.085 268.33 433.798 269.123 432.118 270.71C430.438 272.297 429.528 274.933 429.388 278.62C429.248 282.447 429.248 286.367 429.388 290.38C429.528 294.067 430.438 296.703 432.118 298.29C433.798 299.877 436.085 300.67 438.978 300.67C441.405 300.67 443.435 300.157 445.068 299.13C446.748 298.057 447.915 296.167 448.568 293.46C448.755 292.76 449.011 292.293 449.338 292.06C449.665 291.78 450.108 291.64 450.668 291.64H458.648C459.068 291.64 459.418 291.78 459.698 292.06C460.025 292.34 460.188 292.69 460.188 293.11C460.095 295.583 459.535 297.823 458.508 299.83C457.481 301.837 456.035 303.587 454.168 305.08C452.301 306.573 450.085 307.717 447.518 308.51C444.951 309.303 442.105 309.7 438.978 309.7Z"></path>
    </mask>
    <path d="M299.93 309C299.417 309 298.997 308.837 298.67 308.51C298.343 308.183 298.18 307.763 298.18 307.25V261.75C298.18 261.237 298.343 260.817 298.67 260.49C298.997 260.163 299.417 260 299.93 260H307.84C308.353 260 308.773 260.163 309.1 260.49C309.427 260.817 309.59 261.237 309.59 261.75V307.25C309.59 307.763 309.427 308.183 309.1 308.51C308.773 308.837 308.353 309 307.84 309H299.93ZM321.668 309C321.155 309 320.735 308.837 320.408 308.51C320.082 308.183 319.918 307.763 319.918 307.25V261.75C319.918 261.237 320.082 260.817 320.408 260.49C320.735 260.163 321.155 260 321.668 260H328.038C328.738 260 329.252 260.163 329.578 260.49C329.905 260.817 330.115 261.073 330.208 261.26L348.898 290.45V261.75C348.898 261.237 349.062 260.817 349.388 260.49C349.715 260.163 350.112 260 350.578 260H357.718C358.232 260 358.652 260.163 358.978 260.49C359.305 260.817 359.468 261.237 359.468 261.75V307.25C359.468 307.717 359.305 308.137 358.978 308.51C358.652 308.837 358.232 309 357.718 309H351.278C350.578 309 350.065 308.837 349.738 308.51C349.458 308.137 349.248 307.88 349.108 307.74L330.488 279.46V307.25C330.488 307.763 330.325 308.183 329.998 308.51C329.672 308.837 329.252 309 328.738 309H321.668ZM389.491 309.7C385.104 309.7 381.347 308.977 378.221 307.53C375.141 306.037 372.737 303.89 371.011 301.09C369.331 298.243 368.421 294.813 368.281 290.8C368.234 288.793 368.211 286.647 368.211 284.36C368.211 282.073 368.234 279.903 368.281 277.85C368.421 273.93 369.331 270.593 371.011 267.84C372.737 265.087 375.164 262.987 378.291 261.54C381.464 260.047 385.197 259.3 389.491 259.3C392.944 259.3 395.977 259.743 398.591 260.63C401.204 261.517 403.397 262.683 405.171 264.13C406.944 265.53 408.297 267.07 409.231 268.75C410.164 270.43 410.654 272.04 410.701 273.58C410.701 274 410.561 274.373 410.281 274.7C410.001 274.98 409.627 275.12 409.161 275.12H400.481C400.014 275.12 399.641 275.027 399.361 274.84C399.127 274.653 398.917 274.373 398.731 274C398.404 273.16 397.867 272.32 397.121 271.48C396.421 270.593 395.464 269.847 394.251 269.24C393.037 268.633 391.451 268.33 389.491 268.33C386.551 268.33 384.217 269.1 382.491 270.64C380.811 272.18 379.901 274.7 379.761 278.2C379.621 282.213 379.621 286.297 379.761 290.45C379.901 294.09 380.834 296.703 382.561 298.29C384.334 299.877 386.691 300.67 389.631 300.67C391.544 300.67 393.247 300.343 394.741 299.69C396.281 298.99 397.494 297.917 398.381 296.47C399.267 295.023 399.711 293.18 399.711 290.94V289.19H392.081C391.614 289.19 391.217 289.027 390.891 288.7C390.564 288.327 390.401 287.907 390.401 287.44V282.96C390.401 282.447 390.564 282.027 390.891 281.7C391.217 281.373 391.614 281.21 392.081 281.21H409.231C409.744 281.21 410.164 281.373 410.491 281.7C410.817 282.027 410.981 282.447 410.981 282.96V290.59C410.981 294.603 410.094 298.033 408.321 300.88C406.594 303.727 404.097 305.92 400.831 307.46C397.611 308.953 393.831 309.7 389.491 309.7ZM438.978 309.7C434.591 309.7 430.858 308.977 427.778 307.53C424.745 306.037 422.388 303.89 420.708 301.09C419.028 298.243 418.095 294.79 417.908 290.73C417.861 288.817 417.838 286.763 417.838 284.57C417.838 282.377 417.861 280.277 417.908 278.27C418.095 274.257 419.028 270.85 420.708 268.05C422.435 265.203 424.838 263.033 427.918 261.54C430.998 260.047 434.685 259.3 438.978 259.3C442.105 259.3 444.951 259.697 447.518 260.49C450.085 261.283 452.301 262.427 454.168 263.92C456.035 265.413 457.481 267.163 458.508 269.17C459.535 271.177 460.095 273.417 460.188 275.89C460.188 276.31 460.025 276.66 459.698 276.94C459.418 277.22 459.068 277.36 458.648 277.36H450.668C450.108 277.36 449.665 277.22 449.338 276.94C449.011 276.66 448.755 276.193 448.568 275.54C447.868 272.787 446.701 270.897 445.068 269.87C443.435 268.843 441.405 268.33 438.978 268.33C436.085 268.33 433.798 269.123 432.118 270.71C430.438 272.297 429.528 274.933 429.388 278.62C429.248 282.447 429.248 286.367 429.388 290.38C429.528 294.067 430.438 296.703 432.118 298.29C433.798 299.877 436.085 300.67 438.978 300.67C441.405 300.67 443.435 300.157 445.068 299.13C446.748 298.057 447.915 296.167 448.568 293.46C448.755 292.76 449.011 292.293 449.338 292.06C449.665 291.78 450.108 291.64 450.668 291.64H458.648C459.068 291.64 459.418 291.78 459.698 292.06C460.025 292.34 460.188 292.69 460.188 293.11C460.095 295.583 459.535 297.823 458.508 299.83C457.481 301.837 456.035 303.587 454.168 305.08C452.301 306.573 450.085 307.717 447.518 308.51C444.951 309.303 442.105 309.7 438.978 309.7Z" fill="white"></path>
    <path d="M298.67 308.51L297.256 309.924L297.256 309.924L298.67 308.51ZM298.67 260.49L300.084 261.904L300.084 261.904L298.67 260.49ZM309.1 260.49L307.686 261.904L307.686 261.904L309.1 260.49ZM309.1 308.51L307.686 307.096L307.686 307.096L309.1 308.51ZM299.93 307C299.887 307 299.904 306.994 299.955 307.013C299.979 307.023 300.005 307.036 300.03 307.052C300.055 307.068 300.073 307.084 300.084 307.096L297.256 309.924C298.001 310.669 298.951 311 299.93 311V307ZM300.084 307.096C300.096 307.107 300.112 307.125 300.128 307.15C300.144 307.175 300.157 307.201 300.167 307.225C300.186 307.276 300.18 307.293 300.18 307.25H296.18C296.18 308.229 296.511 309.179 297.256 309.924L300.084 307.096ZM300.18 307.25V261.75H296.18V307.25H300.18ZM300.18 261.75C300.18 261.707 300.186 261.724 300.167 261.775C300.157 261.799 300.144 261.825 300.128 261.85C300.112 261.875 300.096 261.893 300.084 261.904L297.256 259.076C296.511 259.821 296.18 260.771 296.18 261.75H300.18ZM300.084 261.904C300.073 261.916 300.055 261.932 300.03 261.948C300.005 261.964 299.979 261.977 299.955 261.987C299.904 262.006 299.887 262 299.93 262V258C298.951 258 298.001 258.331 297.256 259.076L300.084 261.904ZM299.93 262H307.84V258H299.93V262ZM307.84 262C307.883 262 307.866 262.006 307.815 261.987C307.791 261.977 307.765 261.964 307.74 261.948C307.715 261.932 307.697 261.916 307.686 261.904L310.514 259.076C309.769 258.331 308.819 258 307.84 258V262ZM307.686 261.904C307.674 261.893 307.658 261.875 307.642 261.85C307.626 261.825 307.613 261.799 307.603 261.775C307.584 261.724 307.59 261.707 307.59 261.75H311.59C311.59 260.771 311.259 259.821 310.514 259.076L307.686 261.904ZM307.59 261.75V307.25H311.59V261.75H307.59ZM307.59 307.25C307.59 307.293 307.584 307.276 307.603 307.225C307.613 307.201 307.626 307.175 307.642 307.15C307.658 307.125 307.674 307.107 307.686 307.096L310.514 309.924C311.259 309.179 311.59 308.229 311.59 307.25H307.59ZM307.686 307.096C307.697 307.084 307.715 307.068 307.74 307.052C307.765 307.036 307.791 307.023 307.815 307.013C307.866 306.994 307.883 307 307.84 307V311C308.819 311 309.769 310.669 310.514 309.924L307.686 307.096ZM307.84 307H299.93V311H307.84V307ZM320.408 308.51L318.994 309.924L318.994 309.924L320.408 308.51ZM320.408 260.49L321.822 261.904L321.822 261.904L320.408 260.49ZM329.578 260.49L328.164 261.904L328.164 261.904L329.578 260.49ZM330.208 261.26L328.419 262.154L328.467 262.249L328.524 262.338L330.208 261.26ZM348.898 290.45L347.214 291.528L350.898 297.283V290.45H348.898ZM349.388 260.49L350.802 261.904L350.803 261.904L349.388 260.49ZM358.978 260.49L357.564 261.904L357.564 261.904L358.978 260.49ZM358.978 308.51L360.392 309.924L360.44 309.877L360.483 309.827L358.978 308.51ZM349.738 308.51L348.138 309.71L348.224 309.824L348.324 309.924L349.738 308.51ZM349.108 307.74L347.438 308.84L347.55 309.01L347.694 309.154L349.108 307.74ZM330.488 279.46L332.159 278.36L328.488 272.786V279.46H330.488ZM321.668 307C321.625 307 321.642 306.994 321.693 307.013C321.717 307.023 321.743 307.036 321.768 307.052C321.793 307.068 321.811 307.084 321.822 307.096L318.994 309.924C319.739 310.669 320.689 311 321.668 311V307ZM321.822 307.096C321.834 307.107 321.85 307.125 321.866 307.15C321.882 307.175 321.895 307.201 321.905 307.225C321.925 307.276 321.918 307.293 321.918 307.25H317.918C317.918 308.229 318.249 309.179 318.994 309.924L321.822 307.096ZM321.918 307.25V261.75H317.918V307.25H321.918ZM321.918 261.75C321.918 261.707 321.925 261.724 321.905 261.775C321.895 261.799 321.882 261.825 321.866 261.85C321.85 261.875 321.834 261.893 321.822 261.904L318.994 259.076C318.249 259.821 317.918 260.771 317.918 261.75H321.918ZM321.822 261.904C321.811 261.916 321.793 261.932 321.768 261.948C321.743 261.964 321.717 261.977 321.693 261.987C321.642 262.006 321.625 262 321.668 262V258C320.689 258 319.739 258.331 318.994 259.076L321.822 261.904ZM321.668 262H328.038V258H321.668V262ZM328.038 262C328.136 262 328.21 262.006 328.261 262.013C328.313 262.02 328.338 262.027 328.342 262.028C328.345 262.029 328.325 262.023 328.291 262.003C328.255 261.982 328.21 261.95 328.164 261.904L330.992 259.076C330.136 258.219 329 258 328.038 258V262ZM328.164 261.904C328.297 262.037 328.383 262.133 328.433 262.194C328.457 262.224 328.467 262.237 328.466 262.236C328.465 262.235 328.46 262.228 328.453 262.216C328.445 262.203 328.434 262.183 328.419 262.154L331.997 260.366C331.748 259.867 331.332 259.416 330.992 259.076L328.164 261.904ZM328.524 262.338L347.214 291.528L350.583 289.372L331.893 260.182L328.524 262.338ZM350.898 290.45V261.75H346.898V290.45H350.898ZM350.898 261.75C350.898 261.707 350.905 261.724 350.885 261.775C350.875 261.799 350.862 261.825 350.846 261.85C350.83 261.875 350.814 261.893 350.802 261.904L347.974 259.076C347.229 259.821 346.898 260.771 346.898 261.75H350.898ZM350.803 261.904C350.794 261.913 350.756 261.945 350.692 261.972C350.629 261.998 350.583 262 350.578 262V258C349.587 258 348.68 258.37 347.974 259.076L350.803 261.904ZM350.578 262H357.718V258H350.578V262ZM357.718 262C357.761 262 357.744 262.006 357.693 261.987C357.669 261.977 357.643 261.964 357.618 261.948C357.594 261.932 357.576 261.916 357.564 261.904L360.392 259.076C359.647 258.331 358.697 258 357.718 258V262ZM357.564 261.904C357.553 261.893 357.537 261.875 357.521 261.85C357.504 261.825 357.491 261.799 357.482 261.775C357.462 261.724 357.468 261.707 357.468 261.75H361.468C361.468 260.771 361.138 259.821 360.392 259.076L357.564 261.904ZM357.468 261.75V307.25H361.468V261.75H357.468ZM357.468 307.25C357.468 307.249 357.468 307.242 357.471 307.229C357.473 307.216 357.477 307.202 357.482 307.19C357.487 307.178 357.491 307.171 357.491 307.17C357.491 307.17 357.487 307.177 357.473 307.193L360.483 309.827C361.107 309.114 361.468 308.233 361.468 307.25H357.468ZM357.564 307.096C357.576 307.084 357.594 307.068 357.618 307.052C357.643 307.036 357.669 307.023 357.693 307.013C357.744 306.994 357.761 307 357.718 307V311C358.697 311 359.647 310.669 360.392 309.924L357.564 307.096ZM357.718 307H351.278V311H357.718V307ZM351.278 307C351.18 307 351.107 306.994 351.055 306.987C351.003 306.98 350.978 306.973 350.975 306.972C350.971 306.971 350.991 306.977 351.026 306.997C351.062 307.018 351.106 307.05 351.152 307.096L348.324 309.924C349.181 310.781 350.317 311 351.278 311V307ZM351.338 307.31C351.057 306.935 350.773 306.576 350.522 306.326L347.694 309.154C347.692 309.152 347.702 309.162 347.727 309.19C347.751 309.217 347.782 309.254 347.823 309.304C347.905 309.404 348.009 309.538 348.138 309.71L351.338 307.31ZM350.779 306.64L332.159 278.36L328.818 280.56L347.438 308.84L350.779 306.64ZM328.488 279.46V307.25H332.488V279.46H328.488ZM328.488 307.25C328.488 307.293 328.482 307.276 328.502 307.225C328.511 307.201 328.524 307.175 328.541 307.15C328.557 307.125 328.573 307.107 328.584 307.096L331.412 309.924C332.158 309.179 332.488 308.229 332.488 307.25H328.488ZM328.584 307.096C328.596 307.084 328.614 307.068 328.638 307.052C328.663 307.036 328.689 307.023 328.713 307.013C328.764 306.994 328.781 307 328.738 307V311C329.717 311 330.667 310.669 331.412 309.924L328.584 307.096ZM328.738 307H321.668V311H328.738V307ZM378.221 307.53L377.348 309.33L377.364 309.338L377.381 309.345L378.221 307.53ZM371.011 301.09L369.288 302.107L369.298 302.123L369.308 302.14L371.011 301.09ZM368.281 290.8L366.281 290.846L366.281 290.858L366.282 290.87L368.281 290.8ZM368.281 277.85L366.282 277.779L366.281 277.792L366.281 277.805L368.281 277.85ZM371.011 267.84L369.316 266.777L369.31 266.788L369.303 266.798L371.011 267.84ZM378.291 261.54L379.13 263.355L379.142 263.35L378.291 261.54ZM398.591 260.63L397.948 262.524L398.591 260.63ZM405.171 264.13L403.906 265.68L403.919 265.69L403.931 265.7L405.171 264.13ZM409.231 268.75L410.979 267.779L410.979 267.779L409.231 268.75ZM410.701 273.58H412.701V273.55L412.7 273.519L410.701 273.58ZM410.281 274.7L411.695 276.114L411.749 276.06L411.799 276.002L410.281 274.7ZM399.361 274.84L398.111 276.402L398.179 276.456L398.251 276.504L399.361 274.84ZM398.731 274L396.867 274.725L396.9 274.811L396.942 274.894L398.731 274ZM397.121 271.48L395.551 272.719L395.587 272.765L395.626 272.809L397.121 271.48ZM394.251 269.24L393.356 271.029L393.356 271.029L394.251 269.24ZM382.491 270.64L381.159 269.147L381.149 269.156L381.139 269.166L382.491 270.64ZM379.761 278.2L377.762 278.12L377.762 278.13L379.761 278.2ZM379.761 290.45L377.762 290.517L377.762 290.527L379.761 290.45ZM382.561 298.29L381.207 299.763L381.217 299.772L381.227 299.78L382.561 298.29ZM394.741 299.69L395.542 301.522L395.555 301.517L395.568 301.511L394.741 299.69ZM398.381 296.47L396.675 295.425L396.675 295.425L398.381 296.47ZM399.711 289.19H401.711V287.19H399.711V289.19ZM390.891 288.7L389.385 290.017L389.429 290.067L389.476 290.114L390.891 288.7ZM408.321 300.88L406.623 299.823L406.617 299.833L406.611 299.843L408.321 300.88ZM400.831 307.46L401.672 309.274L401.683 309.269L400.831 307.46ZM389.491 307.7C385.317 307.7 381.862 307.011 379.06 305.715L377.381 309.345C380.832 310.942 384.89 311.7 389.491 311.7V307.7ZM379.093 305.73C376.341 304.396 374.232 302.503 372.713 300.04L369.308 302.14C371.243 305.277 373.94 307.677 377.348 309.33L379.093 305.73ZM372.733 300.073C371.256 297.57 370.41 294.481 370.279 290.73L366.282 290.87C366.431 295.146 367.406 298.917 369.288 302.107L372.733 300.073ZM370.28 290.753C370.234 288.764 370.211 286.633 370.211 284.36H366.211C366.211 286.66 366.234 288.822 366.281 290.846L370.28 290.753ZM370.211 284.36C370.211 282.087 370.234 279.932 370.28 277.895L366.281 277.805C366.234 279.875 366.211 282.06 366.211 284.36H370.211ZM370.279 277.921C370.41 274.271 371.252 271.285 372.718 268.882L369.303 266.798C367.41 269.902 366.432 273.589 366.282 277.779L370.279 277.921ZM372.705 268.903C374.213 266.498 376.333 264.649 379.13 263.355L377.451 259.725C373.995 261.324 371.261 263.676 369.316 266.777L372.705 268.903ZM379.142 263.35C381.996 262.007 385.427 261.3 389.491 261.3V257.3C384.968 257.3 380.932 258.087 377.439 259.73L379.142 263.35ZM389.491 261.3C392.778 261.3 395.586 261.723 397.948 262.524L399.233 258.736C396.368 257.764 393.11 257.3 389.491 257.3V261.3ZM397.948 262.524C400.38 263.349 402.352 264.411 403.906 265.68L406.435 262.58C404.443 260.955 402.027 259.684 399.233 258.736L397.948 262.524ZM403.931 265.7C405.533 266.964 406.698 268.309 407.482 269.721L410.979 267.779C409.897 265.831 408.355 264.096 406.41 262.56L403.931 265.7ZM407.482 269.721C408.298 271.19 408.667 272.489 408.702 273.641L412.7 273.519C412.641 271.591 412.03 269.67 410.979 267.779L407.482 269.721ZM408.701 273.58C408.701 273.563 408.704 273.522 408.723 273.473C408.732 273.45 408.741 273.431 408.749 273.417C408.758 273.404 408.763 273.397 408.762 273.398L411.799 276.002C412.382 275.322 412.701 274.49 412.701 273.58H408.701ZM408.866 273.286C408.93 273.222 409.01 273.172 409.088 273.142C409.161 273.115 409.194 273.12 409.161 273.12V277.12C410.056 277.12 410.973 276.836 411.695 276.114L408.866 273.286ZM409.161 273.12H400.481V277.12H409.161V273.12ZM400.481 273.12C400.43 273.12 400.394 273.117 400.369 273.115C400.344 273.112 400.334 273.109 400.336 273.11C400.34 273.111 400.394 273.125 400.47 273.176L398.251 276.504C398.964 276.979 399.767 277.12 400.481 277.12V273.12ZM400.61 273.278C400.645 273.306 400.649 273.318 400.628 273.29C400.607 273.262 400.569 273.205 400.519 273.106L396.942 274.894C397.21 275.431 397.581 275.977 398.111 276.402L400.61 273.278ZM400.595 273.275C400.163 272.166 399.483 271.127 398.615 270.151L395.626 272.809C396.252 273.513 396.644 274.154 396.867 274.725L400.595 273.275ZM398.69 270.241C397.775 269.082 396.569 268.163 395.145 267.451L393.356 271.029C394.359 271.53 395.066 272.105 395.551 272.719L398.69 270.241ZM395.145 267.451C393.558 266.658 391.633 266.33 389.491 266.33V270.33C391.268 270.33 392.516 270.609 393.356 271.029L395.145 267.451ZM389.491 266.33C386.197 266.33 383.343 267.2 381.159 269.147L383.822 272.133C385.091 271 386.904 270.33 389.491 270.33V266.33ZM381.139 269.166C378.899 271.219 377.912 274.368 377.762 278.12L381.759 278.28C381.889 275.032 382.722 273.141 383.842 272.114L381.139 269.166ZM377.762 278.13C377.62 282.191 377.62 286.32 377.762 290.517L381.759 290.383C381.621 286.273 381.621 282.236 381.759 278.27L377.762 278.13ZM377.762 290.527C377.912 294.412 378.918 297.659 381.207 299.763L383.914 296.817C382.75 295.748 381.89 293.768 381.759 290.373L377.762 290.527ZM381.227 299.78C383.448 301.768 386.319 302.67 389.631 302.67V298.67C387.062 298.67 385.22 297.986 383.894 296.8L381.227 299.78ZM389.631 302.67C391.772 302.67 393.756 302.304 395.542 301.522L393.939 297.858C392.739 298.383 391.315 298.67 389.631 298.67V302.67ZM395.568 301.511C397.473 300.645 398.991 299.301 400.086 297.515L396.675 295.425C395.997 296.532 395.088 297.335 393.913 297.869L395.568 301.511ZM400.086 297.515C401.218 295.668 401.711 293.434 401.711 290.94H397.711C397.711 292.926 397.317 294.378 396.675 295.425L400.086 297.515ZM401.711 290.94V289.19H397.711V290.94H401.711ZM399.711 287.19H392.081V291.19H399.711V287.19ZM392.081 287.19C392.085 287.19 392.131 287.192 392.195 287.218C392.259 287.245 392.296 287.277 392.305 287.286L389.476 290.114C390.182 290.82 391.09 291.19 392.081 291.19V287.19ZM392.396 287.383C392.382 287.367 392.378 287.36 392.378 287.36C392.378 287.361 392.382 287.368 392.387 287.38C392.392 287.392 392.396 287.406 392.398 287.419C392.399 287.425 392.4 287.43 392.4 287.434C392.4 287.436 392.401 287.437 392.401 287.438C392.401 287.439 392.401 287.439 392.401 287.44C392.401 287.44 392.401 287.44 392.401 287.44C392.401 287.44 392.401 287.44 392.401 287.44C392.401 287.44 392.401 287.44 392.401 287.44H388.401C388.401 288.423 388.762 289.304 389.385 290.017L392.396 287.383ZM392.401 287.44V282.96H388.401V287.44H392.401ZM392.401 282.96C392.401 282.917 392.407 282.934 392.387 282.985C392.378 283.009 392.365 283.035 392.348 283.06C392.332 283.085 392.316 283.103 392.305 283.114L389.476 280.286C388.731 281.031 388.401 281.981 388.401 282.96H392.401ZM392.305 283.114C392.296 283.123 392.259 283.155 392.195 283.182C392.131 283.208 392.085 283.21 392.081 283.21V279.21C391.09 279.21 390.182 279.58 389.476 280.286L392.305 283.114ZM392.081 283.21H409.231V279.21H392.081V283.21ZM409.231 283.21C409.273 283.21 409.257 283.216 409.206 283.197C409.181 283.187 409.156 283.174 409.131 283.158C409.106 283.142 409.088 283.126 409.076 283.114L411.905 280.286C411.16 279.541 410.21 279.21 409.231 279.21V283.21ZM409.076 283.114C409.065 283.103 409.049 283.085 409.033 283.06C409.017 283.035 409.004 283.009 408.994 282.985C408.974 282.934 408.981 282.917 408.981 282.96H412.981C412.981 281.981 412.65 281.031 411.905 280.286L409.076 283.114ZM408.981 282.96V290.59H412.981V282.96H408.981ZM408.981 290.59C408.981 294.304 408.163 297.351 406.623 299.823L410.018 301.937C412.025 298.716 412.981 294.903 412.981 290.59H408.981ZM406.611 299.843C405.105 302.325 402.921 304.264 399.978 305.651L401.683 309.269C405.274 307.576 408.083 305.128 410.031 301.917L406.611 299.843ZM399.989 305.646C397.085 306.993 393.603 307.7 389.491 307.7V311.7C394.058 311.7 398.136 310.914 401.672 309.274L399.989 305.646ZM427.778 307.53L426.895 309.324L426.911 309.332L426.928 309.34L427.778 307.53ZM420.708 301.09L418.985 302.107L418.989 302.113L418.993 302.119L420.708 301.09ZM417.908 290.73L415.908 290.779L415.909 290.8L415.91 290.822L417.908 290.73ZM417.908 278.27L415.91 278.177L415.909 278.2L415.908 278.224L417.908 278.27ZM420.708 268.05L418.998 267.013L418.993 267.021L420.708 268.05ZM427.918 261.54L427.045 259.74L427.045 259.74L427.918 261.54ZM447.518 260.49L446.927 262.401L446.927 262.401L447.518 260.49ZM454.168 263.92L452.919 265.482L452.919 265.482L454.168 263.92ZM458.508 269.17L456.727 270.081L456.727 270.081L458.508 269.17ZM460.188 275.89H462.188V275.852L462.186 275.815L460.188 275.89ZM459.698 276.94L458.396 275.421L458.338 275.471L458.284 275.526L459.698 276.94ZM449.338 276.94L448.036 278.459L448.036 278.459L449.338 276.94ZM448.568 275.54L446.63 276.033L446.637 276.061L446.645 276.089L448.568 275.54ZM445.068 269.87L444.004 271.563L444.004 271.563L445.068 269.87ZM432.118 270.71L430.745 269.256L430.745 269.256L432.118 270.71ZM429.388 278.62L427.389 278.544L427.389 278.547L429.388 278.62ZM429.388 290.38L427.389 290.45L427.389 290.456L429.388 290.38ZM432.118 298.29L433.491 296.836L432.118 298.29ZM445.068 299.13L446.132 300.823L446.138 300.819L446.145 300.815L445.068 299.13ZM448.568 293.46L446.635 292.945L446.629 292.968L446.624 292.991L448.568 293.46ZM449.338 292.06L450.5 293.687L450.572 293.636L450.639 293.579L449.338 292.06ZM459.698 292.06L458.284 293.474L458.338 293.529L458.396 293.579L459.698 292.06ZM460.188 293.11L462.186 293.185L462.188 293.148V293.11H460.188ZM458.508 299.83L456.727 298.919L456.727 298.919L458.508 299.83ZM454.168 305.08L452.919 303.518L452.919 303.518L454.168 305.08ZM447.518 308.51L446.927 306.599L447.518 308.51ZM438.978 307.7C434.803 307.7 431.377 307.011 428.628 305.72L426.928 309.34C430.339 310.943 434.379 311.7 438.978 311.7V307.7ZM428.661 305.736C425.96 304.406 423.898 302.519 422.423 300.061L418.993 302.119C420.878 305.261 423.529 307.667 426.895 309.324L428.661 305.736ZM422.43 300.073C420.95 297.565 420.081 294.446 419.906 290.638L415.91 290.822C416.108 295.134 417.106 298.921 418.985 302.107L422.43 300.073ZM419.907 290.681C419.861 288.786 419.838 286.749 419.838 284.57H415.838C415.838 286.777 415.861 288.847 415.908 290.779L419.907 290.681ZM419.838 284.57C419.838 282.391 419.861 280.306 419.907 278.316L415.908 278.224C415.861 280.247 415.838 282.363 415.838 284.57H419.838ZM419.906 278.363C420.081 274.605 420.948 271.537 422.423 269.079L418.993 267.021C417.108 270.163 416.109 273.908 415.91 278.177L419.906 278.363ZM422.418 269.087C423.939 266.58 426.047 264.67 428.79 263.34L427.045 259.74C423.629 261.397 420.93 263.827 418.998 267.013L422.418 269.087ZM428.79 263.34C431.538 262.007 434.912 261.3 438.978 261.3V257.3C434.457 257.3 430.457 258.086 427.045 259.74L428.79 263.34ZM438.978 261.3C441.936 261.3 444.58 261.675 446.927 262.401L448.109 258.579C445.322 257.718 442.273 257.3 438.978 257.3V261.3ZM446.927 262.401C449.284 263.129 451.27 264.163 452.919 265.482L455.417 262.358C453.332 260.69 450.885 259.437 448.109 258.579L446.927 262.401ZM452.919 265.482C454.578 266.809 455.837 268.341 456.727 270.081L460.288 268.259C459.125 265.985 457.491 264.018 455.417 262.358L452.919 265.482ZM456.727 270.081C457.609 271.804 458.106 273.754 458.189 275.965L462.186 275.815C462.083 273.079 461.46 270.55 460.288 268.259L456.727 270.081ZM458.188 275.89C458.188 275.834 458.201 275.734 458.253 275.622C458.305 275.511 458.368 275.446 458.396 275.421L460.999 278.459C461.757 277.809 462.188 276.91 462.188 275.89H458.188ZM458.284 275.526C458.325 275.484 458.394 275.434 458.483 275.398C458.569 275.363 458.632 275.36 458.648 275.36V279.36C459.563 279.36 460.433 279.034 461.112 278.354L458.284 275.526ZM458.648 275.36H450.668V279.36H458.648V275.36ZM450.668 275.36C450.552 275.36 450.509 275.345 450.518 275.348C450.523 275.349 450.539 275.355 450.562 275.368C450.586 275.381 450.613 275.399 450.639 275.421L448.036 278.459C448.823 279.133 449.777 279.36 450.668 279.36V275.36ZM450.639 275.421C450.696 275.47 450.692 275.487 450.653 275.416C450.613 275.344 450.554 275.211 450.491 274.991L446.645 276.089C446.882 276.919 447.286 277.815 448.036 278.459L450.639 275.421ZM450.506 275.047C449.739 272.029 448.368 269.582 446.132 268.177L444.004 271.563C445.035 272.211 445.997 273.545 446.63 276.033L450.506 275.047ZM446.132 268.177C444.107 266.904 441.685 266.33 438.978 266.33V270.33C441.124 270.33 442.762 270.783 444.004 271.563L446.132 268.177ZM438.978 266.33C435.709 266.33 432.883 267.236 430.745 269.256L433.491 272.164C434.712 271.011 436.461 270.33 438.978 270.33V266.33ZM430.745 269.256C428.51 271.366 427.538 274.634 427.389 278.544L431.386 278.696C431.518 275.233 432.365 273.227 433.491 272.164L430.745 269.256ZM427.389 278.547C427.247 282.423 427.248 286.391 427.389 290.45L431.387 290.31C431.248 286.342 431.248 282.47 431.387 278.693L427.389 278.547ZM427.389 290.456C427.538 294.366 428.51 297.634 430.745 299.744L433.491 296.836C432.365 295.773 431.518 293.767 431.386 290.304L427.389 290.456ZM430.745 299.744C432.883 301.764 435.709 302.67 438.978 302.67V298.67C436.461 298.67 434.712 297.989 433.491 296.836L430.745 299.744ZM438.978 302.67C441.685 302.67 444.107 302.096 446.132 300.823L444.004 297.437C442.762 298.217 441.124 298.67 438.978 298.67V302.67ZM446.145 300.815C448.408 299.37 449.786 296.937 450.512 293.929L446.624 292.991C446.043 295.396 445.088 296.744 443.991 297.445L446.145 300.815ZM450.5 293.975C450.566 293.73 450.625 293.6 450.653 293.549C450.682 293.496 450.647 293.583 450.5 293.687L448.175 290.433C447.268 291.081 446.856 292.117 446.635 292.945L450.5 293.975ZM450.639 293.579C450.613 293.601 450.586 293.619 450.562 293.632C450.539 293.645 450.523 293.651 450.518 293.652C450.509 293.655 450.552 293.64 450.668 293.64V289.64C449.777 289.64 448.823 289.867 448.036 290.541L450.639 293.579ZM450.668 293.64H458.648V289.64H450.668V293.64ZM458.648 293.64C458.632 293.64 458.569 293.637 458.483 293.602C458.394 293.566 458.325 293.516 458.284 293.474L461.112 290.646C460.433 289.966 459.563 289.64 458.648 289.64V293.64ZM458.396 293.579C458.368 293.554 458.305 293.489 458.253 293.378C458.201 293.266 458.188 293.166 458.188 293.11H462.188C462.188 292.09 461.757 291.191 460.999 290.541L458.396 293.579ZM458.189 293.035C458.106 295.246 457.609 297.196 456.727 298.919L460.288 300.741C461.46 298.45 462.083 295.921 462.186 293.185L458.189 293.035ZM456.727 298.919C455.837 300.659 454.578 302.191 452.919 303.518L455.417 306.642C457.491 304.982 459.125 303.015 460.288 300.741L456.727 298.919ZM452.919 303.518C451.27 304.837 449.284 305.871 446.927 306.599L448.109 310.421C450.885 309.563 453.332 308.31 455.417 306.642L452.919 303.518ZM446.927 306.599C444.58 307.325 441.936 307.7 438.978 307.7V311.7C442.273 311.7 445.322 311.282 448.109 310.421L446.927 306.599Z" fill="white" mask="url(#path-56-outside-1_141_91)"></path>
  </g>
  <defs>
    <linearGradient id="paint0_linear_141_91" x1="-174" y1="774.999" x2="866.254" y2="775.004" gradientUnits="userSpaceOnUse">
      <stop></stop>
      <stop offset="1" stop-color="white" stop-opacity="0.5"></stop>
    </linearGradient>
    <linearGradient id="paint1_linear_141_91" x1="-174" y1="759.999" x2="866.254" y2="760.004" gradientUnits="userSpaceOnUse">
      <stop></stop>
      <stop offset="1" stop-color="white" stop-opacity="0.5"></stop>
    </linearGradient>
    <linearGradient id="paint2_linear_141_91" x1="-174" y1="744.999" x2="866.254" y2="745.004" gradientUnits="userSpaceOnUse">
      <stop></stop>
      <stop offset="1" stop-color="white" stop-opacity="0.5"></stop>
    </linearGradient>
    <linearGradient id="paint3_linear_141_91" x1="-174" y1="729.999" x2="866.254" y2="730.004" gradientUnits="userSpaceOnUse">
      <stop></stop>
      <stop offset="1" stop-color="white" stop-opacity="0.5"></stop>
    </linearGradient>
    <linearGradient id="paint4_linear_141_91" x1="-174" y1="714.999" x2="866.254" y2="715.004" gradientUnits="userSpaceOnUse">
      <stop></stop>
      <stop offset="1" stop-color="white" stop-opacity="0.5"></stop>
    </linearGradient>
    <linearGradient id="paint5_linear_141_91" x1="-174" y1="699.999" x2="866.254" y2="700.004" gradientUnits="userSpaceOnUse">
      <stop></stop>
      <stop offset="1" stop-color="white" stop-opacity="0.5"></stop>
    </linearGradient>
    <linearGradient id="paint6_linear_141_91" x1="-174" y1="684.999" x2="866.254" y2="685.004" gradientUnits="userSpaceOnUse">
      <stop></stop>
      <stop offset="1" stop-color="white" stop-opacity="0.5"></stop>
    </linearGradient>
    <linearGradient id="paint7_linear_141_91" x1="-174" y1="669.999" x2="866.254" y2="670.004" gradientUnits="userSpaceOnUse">
      <stop></stop>
      <stop offset="1" stop-color="white" stop-opacity="0.5"></stop>
    </linearGradient>
    <linearGradient id="paint8_linear_141_91" x1="-174" y1="654.999" x2="866.254" y2="655.004" gradientUnits="userSpaceOnUse">
      <stop></stop>
      <stop offset="1" stop-color="white" stop-opacity="0.5"></stop>
    </linearGradient>
    <linearGradient id="paint9_linear_141_91" x1="-174" y1="639.999" x2="866.254" y2="640.004" gradientUnits="userSpaceOnUse">
      <stop></stop>
      <stop offset="1" stop-color="white" stop-opacity="0.5"></stop>
    </linearGradient>
    <linearGradient id="paint10_linear_141_91" x1="-174" y1="624.999" x2="866.254" y2="625.004" gradientUnits="userSpaceOnUse">
      <stop></stop>
      <stop offset="1" stop-color="white" stop-opacity="0.5"></stop>
    </linearGradient>
    <linearGradient id="paint11_linear_141_91" x1="-174" y1="609.999" x2="866.254" y2="610.004" gradientUnits="userSpaceOnUse">
      <stop></stop>
      <stop offset="1" stop-color="white" stop-opacity="0.5"></stop>
    </linearGradient>
    <linearGradient id="paint12_linear_141_91" x1="-174" y1="594.999" x2="866.254" y2="595.004" gradientUnits="userSpaceOnUse">
      <stop></stop>
      <stop offset="1" stop-color="white" stop-opacity="0.5"></stop>
    </linearGradient>
    <linearGradient id="paint13_linear_141_91" x1="-174" y1="579.999" x2="866.254" y2="580.004" gradientUnits="userSpaceOnUse">
      <stop></stop>
      <stop offset="1" stop-color="white" stop-opacity="0.5"></stop>
    </linearGradient>
    <linearGradient id="paint14_linear_141_91" x1="-174" y1="564.999" x2="866.254" y2="565.004" gradientUnits="userSpaceOnUse">
      <stop></stop>
      <stop offset="1" stop-color="white" stop-opacity="0.5"></stop>
    </linearGradient>
    <linearGradient id="paint15_linear_141_91" x1="-174" y1="549.999" x2="866.254" y2="550.004" gradientUnits="userSpaceOnUse">
      <stop></stop>
      <stop offset="1" stop-color="white" stop-opacity="0.5"></stop>
    </linearGradient>
    <linearGradient id="paint16_linear_141_91" x1="-174" y1="534.999" x2="866.254" y2="535.004" gradientUnits="userSpaceOnUse">
      <stop></stop>
      <stop offset="1" stop-color="white" stop-opacity="0.5"></stop>
    </linearGradient>
    <linearGradient id="paint17_linear_141_91" x1="-174" y1="519.999" x2="866.254" y2="520.004" gradientUnits="userSpaceOnUse">
      <stop></stop>
      <stop offset="1" stop-color="white" stop-opacity="0.5"></stop>
    </linearGradient>
    <linearGradient id="paint18_linear_141_91" x1="-174" y1="504.999" x2="866.254" y2="505.004" gradientUnits="userSpaceOnUse">
      <stop></stop>
      <stop offset="1" stop-color="white" stop-opacity="0.5"></stop>
    </linearGradient>
    <linearGradient id="paint19_linear_141_91" x1="-174" y1="489.999" x2="866.254" y2="490.004" gradientUnits="userSpaceOnUse">
      <stop></stop>
      <stop offset="1" stop-color="white" stop-opacity="0.5"></stop>
    </linearGradient>
    <linearGradient id="paint20_linear_141_91" x1="-174" y1="474.999" x2="866.254" y2="475.004" gradientUnits="userSpaceOnUse">
      <stop></stop>
      <stop offset="1" stop-color="white" stop-opacity="0.5"></stop>
    </linearGradient>
    <linearGradient id="paint21_linear_141_91" x1="-174" y1="459.999" x2="866.254" y2="460.004" gradientUnits="userSpaceOnUse">
      <stop></stop>
      <stop offset="1" stop-color="white" stop-opacity="0.5"></stop>
    </linearGradient>
    <linearGradient id="paint22_linear_141_91" x1="-174" y1="444.999" x2="866.254" y2="445.004" gradientUnits="userSpaceOnUse">
      <stop></stop>
      <stop offset="1" stop-color="white" stop-opacity="0.5"></stop>
    </linearGradient>
    <linearGradient id="paint23_linear_141_91" x1="-174" y1="429.999" x2="866.254" y2="430.004" gradientUnits="userSpaceOnUse">
      <stop></stop>
      <stop offset="1" stop-color="white" stop-opacity="0.5"></stop>
    </linearGradient>
    <linearGradient id="paint24_linear_141_91" x1="-174" y1="414.999" x2="866.254" y2="415.004" gradientUnits="userSpaceOnUse">
      <stop></stop>
      <stop offset="1" stop-color="white" stop-opacity="0.5"></stop>
    </linearGradient>
    <linearGradient id="paint25_linear_141_91" x1="-174" y1="399.999" x2="866.254" y2="400.004" gradientUnits="userSpaceOnUse">
      <stop></stop>
      <stop offset="1" stop-color="white" stop-opacity="0.5"></stop>
    </linearGradient>
    <linearGradient id="paint26_linear_141_91" x1="-174" y1="384.999" x2="866.254" y2="385.004" gradientUnits="userSpaceOnUse">
      <stop></stop>
      <stop offset="1" stop-color="white" stop-opacity="0.5"></stop>
    </linearGradient>
    <linearGradient id="paint27_linear_141_91" x1="-174" y1="369.999" x2="866.254" y2="370.004" gradientUnits="userSpaceOnUse">
      <stop></stop>
      <stop offset="1" stop-color="white" stop-opacity="0.5"></stop>
    </linearGradient>
    <linearGradient id="paint28_linear_141_91" x1="-174" y1="354.999" x2="866.254" y2="355.004" gradientUnits="userSpaceOnUse">
      <stop></stop>
      <stop offset="1" stop-color="white" stop-opacity="0.5"></stop>
    </linearGradient>
    <linearGradient id="paint29_linear_141_91" x1="-174" y1="339.999" x2="866.254" y2="340.004" gradientUnits="userSpaceOnUse">
      <stop></stop>
      <stop offset="1" stop-color="white" stop-opacity="0.5"></stop>
    </linearGradient>
    <linearGradient id="paint30_linear_141_91" x1="-174" y1="324.999" x2="866.254" y2="325.004" gradientUnits="userSpaceOnUse">
      <stop></stop>
      <stop offset="1" stop-color="white" stop-opacity="0.5"></stop>
    </linearGradient>
    <linearGradient id="paint31_linear_141_91" x1="-174" y1="309.999" x2="866.254" y2="310.004" gradientUnits="userSpaceOnUse">
      <stop></stop>
      <stop offset="1" stop-color="white" stop-opacity="0.5"></stop>
    </linearGradient>
    <linearGradient id="paint32_linear_141_91" x1="-174" y1="294.999" x2="866.254" y2="295.004" gradientUnits="userSpaceOnUse">
      <stop></stop>
      <stop offset="1" stop-color="white" stop-opacity="0.5"></stop>
    </linearGradient>
    <linearGradient id="paint33_linear_141_91" x1="-174" y1="279.999" x2="866.254" y2="280.004" gradientUnits="userSpaceOnUse">
      <stop></stop>
      <stop offset="1" stop-color="white" stop-opacity="0.5"></stop>
    </linearGradient>
    <linearGradient id="paint34_linear_141_91" x1="-174" y1="264.999" x2="866.254" y2="265.004" gradientUnits="userSpaceOnUse">
      <stop></stop>
      <stop offset="1" stop-color="white" stop-opacity="0.5"></stop>
    </linearGradient>
    <linearGradient id="paint35_linear_141_91" x1="-174" y1="249.999" x2="866.254" y2="250.004" gradientUnits="userSpaceOnUse">
      <stop></stop>
      <stop offset="1" stop-color="white" stop-opacity="0.5"></stop>
    </linearGradient>
    <linearGradient id="paint36_linear_141_91" x1="-174" y1="234.999" x2="866.254" y2="235.004" gradientUnits="userSpaceOnUse">
      <stop></stop>
      <stop offset="1" stop-color="white" stop-opacity="0.5"></stop>
    </linearGradient>
    <linearGradient id="paint37_linear_141_91" x1="-174" y1="219.999" x2="866.254" y2="220.004" gradientUnits="userSpaceOnUse">
      <stop></stop>
      <stop offset="1" stop-color="white" stop-opacity="0.5"></stop>
    </linearGradient>
    <linearGradient id="paint38_linear_141_91" x1="-174" y1="204.999" x2="866.254" y2="205.004" gradientUnits="userSpaceOnUse">
      <stop></stop>
      <stop offset="1" stop-color="white" stop-opacity="0.5"></stop>
    </linearGradient>
    <linearGradient id="paint39_linear_141_91" x1="-174" y1="189.999" x2="866.254" y2="190.004" gradientUnits="userSpaceOnUse">
      <stop></stop>
      <stop offset="1" stop-color="white" stop-opacity="0.5"></stop>
    </linearGradient>
    <linearGradient id="paint40_linear_141_91" x1="-174" y1="174.999" x2="866.254" y2="175.004" gradientUnits="userSpaceOnUse">
      <stop></stop>
      <stop offset="1" stop-color="white" stop-opacity="0.5"></stop>
    </linearGradient>
    <linearGradient id="paint41_linear_141_91" x1="-174" y1="159.999" x2="866.254" y2="160.004" gradientUnits="userSpaceOnUse">
      <stop></stop>
      <stop offset="1" stop-color="white" stop-opacity="0.5"></stop>
    </linearGradient>
    <linearGradient id="paint42_linear_141_91" x1="-174" y1="144.999" x2="866.254" y2="145.004" gradientUnits="userSpaceOnUse">
      <stop></stop>
      <stop offset="1" stop-color="white" stop-opacity="0.5"></stop>
    </linearGradient>
    <linearGradient id="paint43_linear_141_91" x1="-174" y1="129.999" x2="866.254" y2="130.004" gradientUnits="userSpaceOnUse">
      <stop></stop>
      <stop offset="1" stop-color="white" stop-opacity="0.5"></stop>
    </linearGradient>
    <linearGradient id="paint44_linear_141_91" x1="-174" y1="114.999" x2="866.254" y2="115.004" gradientUnits="userSpaceOnUse">
      <stop></stop>
      <stop offset="1" stop-color="white" stop-opacity="0.5"></stop>
    </linearGradient>
    <linearGradient id="paint45_linear_141_91" x1="-174" y1="99.999" x2="866.254" y2="100.004" gradientUnits="userSpaceOnUse">
      <stop></stop>
      <stop offset="1" stop-color="white" stop-opacity="0.5"></stop>
    </linearGradient>
    <linearGradient id="paint46_linear_141_91" x1="-174" y1="84.999" x2="866.254" y2="85.004" gradientUnits="userSpaceOnUse">
      <stop></stop>
      <stop offset="1" stop-color="white" stop-opacity="0.5"></stop>
    </linearGradient>
    <linearGradient id="paint47_linear_141_91" x1="-174" y1="69.999" x2="866.254" y2="70.004" gradientUnits="userSpaceOnUse">
      <stop></stop>
      <stop offset="1" stop-color="white" stop-opacity="0.5"></stop>
    </linearGradient>
    <linearGradient id="paint48_linear_141_91" x1="-174" y1="54.999" x2="866.254" y2="55.004" gradientUnits="userSpaceOnUse">
      <stop></stop>
      <stop offset="1" stop-color="white" stop-opacity="0.5"></stop>
    </linearGradient>
    <linearGradient id="paint49_linear_141_91" x1="-174" y1="39.999" x2="866.254" y2="40.004" gradientUnits="userSpaceOnUse">
      <stop></stop>
      <stop offset="1" stop-color="white" stop-opacity="0.5"></stop>
    </linearGradient>
    <linearGradient id="paint50_linear_141_91" x1="-174" y1="24.999" x2="866.254" y2="25.004" gradientUnits="userSpaceOnUse">
      <stop></stop>
      <stop offset="1" stop-color="white" stop-opacity="0.5"></stop>
    </linearGradient>
    <linearGradient id="paint51_linear_141_91" x1="-174" y1="9.99902" x2="866.254" y2="10.004" gradientUnits="userSpaceOnUse">
      <stop></stop>
      <stop offset="1" stop-color="white" stop-opacity="0.5"></stop>
    </linearGradient>
    <linearGradient id="paint52_linear_141_91" x1="-174" y1="-5.00098" x2="866.254" y2="-4.99601" gradientUnits="userSpaceOnUse">
      <stop></stop>
      <stop offset="1" stop-color="white" stop-opacity="0.5"></stop>
    </linearGradient>
    <clipPath id="clip0_141_91">
      <rect width="1924" height="780" fill="white"></rect>
    </clipPath>
  </defs>
</svg>
