<?xml version="1.0" encoding="UTF-8"?>
<svg xmlns="http://www.w3.org/2000/svg" width="1923" height="780" viewBox="0 0 1923 780" fill="none">
  <g clip-path="url(#clip0_141_91)">
    <rect width="1923" height="780" fill="#0E0E0E"></rect>
    <mask id="mask0_141_91" style="mask-type:alpha" maskUnits="userSpaceOnUse" x="-178" y="-319" width="986" height="1133">
      <path d="M-174 776C-176.209 776 -178 777.791 -178 780C-178 782.209 -176.209 784 -174 784V776ZM808 776L-174 776V784L808 784V776Z" fill="url(#paint0_linear_141_91)"></path>
      <path d="M-174 761C-176.209 761 -178 762.791 -178 765C-178 767.209 -176.209 769 -174 769V761ZM808 761L-174 761V769L808 769V761Z" fill="url(#paint1_linear_141_91)"></path>
      <path d="M-174 746C-176.209 746 -178 747.791 -178 750C-178 752.209 -176.209 754 -174 754V746ZM808 746L-174 746V754L808 754V746Z" fill="url(#paint2_linear_141_91)"></path>
      <path d="M-174 731C-176.209 731 -178 732.791 -178 735C-178 737.209 -176.209 739 -174 739V731ZM808 731L-174 731V739L808 739V731Z" fill="url(#paint3_linear_141_91)"></path>
      <path d="M-174 716C-176.209 716 -178 717.791 -178 720C-178 722.209 -176.209 724 -174 724V716ZM808 716L-174 716V724L808 724V716Z" fill="url(#paint4_linear_141_91)"></path>
      <path d="M-174 701C-176.209 701 -178 702.791 -178 705C-178 707.209 -176.209 709 -174 709V701ZM808 701L-174 701V709L808 709V701Z" fill="url(#paint5_linear_141_91)"></path>
      <path d="M-174 686C-176.209 686 -178 687.791 -178 690C-178 692.209 -176.209 694 -174 694V686ZM808 686L-174 686V694L808 694V686Z" fill="url(#paint6_linear_141_91)"></path>
      <path d="M-174 671C-176.209 671 -178 672.791 -178 675C-178 677.209 -176.209 679 -174 679V671ZM808 671L-174 671V679L808 679V671Z" fill="url(#paint7_linear_141_91)"></path>
      <path d="M-174 656C-176.209 656 -178 657.791 -178 660C-178 662.209 -176.209 664 -174 664V656ZM808 656L-174 656V664L808 664V656Z" fill="url(#paint8_linear_141_91)"></path>
      <path d="M-174 641C-176.209 641 -178 642.791 -178 645C-178 647.209 -176.209 649 -174 649V641ZM808 641L-174 641V649L808 649V641Z" fill="url(#paint9_linear_141_91)"></path>
      <path d="M-174 626C-176.209 626 -178 627.791 -178 630C-178 632.209 -176.209 634 -174 634V626ZM808 626L-174 626V634L808 634V626Z" fill="url(#paint10_linear_141_91)"></path>
      <path d="M-174 611C-176.209 611 -178 612.791 -178 615C-178 617.209 -176.209 619 -174 619V611ZM808 611L-174 611V619L808 619V611Z" fill="url(#paint11_linear_141_91)"></path>
      <path d="M-174 596C-176.209 596 -178 597.791 -178 600C-178 602.209 -176.209 604 -174 604V596ZM808 596L-174 596V604L808 604V596Z" fill="url(#paint12_linear_141_91)"></path>
      <path d="M-174 581C-176.209 581 -178 582.791 -178 585C-178 587.209 -176.209 589 -174 589V581ZM808 581L-174 581V589L808 589V581Z" fill="url(#paint13_linear_141_91)"></path>
      <path d="M-174 566C-176.209 566 -178 567.791 -178 570C-178 572.209 -176.209 574 -174 574V566ZM808 566L-174 566V574L808 574V566Z" fill="url(#paint14_linear_141_91)"></path>
      <path d="M-174 551C-176.209 551 -178 552.791 -178 555C-178 557.209 -176.209 559 -174 559V551ZM808 551L-174 551V559L808 559V551Z" fill="url(#paint15_linear_141_91)"></path>
      <path d="M-174 536C-176.209 536 -178 537.791 -178 540C-178 542.209 -176.209 544 -174 544V536ZM808 536L-174 536V544L808 544V536Z" fill="url(#paint16_linear_141_91)"></path>
      <path d="M-174 521C-176.209 521 -178 522.791 -178 525C-178 527.209 -176.209 529 -174 529V521ZM808 521L-174 521V529L808 529V521Z" fill="url(#paint17_linear_141_91)"></path>
      <path d="M-174 506C-176.209 506 -178 507.791 -178 510C-178 512.209 -176.209 514 -174 514V506ZM808 506L-174 506V514L808 514V506Z" fill="url(#paint18_linear_141_91)"></path>
      <path d="M-174 491C-176.209 491 -178 492.791 -178 495C-178 497.209 -176.209 499 -174 499V491ZM808 491L-174 491V499L808 499V491Z" fill="url(#paint19_linear_141_91)"></path>
      <path d="M-174 476C-176.209 476 -178 477.791 -178 480C-178 482.209 -176.209 484 -174 484V476ZM808 476L-174 476V484L808 484V476Z" fill="url(#paint20_linear_141_91)"></path>
      <path d="M-174 461C-176.209 461 -178 462.791 -178 465C-178 467.209 -176.209 469 -174 469V461ZM808 461L-174 461V469L808 469V461Z" fill="url(#paint21_linear_141_91)"></path>
      <path d="M-174 446C-176.209 446 -178 447.791 -178 450C-178 452.209 -176.209 454 -174 454V446ZM808 446L-174 446V454L808 454V446Z" fill="url(#paint22_linear_141_91)"></path>
      <path d="M-174 431C-176.209 431 -178 432.791 -178 435C-178 437.209 -176.209 439 -174 439V431ZM808 431L-174 431V439L808 439V431Z" fill="url(#paint23_linear_141_91)"></path>
      <path d="M-174 416C-176.209 416 -178 417.791 -178 420C-178 422.209 -176.209 424 -174 424V416ZM808 416L-174 416V424L808 424V416Z" fill="url(#paint24_linear_141_91)"></path>
      <path d="M-174 401C-176.209 401 -178 402.791 -178 405C-178 407.209 -176.209 409 -174 409V401ZM808 401L-174 401V409L808 409V401Z" fill="url(#paint25_linear_141_91)"></path>
      <path d="M-174 386C-176.209 386 -178 387.791 -178 390C-178 392.209 -176.209 394 -174 394V386ZM808 386L-174 386V394L808 394V386Z" fill="url(#paint26_linear_141_91)"></path>
      <path d="M-174 371C-176.209 371 -178 372.791 -178 375C-178 377.209 -176.209 379 -174 379V371ZM808 371L-174 371V379L808 379V371Z" fill="url(#paint27_linear_141_91)"></path>
      <path d="M-174 356C-176.209 356 -178 357.791 -178 360C-178 362.209 -176.209 364 -174 364V356ZM808 356L-174 356V364L808 364V356Z" fill="url(#paint28_linear_141_91)"></path>
      <path d="M-174 341C-176.209 341 -178 342.791 -178 345C-178 347.209 -176.209 349 -174 349V341ZM808 341L-174 341V349L808 349V341Z" fill="url(#paint29_linear_141_91)"></path>
      <path d="M-174 326C-176.209 326 -178 327.791 -178 330C-178 332.209 -176.209 334 -174 334V326ZM808 326L-174 326V334L808 334V326Z" fill="url(#paint30_linear_141_91)"></path>
      <path d="M-174 311C-176.209 311 -178 312.791 -178 315C-178 317.209 -176.209 319 -174 319V311ZM808 311L-174 311V319L808 319V311Z" fill="url(#paint31_linear_141_91)"></path>
      <path d="M-174 296C-176.209 296 -178 297.791 -178 300C-178 302.209 -176.209 304 -174 304V296ZM808 296L-174 296V304L808 304V296Z" fill="url(#paint32_linear_141_91)"></path>
      <path d="M-174 281C-176.209 281 -178 282.791 -178 285C-178 287.209 -176.209 289 -174 289V281ZM808 281L-174 281V289L808 289V281Z" fill="url(#paint33_linear_141_91)"></path>
      <path d="M-174 266C-176.209 266 -178 267.791 -178 270C-178 272.209 -176.209 274 -174 274V266ZM808 266L-174 266V274L808 274V266Z" fill="url(#paint34_linear_141_91)"></path>
      <path d="M-174 251C-176.209 251 -178 252.791 -178 255C-178 257.209 -176.209 259 -174 259V251ZM808 251L-174 251V259L808 259V251Z" fill="url(#paint35_linear_141_91)"></path>
      <path d="M-174 236C-176.209 236 -178 237.791 -178 240C-178 242.209 -176.209 244 -174 244V236ZM808 236L-174 236V244L808 244V236Z" fill="url(#paint36_linear_141_91)"></path>
      <path d="M-174 221C-176.209 221 -178 222.791 -178 225C-178 227.209 -176.209 229 -174 229V221ZM808 221L-174 221V229L808 229V221Z" fill="url(#paint37_linear_141_91)"></path>
      <path d="M-174 206C-176.209 206 -178 207.791 -178 210C-178 212.209 -176.209 214 -174 214V206ZM808 206L-174 206V214L808 214V206Z" fill="url(#paint38_linear_141_91)"></path>
      <path d="M-174 191C-176.209 191 -178 192.791 -178 195C-178 197.209 -176.209 199 -174 199V191ZM808 191L-174 191V199L808 199V191Z" fill="url(#paint39_linear_141_91)"></path>
      <path d="M-174 176C-176.209 176 -178 177.791 -178 180C-178 182.209 -176.209 184 -174 184V176ZM808 176L-174 176V184L808 184V176Z" fill="url(#paint40_linear_141_91)"></path>
      <path d="M-174 161C-176.209 161 -178 162.791 -178 165C-178 167.209 -176.209 169 -174 169V161ZM808 161L-174 161V169L808 169V161Z" fill="url(#paint41_linear_141_91)"></path>
      <path d="M-174 146C-176.209 146 -178 147.791 -178 150C-178 152.209 -176.209 154 -174 154V146ZM808 146L-174 146V154L808 154V146Z" fill="url(#paint42_linear_141_91)"></path>
      <path d="M-174 131C-176.209 131 -178 132.791 -178 135C-178 137.209 -176.209 139 -174 139V131ZM808 131L-174 131V139L808 139V131Z" fill="url(#paint43_linear_141_91)"></path>
      <path d="M-174 116C-176.209 116 -178 117.791 -178 120C-178 122.209 -176.209 124 -174 124V116ZM808 116L-174 116V124L808 124V116Z" fill="url(#paint44_linear_141_91)"></path>
      <path d="M-174 101C-176.209 101 -178 102.791 -178 105C-178 107.209 -176.209 109 -174 109V101ZM808 101L-174 101V109L808 109V101Z" fill="url(#paint45_linear_141_91)"></path>
      <path d="M-174 86C-176.209 86 -178 87.7909 -178 90C-178 92.2091 -176.209 94 -174 94V86ZM808 86L-174 86V94L808 94V86Z" fill="url(#paint46_linear_141_91)"></path>
      <path d="M-174 71C-176.209 71 -178 72.7909 -178 75C-178 77.2091 -176.209 79 -174 79V71ZM808 71L-174 71V79L808 79V71Z" fill="url(#paint47_linear_141_91)"></path>
      <path d="M-174 56C-176.209 56 -178 57.7909 -178 60C-178 62.2091 -176.209 64 -174 64V56ZM808 56L-174 56V64L808 64V56Z" fill="url(#paint48_linear_141_91)"></path>
      <path d="M-174 41C-176.209 41 -178 42.7909 -178 45C-178 47.2091 -176.209 49 -174 49V41ZM808 41L-174 41V49L808 49V41Z" fill="url(#paint49_linear_141_91)"></path>
      <path d="M-174 26C-176.209 26 -178 27.7909 -178 30C-178 32.2091 -176.209 34 -174 34V26ZM808 26L-174 26V34L808 34V26Z" fill="url(#paint50_linear_141_91)"></path>
      <path d="M-174 11C-176.209 11 -178 12.7909 -178 15C-178 17.2091 -176.209 19 -174 19V11ZM808 11L-174 11V19L808 19V11Z" fill="url(#paint51_linear_141_91)"></path>
      <path d="M-174 -4C-176.209 -4 -178 -2.20914 -178 0C-178 2.20914 -176.209 4 -174 4V-4ZM808 -4L-174 -4V4L808 4V-4Z" fill="url(#paint52_linear_141_91)"></path>
    </mask>
    <g mask="url(#mask0_141_91)">
      <path d="M-180.36 10.4785L731.042 10.4785L439.114 808.896H-180.36L-180.36 10.4785Z" fill="#1D1D1D"></path>
    </g>
    <circle cx="378.5" cy="359.5" r="129" fill="#101010" stroke="white" stroke-width="5"></circle>
    <mask id="path-56-outside-1_141_91" maskUnits="userSpaceOnUse" x="296" y="330" width="167" height="55" fill="black">
      <rect fill="white" x="296" y="330" width="167" height="55"></rect>
      <path d="M299.93 382C299.417 382 298.997 381.837 298.67 381.51C298.343 381.183 298.18 380.763 298.18 380.25V334.75C298.18 334.237 298.343 333.817 298.67 333.49C298.997 333.163 299.417 333 299.93 333H307.84C308.353 333 308.773 333.163 309.1 333.49C309.427 333.817 309.59 334.237 309.59 334.75V380.25C309.59 380.763 309.427 381.183 309.1 381.51C308.773 381.837 308.353 382 307.84 382H299.93ZM321.668 382C321.155 382 320.735 381.837 320.408 381.51C320.082 381.183 319.918 380.763 319.918 380.25V334.75C319.918 334.237 320.082 333.817 320.408 333.49C320.735 333.163 321.155 333 321.668 333H328.038C328.738 333 329.252 333.163 329.578 333.49C329.905 333.817 330.115 334.073 330.208 334.26L348.898 363.45V334.75C348.898 334.237 349.062 333.817 349.388 333.49C349.715 333.163 350.112 333 350.578 333H357.718C358.232 333 358.652 333.163 358.978 333.49C359.305 333.817 359.468 334.237 359.468 334.75V380.25C359.468 380.717 359.305 381.137 358.978 381.51C358.652 381.837 358.232 382 357.718 382H351.278C350.578 382 350.065 381.837 349.738 381.51C349.458 381.137 349.248 380.88 349.108 380.74L330.488 352.46V380.25C330.488 380.763 330.325 381.183 329.998 381.51C329.672 381.837 329.252 382 328.738 382H321.668ZM389.491 382.7C385.104 382.7 381.347 381.977 378.221 380.53C375.141 379.037 372.737 376.89 371.011 374.09C369.331 371.243 368.421 367.813 368.281 363.8C368.234 361.793 368.211 359.647 368.211 357.36C368.211 355.073 368.234 352.903 368.281 350.85C368.421 346.93 369.331 343.593 371.011 340.84C372.737 338.087 375.164 335.987 378.291 334.54C381.464 333.047 385.197 332.3 389.491 332.3C392.944 332.3 395.977 332.743 398.591 333.63C401.204 334.517 403.397 335.683 405.171 337.13C406.944 338.53 408.297 340.07 409.231 341.75C410.164 343.43 410.654 345.04 410.701 346.58C410.701 347 410.561 347.373 410.281 347.7C410.001 347.98 409.627 348.12 409.161 348.12H400.481C400.014 348.12 399.641 348.027 399.361 347.84C399.127 347.653 398.917 347.373 398.731 347C398.404 346.16 397.867 345.32 397.121 344.48C396.421 343.593 395.464 342.847 394.251 342.24C393.037 341.633 391.451 341.33 389.491 341.33C386.551 341.33 384.217 342.1 382.491 343.64C380.811 345.18 379.901 347.7 379.761 351.2C379.621 355.213 379.621 359.297 379.761 363.45C379.901 367.09 380.834 369.703 382.561 371.29C384.334 372.877 386.691 373.67 389.631 373.67C391.544 373.67 393.247 373.343 394.741 372.69C396.281 371.99 397.494 370.917 398.381 369.47C399.267 368.023 399.711 366.18 399.711 363.94V362.19H392.081C391.614 362.19 391.217 362.027 390.891 361.7C390.564 361.327 390.401 360.907 390.401 360.44V355.96C390.401 355.447 390.564 355.027 390.891 354.7C391.217 354.373 391.614 354.21 392.081 354.21H409.231C409.744 354.21 410.164 354.373 410.491 354.7C410.817 355.027 410.981 355.447 410.981 355.96V363.59C410.981 367.603 410.094 371.033 408.321 373.88C406.594 376.727 404.097 378.92 400.831 380.46C397.611 381.953 393.831 382.7 389.491 382.7ZM438.978 382.7C434.591 382.7 430.858 381.977 427.778 380.53C424.745 379.037 422.388 376.89 420.708 374.09C419.028 371.243 418.095 367.79 417.908 363.73C417.861 361.817 417.838 359.763 417.838 357.57C417.838 355.377 417.861 353.277 417.908 351.27C418.095 347.257 419.028 343.85 420.708 341.05C422.435 338.203 424.838 336.033 427.918 334.54C430.998 333.047 434.685 332.3 438.978 332.3C442.105 332.3 444.951 332.697 447.518 333.49C450.085 334.283 452.301 335.427 454.168 336.92C456.035 338.413 457.481 340.163 458.508 342.17C459.535 344.177 460.095 346.417 460.188 348.89C460.188 349.31 460.025 349.66 459.698 349.94C459.418 350.22 459.068 350.36 458.648 350.36H450.668C450.108 350.36 449.665 350.22 449.338 349.94C449.011 349.66 448.755 349.193 448.568 348.54C447.868 345.787 446.701 343.897 445.068 342.87C443.435 341.843 441.405 341.33 438.978 341.33C436.085 341.33 433.798 342.123 432.118 343.71C430.438 345.297 429.528 347.933 429.388 351.62C429.248 355.447 429.248 359.367 429.388 363.38C429.528 367.067 430.438 369.703 432.118 371.29C433.798 372.877 436.085 373.67 438.978 373.67C441.405 373.67 443.435 373.157 445.068 372.13C446.748 371.057 447.915 369.167 448.568 366.46C448.755 365.76 449.011 365.293 449.338 365.06C449.665 364.78 450.108 364.64 450.668 364.64H458.648C459.068 364.64 459.418 364.78 459.698 365.06C460.025 365.34 460.188 365.69 460.188 366.11C460.095 368.583 459.535 370.823 458.508 372.83C457.481 374.837 456.035 376.587 454.168 378.08C452.301 379.573 450.085 380.717 447.518 381.51C444.951 382.303 442.105 382.7 438.978 382.7Z"></path>
    </mask>
    <path d="M299.93 382C299.417 382 298.997 381.837 298.67 381.51C298.343 381.183 298.18 380.763 298.18 380.25V334.75C298.18 334.237 298.343 333.817 298.67 333.49C298.997 333.163 299.417 333 299.93 333H307.84C308.353 333 308.773 333.163 309.1 333.49C309.427 333.817 309.59 334.237 309.59 334.75V380.25C309.59 380.763 309.427 381.183 309.1 381.51C308.773 381.837 308.353 382 307.84 382H299.93ZM321.668 382C321.155 382 320.735 381.837 320.408 381.51C320.082 381.183 319.918 380.763 319.918 380.25V334.75C319.918 334.237 320.082 333.817 320.408 333.49C320.735 333.163 321.155 333 321.668 333H328.038C328.738 333 329.252 333.163 329.578 333.49C329.905 333.817 330.115 334.073 330.208 334.26L348.898 363.45V334.75C348.898 334.237 349.062 333.817 349.388 333.49C349.715 333.163 350.112 333 350.578 333H357.718C358.232 333 358.652 333.163 358.978 333.49C359.305 333.817 359.468 334.237 359.468 334.75V380.25C359.468 380.717 359.305 381.137 358.978 381.51C358.652 381.837 358.232 382 357.718 382H351.278C350.578 382 350.065 381.837 349.738 381.51C349.458 381.137 349.248 380.88 349.108 380.74L330.488 352.46V380.25C330.488 380.763 330.325 381.183 329.998 381.51C329.672 381.837 329.252 382 328.738 382H321.668ZM389.491 382.7C385.104 382.7 381.347 381.977 378.221 380.53C375.141 379.037 372.737 376.89 371.011 374.09C369.331 371.243 368.421 367.813 368.281 363.8C368.234 361.793 368.211 359.647 368.211 357.36C368.211 355.073 368.234 352.903 368.281 350.85C368.421 346.93 369.331 343.593 371.011 340.84C372.737 338.087 375.164 335.987 378.291 334.54C381.464 333.047 385.197 332.3 389.491 332.3C392.944 332.3 395.977 332.743 398.591 333.63C401.204 334.517 403.397 335.683 405.171 337.13C406.944 338.53 408.297 340.07 409.231 341.75C410.164 343.43 410.654 345.04 410.701 346.58C410.701 347 410.561 347.373 410.281 347.7C410.001 347.98 409.627 348.12 409.161 348.12H400.481C400.014 348.12 399.641 348.027 399.361 347.84C399.127 347.653 398.917 347.373 398.731 347C398.404 346.16 397.867 345.32 397.121 344.48C396.421 343.593 395.464 342.847 394.251 342.24C393.037 341.633 391.451 341.33 389.491 341.33C386.551 341.33 384.217 342.1 382.491 343.64C380.811 345.18 379.901 347.7 379.761 351.2C379.621 355.213 379.621 359.297 379.761 363.45C379.901 367.09 380.834 369.703 382.561 371.29C384.334 372.877 386.691 373.67 389.631 373.67C391.544 373.67 393.247 373.343 394.741 372.69C396.281 371.99 397.494 370.917 398.381 369.47C399.267 368.023 399.711 366.18 399.711 363.94V362.19H392.081C391.614 362.19 391.217 362.027 390.891 361.7C390.564 361.327 390.401 360.907 390.401 360.44V355.96C390.401 355.447 390.564 355.027 390.891 354.7C391.217 354.373 391.614 354.21 392.081 354.21H409.231C409.744 354.21 410.164 354.373 410.491 354.7C410.817 355.027 410.981 355.447 410.981 355.96V363.59C410.981 367.603 410.094 371.033 408.321 373.88C406.594 376.727 404.097 378.92 400.831 380.46C397.611 381.953 393.831 382.7 389.491 382.7ZM438.978 382.7C434.591 382.7 430.858 381.977 427.778 380.53C424.745 379.037 422.388 376.89 420.708 374.09C419.028 371.243 418.095 367.79 417.908 363.73C417.861 361.817 417.838 359.763 417.838 357.57C417.838 355.377 417.861 353.277 417.908 351.27C418.095 347.257 419.028 343.85 420.708 341.05C422.435 338.203 424.838 336.033 427.918 334.54C430.998 333.047 434.685 332.3 438.978 332.3C442.105 332.3 444.951 332.697 447.518 333.49C450.085 334.283 452.301 335.427 454.168 336.92C456.035 338.413 457.481 340.163 458.508 342.17C459.535 344.177 460.095 346.417 460.188 348.89C460.188 349.31 460.025 349.66 459.698 349.94C459.418 350.22 459.068 350.36 458.648 350.36H450.668C450.108 350.36 449.665 350.22 449.338 349.94C449.011 349.66 448.755 349.193 448.568 348.54C447.868 345.787 446.701 343.897 445.068 342.87C443.435 341.843 441.405 341.33 438.978 341.33C436.085 341.33 433.798 342.123 432.118 343.71C430.438 345.297 429.528 347.933 429.388 351.62C429.248 355.447 429.248 359.367 429.388 363.38C429.528 367.067 430.438 369.703 432.118 371.29C433.798 372.877 436.085 373.67 438.978 373.67C441.405 373.67 443.435 373.157 445.068 372.13C446.748 371.057 447.915 369.167 448.568 366.46C448.755 365.76 449.011 365.293 449.338 365.06C449.665 364.78 450.108 364.64 450.668 364.64H458.648C459.068 364.64 459.418 364.78 459.698 365.06C460.025 365.34 460.188 365.69 460.188 366.11C460.095 368.583 459.535 370.823 458.508 372.83C457.481 374.837 456.035 376.587 454.168 378.08C452.301 379.573 450.085 380.717 447.518 381.51C444.951 382.303 442.105 382.7 438.978 382.7Z" fill="white"></path>
    <path d="M298.67 381.51L297.256 382.924L297.256 382.924L298.67 381.51ZM298.67 333.49L300.084 334.904L300.084 334.904L298.67 333.49ZM309.1 333.49L307.686 334.904L307.686 334.904L309.1 333.49ZM309.1 381.51L307.686 380.096L307.686 380.096L309.1 381.51ZM299.93 380C299.887 380 299.904 379.994 299.955 380.013C299.979 380.023 300.005 380.036 300.03 380.052C300.055 380.068 300.073 380.084 300.084 380.096L297.256 382.924C298.001 383.669 298.951 384 299.93 384V380ZM300.084 380.096C300.096 380.107 300.112 380.125 300.128 380.15C300.144 380.175 300.157 380.201 300.167 380.225C300.186 380.276 300.18 380.293 300.18 380.25H296.18C296.18 381.229 296.511 382.179 297.256 382.924L300.084 380.096ZM300.18 380.25V334.75H296.18V380.25H300.18ZM300.18 334.75C300.18 334.707 300.186 334.724 300.167 334.775C300.157 334.799 300.144 334.825 300.128 334.85C300.112 334.875 300.096 334.893 300.084 334.904L297.256 332.076C296.511 332.821 296.18 333.771 296.18 334.75H300.18ZM300.084 334.904C300.073 334.916 300.055 334.932 300.03 334.948C300.005 334.964 299.979 334.977 299.955 334.987C299.904 335.006 299.887 335 299.93 335V331C298.951 331 298.001 331.331 297.256 332.076L300.084 334.904ZM299.93 335H307.84V331H299.93V335ZM307.84 335C307.883 335 307.866 335.006 307.815 334.987C307.791 334.977 307.765 334.964 307.74 334.948C307.715 334.932 307.697 334.916 307.686 334.904L310.514 332.076C309.769 331.331 308.819 331 307.84 331V335ZM307.686 334.904C307.674 334.893 307.658 334.875 307.642 334.85C307.626 334.825 307.613 334.799 307.603 334.775C307.584 334.724 307.59 334.707 307.59 334.75H311.59C311.59 333.771 311.259 332.821 310.514 332.076L307.686 334.904ZM307.59 334.75V380.25H311.59V334.75H307.59ZM307.59 380.25C307.59 380.293 307.584 380.276 307.603 380.225C307.613 380.201 307.626 380.175 307.642 380.15C307.658 380.125 307.674 380.107 307.686 380.096L310.514 382.924C311.259 382.179 311.59 381.229 311.59 380.25H307.59ZM307.686 380.096C307.697 380.084 307.715 380.068 307.74 380.052C307.765 380.036 307.791 380.023 307.815 380.013C307.866 379.994 307.883 380 307.84 380V384C308.819 384 309.769 383.669 310.514 382.924L307.686 380.096ZM307.84 380H299.93V384H307.84V380ZM320.408 381.51L318.994 382.924L318.994 382.924L320.408 381.51ZM320.408 333.49L321.822 334.904L321.822 334.904L320.408 333.49ZM329.578 333.49L328.164 334.904L328.164 334.904L329.578 333.49ZM330.208 334.26L328.419 335.154L328.467 335.249L328.524 335.338L330.208 334.26ZM348.898 363.45L347.214 364.528L350.898 370.283V363.45H348.898ZM349.388 333.49L350.802 334.904L350.803 334.904L349.388 333.49ZM358.978 333.49L357.564 334.904L357.564 334.904L358.978 333.49ZM358.978 381.51L360.392 382.924L360.44 382.877L360.483 382.827L358.978 381.51ZM349.738 381.51L348.138 382.71L348.224 382.824L348.324 382.924L349.738 381.51ZM349.108 380.74L347.438 381.84L347.55 382.01L347.694 382.154L349.108 380.74ZM330.488 352.46L332.159 351.36L328.488 345.786V352.46H330.488ZM321.668 380C321.625 380 321.642 379.994 321.693 380.013C321.717 380.023 321.743 380.036 321.768 380.052C321.793 380.068 321.811 380.084 321.822 380.096L318.994 382.924C319.739 383.669 320.689 384 321.668 384V380ZM321.822 380.096C321.834 380.107 321.85 380.125 321.866 380.15C321.882 380.175 321.895 380.201 321.905 380.225C321.925 380.276 321.918 380.293 321.918 380.25H317.918C317.918 381.229 318.249 382.179 318.994 382.924L321.822 380.096ZM321.918 380.25V334.75H317.918V380.25H321.918ZM321.918 334.75C321.918 334.707 321.925 334.724 321.905 334.775C321.895 334.799 321.882 334.825 321.866 334.85C321.85 334.875 321.834 334.893 321.822 334.904L318.994 332.076C318.249 332.821 317.918 333.771 317.918 334.75H321.918ZM321.822 334.904C321.811 334.916 321.793 334.932 321.768 334.948C321.743 334.964 321.717 334.977 321.693 334.987C321.642 335.006 321.625 335 321.668 335V331C320.689 331 319.739 331.331 318.994 332.076L321.822 334.904ZM321.668 335H328.038V331H321.668V335ZM328.038 335C328.136 335 328.21 335.006 328.261 335.013C328.313 335.02 328.338 335.027 328.342 335.028C328.345 335.029 328.325 335.023 328.291 335.003C328.255 334.982 328.21 334.95 328.164 334.904L330.992 332.076C330.136 331.219 329 331 328.038 331V335ZM328.164 334.904C328.297 335.037 328.383 335.133 328.433 335.194C328.457 335.224 328.467 335.237 328.466 335.236C328.465 335.235 328.46 335.228 328.453 335.216C328.445 335.203 328.434 335.183 328.419 335.154L331.997 333.366C331.748 332.867 331.332 332.416 330.992 332.076L328.164 334.904ZM328.524 335.338L347.214 364.528L350.583 362.372L331.893 333.182L328.524 335.338ZM350.898 363.45V334.75H346.898V363.45H350.898ZM350.898 334.75C350.898 334.707 350.905 334.724 350.885 334.775C350.875 334.799 350.862 334.825 350.846 334.85C350.83 334.875 350.814 334.893 350.802 334.904L347.974 332.076C347.229 332.821 346.898 333.771 346.898 334.75H350.898ZM350.803 334.904C350.794 334.913 350.756 334.945 350.692 334.972C350.629 334.998 350.583 335 350.578 335V331C349.587 331 348.68 331.37 347.974 332.076L350.803 334.904ZM350.578 335H357.718V331H350.578V335ZM357.718 335C357.761 335 357.744 335.006 357.693 334.987C357.669 334.977 357.643 334.964 357.618 334.948C357.594 334.932 357.576 334.916 357.564 334.904L360.392 332.076C359.647 331.331 358.697 331 357.718 331V335ZM357.564 334.904C357.553 334.893 357.537 334.875 357.521 334.85C357.504 334.825 357.491 334.799 357.482 334.775C357.462 334.724 357.468 334.707 357.468 334.75H361.468C361.468 333.771 361.138 332.821 360.392 332.076L357.564 334.904ZM357.468 334.75V380.25H361.468V334.75H357.468ZM357.468 380.25C357.468 380.249 357.468 380.242 357.471 380.229C357.473 380.216 357.477 380.202 357.482 380.19C357.487 380.178 357.491 380.171 357.491 380.17C357.491 380.17 357.487 380.177 357.473 380.193L360.483 382.827C361.107 382.114 361.468 381.233 361.468 380.25H357.468ZM357.564 380.096C357.576 380.084 357.594 380.068 357.618 380.052C357.643 380.036 357.669 380.023 357.693 380.013C357.744 379.994 357.761 380 357.718 380V384C358.697 384 359.647 383.669 360.392 382.924L357.564 380.096ZM357.718 380H351.278V384H357.718V380ZM351.278 380C351.18 380 351.107 379.994 351.055 379.987C351.003 379.98 350.978 379.973 350.975 379.972C350.971 379.971 350.991 379.977 351.026 379.997C351.062 380.018 351.106 380.05 351.152 380.096L348.324 382.924C349.181 383.781 350.317 384 351.278 384V380ZM351.338 380.31C351.057 379.935 350.773 379.576 350.522 379.326L347.694 382.154C347.692 382.152 347.702 382.162 347.727 382.19C347.751 382.217 347.782 382.254 347.823 382.304C347.905 382.404 348.009 382.538 348.138 382.71L351.338 380.31ZM350.779 379.64L332.159 351.36L328.818 353.56L347.438 381.84L350.779 379.64ZM328.488 352.46V380.25H332.488V352.46H328.488ZM328.488 380.25C328.488 380.293 328.482 380.276 328.502 380.225C328.511 380.201 328.524 380.175 328.541 380.15C328.557 380.125 328.573 380.107 328.584 380.096L331.412 382.924C332.158 382.179 332.488 381.229 332.488 380.25H328.488ZM328.584 380.096C328.596 380.084 328.614 380.068 328.638 380.052C328.663 380.036 328.689 380.023 328.713 380.013C328.764 379.994 328.781 380 328.738 380V384C329.717 384 330.667 383.669 331.412 382.924L328.584 380.096ZM328.738 380H321.668V384H328.738V380ZM378.221 380.53L377.348 382.33L377.364 382.338L377.381 382.345L378.221 380.53ZM371.011 374.09L369.288 375.107L369.298 375.123L369.308 375.14L371.011 374.09ZM368.281 363.8L366.281 363.846L366.281 363.858L366.282 363.87L368.281 363.8ZM368.281 350.85L366.282 350.779L366.281 350.792L366.281 350.805L368.281 350.85ZM371.011 340.84L369.316 339.777L369.31 339.788L369.303 339.798L371.011 340.84ZM378.291 334.54L379.13 336.355L379.142 336.35L378.291 334.54ZM398.591 333.63L397.948 335.524L398.591 333.63ZM405.171 337.13L403.906 338.68L403.919 338.69L403.931 338.7L405.171 337.13ZM409.231 341.75L410.979 340.779L410.979 340.779L409.231 341.75ZM410.701 346.58H412.701V346.55L412.7 346.519L410.701 346.58ZM410.281 347.7L411.695 349.114L411.749 349.06L411.799 349.002L410.281 347.7ZM399.361 347.84L398.111 349.402L398.179 349.456L398.251 349.504L399.361 347.84ZM398.731 347L396.867 347.725L396.9 347.811L396.942 347.894L398.731 347ZM397.121 344.48L395.551 345.719L395.587 345.765L395.626 345.809L397.121 344.48ZM394.251 342.24L393.356 344.029L393.356 344.029L394.251 342.24ZM382.491 343.64L381.159 342.147L381.149 342.156L381.139 342.166L382.491 343.64ZM379.761 351.2L377.762 351.12L377.762 351.13L379.761 351.2ZM379.761 363.45L377.762 363.517L377.762 363.527L379.761 363.45ZM382.561 371.29L381.207 372.763L381.217 372.772L381.227 372.78L382.561 371.29ZM394.741 372.69L395.542 374.522L395.555 374.517L395.568 374.511L394.741 372.69ZM398.381 369.47L396.675 368.425L396.675 368.425L398.381 369.47ZM399.711 362.19H401.711V360.19H399.711V362.19ZM390.891 361.7L389.385 363.017L389.429 363.067L389.476 363.114L390.891 361.7ZM408.321 373.88L406.623 372.823L406.617 372.833L406.611 372.843L408.321 373.88ZM400.831 380.46L401.672 382.274L401.683 382.269L400.831 380.46ZM389.491 380.7C385.317 380.7 381.862 380.011 379.06 378.715L377.381 382.345C380.832 383.942 384.89 384.7 389.491 384.7V380.7ZM379.093 378.73C376.341 377.396 374.232 375.503 372.713 373.04L369.308 375.14C371.243 378.277 373.94 380.677 377.348 382.33L379.093 378.73ZM372.733 373.073C371.256 370.57 370.41 367.481 370.279 363.73L366.282 363.87C366.431 368.146 367.406 371.917 369.288 375.107L372.733 373.073ZM370.28 363.753C370.234 361.764 370.211 359.633 370.211 357.36H366.211C366.211 359.66 366.234 361.822 366.281 363.846L370.28 363.753ZM370.211 357.36C370.211 355.087 370.234 352.932 370.28 350.895L366.281 350.805C366.234 352.875 366.211 355.06 366.211 357.36H370.211ZM370.279 350.921C370.41 347.271 371.252 344.285 372.718 341.882L369.303 339.798C367.41 342.902 366.432 346.589 366.282 350.779L370.279 350.921ZM372.705 341.903C374.213 339.498 376.333 337.649 379.13 336.355L377.451 332.725C373.995 334.324 371.261 336.676 369.316 339.777L372.705 341.903ZM379.142 336.35C381.996 335.007 385.427 334.3 389.491 334.3V330.3C384.968 330.3 380.932 331.087 377.439 332.73L379.142 336.35ZM389.491 334.3C392.778 334.3 395.586 334.723 397.948 335.524L399.233 331.736C396.368 330.764 393.11 330.3 389.491 330.3V334.3ZM397.948 335.524C400.38 336.349 402.352 337.411 403.906 338.68L406.435 335.58C404.443 333.955 402.027 332.684 399.233 331.736L397.948 335.524ZM403.931 338.7C405.533 339.964 406.698 341.309 407.482 342.721L410.979 340.779C409.897 338.831 408.355 337.096 406.41 335.56L403.931 338.7ZM407.482 342.721C408.298 344.19 408.667 345.489 408.702 346.641L412.7 346.519C412.641 344.591 412.03 342.67 410.979 340.779L407.482 342.721ZM408.701 346.58C408.701 346.563 408.704 346.522 408.723 346.473C408.732 346.45 408.741 346.431 408.749 346.417C408.758 346.404 408.763 346.397 408.762 346.398L411.799 349.002C412.382 348.322 412.701 347.49 412.701 346.58H408.701ZM408.866 346.286C408.93 346.222 409.01 346.172 409.088 346.142C409.161 346.115 409.194 346.12 409.161 346.12V350.12C410.056 350.12 410.973 349.836 411.695 349.114L408.866 346.286ZM409.161 346.12H400.481V350.12H409.161V346.12ZM400.481 346.12C400.43 346.12 400.394 346.117 400.369 346.115C400.344 346.112 400.334 346.109 400.336 346.11C400.34 346.111 400.394 346.125 400.47 346.176L398.251 349.504C398.964 349.979 399.767 350.12 400.481 350.12V346.12ZM400.61 346.278C400.645 346.306 400.649 346.318 400.628 346.29C400.607 346.262 400.569 346.205 400.519 346.106L396.942 347.894C397.21 348.431 397.581 348.977 398.111 349.402L400.61 346.278ZM400.595 346.275C400.163 345.166 399.483 344.127 398.615 343.151L395.626 345.809C396.252 346.513 396.644 347.154 396.867 347.725L400.595 346.275ZM398.69 343.241C397.775 342.082 396.569 341.163 395.145 340.451L393.356 344.029C394.359 344.53 395.066 345.105 395.551 345.719L398.69 343.241ZM395.145 340.451C393.558 339.658 391.633 339.33 389.491 339.33V343.33C391.268 343.33 392.516 343.609 393.356 344.029L395.145 340.451ZM389.491 339.33C386.197 339.33 383.343 340.2 381.159 342.147L383.822 345.133C385.091 344 386.904 343.33 389.491 343.33V339.33ZM381.139 342.166C378.899 344.219 377.912 347.368 377.762 351.12L381.759 351.28C381.889 348.032 382.722 346.141 383.842 345.114L381.139 342.166ZM377.762 351.13C377.62 355.191 377.62 359.32 377.762 363.517L381.759 363.383C381.621 359.273 381.621 355.236 381.759 351.27L377.762 351.13ZM377.762 363.527C377.912 367.412 378.918 370.659 381.207 372.763L383.914 369.817C382.75 368.748 381.89 366.768 381.759 363.373L377.762 363.527ZM381.227 372.78C383.448 374.768 386.319 375.67 389.631 375.67V371.67C387.062 371.67 385.22 370.986 383.894 369.8L381.227 372.78ZM389.631 375.67C391.772 375.67 393.756 375.304 395.542 374.522L393.939 370.858C392.739 371.383 391.315 371.67 389.631 371.67V375.67ZM395.568 374.511C397.473 373.645 398.991 372.301 400.086 370.515L396.675 368.425C395.997 369.532 395.088 370.335 393.913 370.869L395.568 374.511ZM400.086 370.515C401.218 368.668 401.711 366.434 401.711 363.94H397.711C397.711 365.926 397.317 367.378 396.675 368.425L400.086 370.515ZM401.711 363.94V362.19H397.711V363.94H401.711ZM399.711 360.19H392.081V364.19H399.711V360.19ZM392.081 360.19C392.085 360.19 392.131 360.192 392.195 360.218C392.259 360.245 392.296 360.277 392.305 360.286L389.476 363.114C390.182 363.82 391.09 364.19 392.081 364.19V360.19ZM392.396 360.383C392.382 360.367 392.378 360.36 392.378 360.36C392.378 360.361 392.382 360.368 392.387 360.38C392.392 360.392 392.396 360.406 392.398 360.419C392.399 360.425 392.4 360.43 392.4 360.434C392.4 360.436 392.401 360.437 392.401 360.438C392.401 360.439 392.401 360.439 392.401 360.44C392.401 360.44 392.401 360.44 392.401 360.44C392.401 360.44 392.401 360.44 392.401 360.44C392.401 360.44 392.401 360.44 392.401 360.44H388.401C388.401 361.423 388.762 362.304 389.385 363.017L392.396 360.383ZM392.401 360.44V355.96H388.401V360.44H392.401ZM392.401 355.96C392.401 355.917 392.407 355.934 392.387 355.985C392.378 356.009 392.365 356.035 392.348 356.06C392.332 356.085 392.316 356.103 392.305 356.114L389.476 353.286C388.731 354.031 388.401 354.981 388.401 355.96H392.401ZM392.305 356.114C392.296 356.123 392.259 356.155 392.195 356.182C392.131 356.208 392.085 356.21 392.081 356.21V352.21C391.09 352.21 390.182 352.58 389.476 353.286L392.305 356.114ZM392.081 356.21H409.231V352.21H392.081V356.21ZM409.231 356.21C409.273 356.21 409.257 356.216 409.206 356.197C409.181 356.187 409.156 356.174 409.131 356.158C409.106 356.142 409.088 356.126 409.076 356.114L411.905 353.286C411.16 352.541 410.21 352.21 409.231 352.21V356.21ZM409.076 356.114C409.065 356.103 409.049 356.085 409.033 356.06C409.017 356.035 409.004 356.009 408.994 355.985C408.974 355.934 408.981 355.917 408.981 355.96H412.981C412.981 354.981 412.65 354.031 411.905 353.286L409.076 356.114ZM408.981 355.96V363.59H412.981V355.96H408.981ZM408.981 363.59C408.981 367.304 408.163 370.351 406.623 372.823L410.018 374.937C412.025 371.716 412.981 367.903 412.981 363.59H408.981ZM406.611 372.843C405.105 375.325 402.921 377.264 399.978 378.651L401.683 382.269C405.274 380.576 408.083 378.128 410.031 374.917L406.611 372.843ZM399.989 378.646C397.085 379.993 393.603 380.7 389.491 380.7V384.7C394.058 384.7 398.136 383.914 401.672 382.274L399.989 378.646ZM427.778 380.53L426.895 382.324L426.911 382.332L426.928 382.34L427.778 380.53ZM420.708 374.09L418.985 375.107L418.989 375.113L418.993 375.119L420.708 374.09ZM417.908 363.73L415.908 363.779L415.909 363.8L415.91 363.822L417.908 363.73ZM417.908 351.27L415.91 351.177L415.909 351.2L415.908 351.224L417.908 351.27ZM420.708 341.05L418.998 340.013L418.993 340.021L420.708 341.05ZM427.918 334.54L427.045 332.74L427.045 332.74L427.918 334.54ZM447.518 333.49L446.927 335.401L446.927 335.401L447.518 333.49ZM454.168 336.92L452.919 338.482L452.919 338.482L454.168 336.92ZM458.508 342.17L456.727 343.081L456.727 343.081L458.508 342.17ZM460.188 348.89H462.188V348.852L462.186 348.815L460.188 348.89ZM459.698 349.94L458.396 348.421L458.338 348.471L458.284 348.526L459.698 349.94ZM449.338 349.94L448.036 351.459L448.036 351.459L449.338 349.94ZM448.568 348.54L446.63 349.033L446.637 349.061L446.645 349.089L448.568 348.54ZM445.068 342.87L444.004 344.563L444.004 344.563L445.068 342.87ZM432.118 343.71L430.745 342.256L430.745 342.256L432.118 343.71ZM429.388 351.62L427.389 351.544L427.389 351.547L429.388 351.62ZM429.388 363.38L427.389 363.45L427.389 363.456L429.388 363.38ZM432.118 371.29L433.491 369.836L432.118 371.29ZM445.068 372.13L446.132 373.823L446.138 373.819L446.145 373.815L445.068 372.13ZM448.568 366.46L446.635 365.945L446.629 365.968L446.624 365.991L448.568 366.46ZM449.338 365.06L450.5 366.687L450.572 366.636L450.639 366.579L449.338 365.06ZM459.698 365.06L458.284 366.474L458.338 366.529L458.396 366.579L459.698 365.06ZM460.188 366.11L462.186 366.185L462.188 366.148V366.11H460.188ZM458.508 372.83L456.727 371.919L456.727 371.919L458.508 372.83ZM454.168 378.08L452.919 376.518L452.919 376.518L454.168 378.08ZM447.518 381.51L446.927 379.599L447.518 381.51ZM438.978 380.7C434.803 380.7 431.377 380.011 428.628 378.72L426.928 382.34C430.339 383.943 434.379 384.7 438.978 384.7V380.7ZM428.661 378.736C425.96 377.406 423.898 375.519 422.423 373.061L418.993 375.119C420.878 378.261 423.529 380.667 426.895 382.324L428.661 378.736ZM422.43 373.073C420.95 370.565 420.081 367.446 419.906 363.638L415.91 363.822C416.108 368.134 417.106 371.921 418.985 375.107L422.43 373.073ZM419.907 363.681C419.861 361.786 419.838 359.749 419.838 357.57H415.838C415.838 359.777 415.861 361.847 415.908 363.779L419.907 363.681ZM419.838 357.57C419.838 355.391 419.861 353.306 419.907 351.316L415.908 351.224C415.861 353.247 415.838 355.363 415.838 357.57H419.838ZM419.906 351.363C420.081 347.605 420.948 344.537 422.423 342.079L418.993 340.021C417.108 343.163 416.109 346.908 415.91 351.177L419.906 351.363ZM422.418 342.087C423.939 339.58 426.047 337.67 428.79 336.34L427.045 332.74C423.629 334.397 420.93 336.827 418.998 340.013L422.418 342.087ZM428.79 336.34C431.538 335.007 434.912 334.3 438.978 334.3V330.3C434.457 330.3 430.457 331.086 427.045 332.74L428.79 336.34ZM438.978 334.3C441.936 334.3 444.58 334.675 446.927 335.401L448.109 331.579C445.322 330.718 442.273 330.3 438.978 330.3V334.3ZM446.927 335.401C449.284 336.129 451.27 337.163 452.919 338.482L455.417 335.358C453.332 333.69 450.885 332.437 448.109 331.579L446.927 335.401ZM452.919 338.482C454.578 339.809 455.837 341.341 456.727 343.081L460.288 341.259C459.125 338.985 457.491 337.018 455.417 335.358L452.919 338.482ZM456.727 343.081C457.609 344.804 458.106 346.754 458.189 348.965L462.186 348.815C462.083 346.079 461.46 343.55 460.288 341.259L456.727 343.081ZM458.188 348.89C458.188 348.834 458.201 348.734 458.253 348.622C458.305 348.511 458.368 348.446 458.396 348.421L460.999 351.459C461.757 350.809 462.188 349.91 462.188 348.89H458.188ZM458.284 348.526C458.325 348.484 458.394 348.434 458.483 348.398C458.569 348.363 458.632 348.36 458.648 348.36V352.36C459.563 352.36 460.433 352.034 461.112 351.354L458.284 348.526ZM458.648 348.36H450.668V352.36H458.648V348.36ZM450.668 348.36C450.552 348.36 450.509 348.345 450.518 348.348C450.523 348.349 450.539 348.355 450.562 348.368C450.586 348.381 450.613 348.399 450.639 348.421L448.036 351.459C448.823 352.133 449.777 352.36 450.668 352.36V348.36ZM450.639 348.421C450.696 348.47 450.692 348.487 450.653 348.416C450.613 348.344 450.554 348.211 450.491 347.991L446.645 349.089C446.882 349.919 447.286 350.815 448.036 351.459L450.639 348.421ZM450.506 348.047C449.739 345.029 448.368 342.582 446.132 341.177L444.004 344.563C445.035 345.211 445.997 346.545 446.63 349.033L450.506 348.047ZM446.132 341.177C444.107 339.904 441.685 339.33 438.978 339.33V343.33C441.124 343.33 442.762 343.783 444.004 344.563L446.132 341.177ZM438.978 339.33C435.709 339.33 432.883 340.236 430.745 342.256L433.491 345.164C434.712 344.011 436.461 343.33 438.978 343.33V339.33ZM430.745 342.256C428.51 344.366 427.538 347.634 427.389 351.544L431.386 351.696C431.518 348.233 432.365 346.227 433.491 345.164L430.745 342.256ZM427.389 351.547C427.247 355.423 427.248 359.391 427.389 363.45L431.387 363.31C431.248 359.342 431.248 355.47 431.387 351.693L427.389 351.547ZM427.389 363.456C427.538 367.366 428.51 370.634 430.745 372.744L433.491 369.836C432.365 368.773 431.518 366.767 431.386 363.304L427.389 363.456ZM430.745 372.744C432.883 374.764 435.709 375.67 438.978 375.67V371.67C436.461 371.67 434.712 370.989 433.491 369.836L430.745 372.744ZM438.978 375.67C441.685 375.67 444.107 375.096 446.132 373.823L444.004 370.437C442.762 371.217 441.124 371.67 438.978 371.67V375.67ZM446.145 373.815C448.408 372.37 449.786 369.937 450.512 366.929L446.624 365.991C446.043 368.396 445.088 369.744 443.991 370.445L446.145 373.815ZM450.5 366.975C450.566 366.73 450.625 366.6 450.653 366.549C450.682 366.496 450.647 366.583 450.5 366.687L448.175 363.433C447.268 364.081 446.856 365.117 446.635 365.945L450.5 366.975ZM450.639 366.579C450.613 366.601 450.586 366.619 450.562 366.632C450.539 366.645 450.523 366.651 450.518 366.652C450.509 366.655 450.552 366.64 450.668 366.64V362.64C449.777 362.64 448.823 362.867 448.036 363.541L450.639 366.579ZM450.668 366.64H458.648V362.64H450.668V366.64ZM458.648 366.64C458.632 366.64 458.569 366.637 458.483 366.602C458.394 366.566 458.325 366.516 458.284 366.474L461.112 363.646C460.433 362.966 459.563 362.64 458.648 362.64V366.64ZM458.396 366.579C458.368 366.554 458.305 366.489 458.253 366.378C458.201 366.266 458.188 366.166 458.188 366.11H462.188C462.188 365.09 461.757 364.191 460.999 363.541L458.396 366.579ZM458.189 366.035C458.106 368.246 457.609 370.196 456.727 371.919L460.288 373.741C461.46 371.45 462.083 368.921 462.186 366.185L458.189 366.035ZM456.727 371.919C455.837 373.659 454.578 375.191 452.919 376.518L455.417 379.642C457.491 377.982 459.125 376.015 460.288 373.741L456.727 371.919ZM452.919 376.518C451.27 377.837 449.284 378.871 446.927 379.599L448.109 383.421C450.885 382.563 453.332 381.31 455.417 379.642L452.919 376.518ZM446.927 379.599C444.58 380.325 441.936 380.7 438.978 380.7V384.7C442.273 384.7 445.322 384.282 448.109 383.421L446.927 379.599Z" fill="white" mask="url(#path-56-outside-1_141_91)"></path>
  </g>
  <defs>
    <linearGradient id="paint0_linear_141_91" x1="-174" y1="774.999" x2="866.254" y2="775.004" gradientUnits="userSpaceOnUse">
      <stop></stop>
      <stop offset="1" stop-color="white" stop-opacity="0.5"></stop>
    </linearGradient>
    <linearGradient id="paint1_linear_141_91" x1="-174" y1="759.999" x2="866.254" y2="760.004" gradientUnits="userSpaceOnUse">
      <stop></stop>
      <stop offset="1" stop-color="white" stop-opacity="0.5"></stop>
    </linearGradient>
    <linearGradient id="paint2_linear_141_91" x1="-174" y1="744.999" x2="866.254" y2="745.004" gradientUnits="userSpaceOnUse">
      <stop></stop>
      <stop offset="1" stop-color="white" stop-opacity="0.5"></stop>
    </linearGradient>
    <linearGradient id="paint3_linear_141_91" x1="-174" y1="729.999" x2="866.254" y2="730.004" gradientUnits="userSpaceOnUse">
      <stop></stop>
      <stop offset="1" stop-color="white" stop-opacity="0.5"></stop>
    </linearGradient>
    <linearGradient id="paint4_linear_141_91" x1="-174" y1="714.999" x2="866.254" y2="715.004" gradientUnits="userSpaceOnUse">
      <stop></stop>
      <stop offset="1" stop-color="white" stop-opacity="0.5"></stop>
    </linearGradient>
    <linearGradient id="paint5_linear_141_91" x1="-174" y1="699.999" x2="866.254" y2="700.004" gradientUnits="userSpaceOnUse">
      <stop></stop>
      <stop offset="1" stop-color="white" stop-opacity="0.5"></stop>
    </linearGradient>
    <linearGradient id="paint6_linear_141_91" x1="-174" y1="684.999" x2="866.254" y2="685.004" gradientUnits="userSpaceOnUse">
      <stop></stop>
      <stop offset="1" stop-color="white" stop-opacity="0.5"></stop>
    </linearGradient>
    <linearGradient id="paint7_linear_141_91" x1="-174" y1="669.999" x2="866.254" y2="670.004" gradientUnits="userSpaceOnUse">
      <stop></stop>
      <stop offset="1" stop-color="white" stop-opacity="0.5"></stop>
    </linearGradient>
    <linearGradient id="paint8_linear_141_91" x1="-174" y1="654.999" x2="866.254" y2="655.004" gradientUnits="userSpaceOnUse">
      <stop></stop>
      <stop offset="1" stop-color="white" stop-opacity="0.5"></stop>
    </linearGradient>
    <linearGradient id="paint9_linear_141_91" x1="-174" y1="639.999" x2="866.254" y2="640.004" gradientUnits="userSpaceOnUse">
      <stop></stop>
      <stop offset="1" stop-color="white" stop-opacity="0.5"></stop>
    </linearGradient>
    <linearGradient id="paint10_linear_141_91" x1="-174" y1="624.999" x2="866.254" y2="625.004" gradientUnits="userSpaceOnUse">
      <stop></stop>
      <stop offset="1" stop-color="white" stop-opacity="0.5"></stop>
    </linearGradient>
    <linearGradient id="paint11_linear_141_91" x1="-174" y1="609.999" x2="866.254" y2="610.004" gradientUnits="userSpaceOnUse">
      <stop></stop>
      <stop offset="1" stop-color="white" stop-opacity="0.5"></stop>
    </linearGradient>
    <linearGradient id="paint12_linear_141_91" x1="-174" y1="594.999" x2="866.254" y2="595.004" gradientUnits="userSpaceOnUse">
      <stop></stop>
      <stop offset="1" stop-color="white" stop-opacity="0.5"></stop>
    </linearGradient>
    <linearGradient id="paint13_linear_141_91" x1="-174" y1="579.999" x2="866.254" y2="580.004" gradientUnits="userSpaceOnUse">
      <stop></stop>
      <stop offset="1" stop-color="white" stop-opacity="0.5"></stop>
    </linearGradient>
    <linearGradient id="paint14_linear_141_91" x1="-174" y1="564.999" x2="866.254" y2="565.004" gradientUnits="userSpaceOnUse">
      <stop></stop>
      <stop offset="1" stop-color="white" stop-opacity="0.5"></stop>
    </linearGradient>
    <linearGradient id="paint15_linear_141_91" x1="-174" y1="549.999" x2="866.254" y2="550.004" gradientUnits="userSpaceOnUse">
      <stop></stop>
      <stop offset="1" stop-color="white" stop-opacity="0.5"></stop>
    </linearGradient>
    <linearGradient id="paint16_linear_141_91" x1="-174" y1="534.999" x2="866.254" y2="535.004" gradientUnits="userSpaceOnUse">
      <stop></stop>
      <stop offset="1" stop-color="white" stop-opacity="0.5"></stop>
    </linearGradient>
    <linearGradient id="paint17_linear_141_91" x1="-174" y1="519.999" x2="866.254" y2="520.004" gradientUnits="userSpaceOnUse">
      <stop></stop>
      <stop offset="1" stop-color="white" stop-opacity="0.5"></stop>
    </linearGradient>
    <linearGradient id="paint18_linear_141_91" x1="-174" y1="504.999" x2="866.254" y2="505.004" gradientUnits="userSpaceOnUse">
      <stop></stop>
      <stop offset="1" stop-color="white" stop-opacity="0.5"></stop>
    </linearGradient>
    <linearGradient id="paint19_linear_141_91" x1="-174" y1="489.999" x2="866.254" y2="490.004" gradientUnits="userSpaceOnUse">
      <stop></stop>
      <stop offset="1" stop-color="white" stop-opacity="0.5"></stop>
    </linearGradient>
    <linearGradient id="paint20_linear_141_91" x1="-174" y1="474.999" x2="866.254" y2="475.004" gradientUnits="userSpaceOnUse">
      <stop></stop>
      <stop offset="1" stop-color="white" stop-opacity="0.5"></stop>
    </linearGradient>
    <linearGradient id="paint21_linear_141_91" x1="-174" y1="459.999" x2="866.254" y2="460.004" gradientUnits="userSpaceOnUse">
      <stop></stop>
      <stop offset="1" stop-color="white" stop-opacity="0.5"></stop>
    </linearGradient>
    <linearGradient id="paint22_linear_141_91" x1="-174" y1="444.999" x2="866.254" y2="445.004" gradientUnits="userSpaceOnUse">
      <stop></stop>
      <stop offset="1" stop-color="white" stop-opacity="0.5"></stop>
    </linearGradient>
    <linearGradient id="paint23_linear_141_91" x1="-174" y1="429.999" x2="866.254" y2="430.004" gradientUnits="userSpaceOnUse">
      <stop></stop>
      <stop offset="1" stop-color="white" stop-opacity="0.5"></stop>
    </linearGradient>
    <linearGradient id="paint24_linear_141_91" x1="-174" y1="414.999" x2="866.254" y2="415.004" gradientUnits="userSpaceOnUse">
      <stop></stop>
      <stop offset="1" stop-color="white" stop-opacity="0.5"></stop>
    </linearGradient>
    <linearGradient id="paint25_linear_141_91" x1="-174" y1="399.999" x2="866.254" y2="400.004" gradientUnits="userSpaceOnUse">
      <stop></stop>
      <stop offset="1" stop-color="white" stop-opacity="0.5"></stop>
    </linearGradient>
    <linearGradient id="paint26_linear_141_91" x1="-174" y1="384.999" x2="866.254" y2="385.004" gradientUnits="userSpaceOnUse">
      <stop></stop>
      <stop offset="1" stop-color="white" stop-opacity="0.5"></stop>
    </linearGradient>
    <linearGradient id="paint27_linear_141_91" x1="-174" y1="369.999" x2="866.254" y2="370.004" gradientUnits="userSpaceOnUse">
      <stop></stop>
      <stop offset="1" stop-color="white" stop-opacity="0.5"></stop>
    </linearGradient>
    <linearGradient id="paint28_linear_141_91" x1="-174" y1="354.999" x2="866.254" y2="355.004" gradientUnits="userSpaceOnUse">
      <stop></stop>
      <stop offset="1" stop-color="white" stop-opacity="0.5"></stop>
    </linearGradient>
    <linearGradient id="paint29_linear_141_91" x1="-174" y1="339.999" x2="866.254" y2="340.004" gradientUnits="userSpaceOnUse">
      <stop></stop>
      <stop offset="1" stop-color="white" stop-opacity="0.5"></stop>
    </linearGradient>
    <linearGradient id="paint30_linear_141_91" x1="-174" y1="324.999" x2="866.254" y2="325.004" gradientUnits="userSpaceOnUse">
      <stop></stop>
      <stop offset="1" stop-color="white" stop-opacity="0.5"></stop>
    </linearGradient>
    <linearGradient id="paint31_linear_141_91" x1="-174" y1="309.999" x2="866.254" y2="310.004" gradientUnits="userSpaceOnUse">
      <stop></stop>
      <stop offset="1" stop-color="white" stop-opacity="0.5"></stop>
    </linearGradient>
    <linearGradient id="paint32_linear_141_91" x1="-174" y1="294.999" x2="866.254" y2="295.004" gradientUnits="userSpaceOnUse">
      <stop></stop>
      <stop offset="1" stop-color="white" stop-opacity="0.5"></stop>
    </linearGradient>
    <linearGradient id="paint33_linear_141_91" x1="-174" y1="279.999" x2="866.254" y2="280.004" gradientUnits="userSpaceOnUse">
      <stop></stop>
      <stop offset="1" stop-color="white" stop-opacity="0.5"></stop>
    </linearGradient>
    <linearGradient id="paint34_linear_141_91" x1="-174" y1="264.999" x2="866.254" y2="265.004" gradientUnits="userSpaceOnUse">
      <stop></stop>
      <stop offset="1" stop-color="white" stop-opacity="0.5"></stop>
    </linearGradient>
    <linearGradient id="paint35_linear_141_91" x1="-174" y1="249.999" x2="866.254" y2="250.004" gradientUnits="userSpaceOnUse">
      <stop></stop>
      <stop offset="1" stop-color="white" stop-opacity="0.5"></stop>
    </linearGradient>
    <linearGradient id="paint36_linear_141_91" x1="-174" y1="234.999" x2="866.254" y2="235.004" gradientUnits="userSpaceOnUse">
      <stop></stop>
      <stop offset="1" stop-color="white" stop-opacity="0.5"></stop>
    </linearGradient>
    <linearGradient id="paint37_linear_141_91" x1="-174" y1="219.999" x2="866.254" y2="220.004" gradientUnits="userSpaceOnUse">
      <stop></stop>
      <stop offset="1" stop-color="white" stop-opacity="0.5"></stop>
    </linearGradient>
    <linearGradient id="paint38_linear_141_91" x1="-174" y1="204.999" x2="866.254" y2="205.004" gradientUnits="userSpaceOnUse">
      <stop></stop>
      <stop offset="1" stop-color="white" stop-opacity="0.5"></stop>
    </linearGradient>
    <linearGradient id="paint39_linear_141_91" x1="-174" y1="189.999" x2="866.254" y2="190.004" gradientUnits="userSpaceOnUse">
      <stop></stop>
      <stop offset="1" stop-color="white" stop-opacity="0.5"></stop>
    </linearGradient>
    <linearGradient id="paint40_linear_141_91" x1="-174" y1="174.999" x2="866.254" y2="175.004" gradientUnits="userSpaceOnUse">
      <stop></stop>
      <stop offset="1" stop-color="white" stop-opacity="0.5"></stop>
    </linearGradient>
    <linearGradient id="paint41_linear_141_91" x1="-174" y1="159.999" x2="866.254" y2="160.004" gradientUnits="userSpaceOnUse">
      <stop></stop>
      <stop offset="1" stop-color="white" stop-opacity="0.5"></stop>
    </linearGradient>
    <linearGradient id="paint42_linear_141_91" x1="-174" y1="144.999" x2="866.254" y2="145.004" gradientUnits="userSpaceOnUse">
      <stop></stop>
      <stop offset="1" stop-color="white" stop-opacity="0.5"></stop>
    </linearGradient>
    <linearGradient id="paint43_linear_141_91" x1="-174" y1="129.999" x2="866.254" y2="130.004" gradientUnits="userSpaceOnUse">
      <stop></stop>
      <stop offset="1" stop-color="white" stop-opacity="0.5"></stop>
    </linearGradient>
    <linearGradient id="paint44_linear_141_91" x1="-174" y1="114.999" x2="866.254" y2="115.004" gradientUnits="userSpaceOnUse">
      <stop></stop>
      <stop offset="1" stop-color="white" stop-opacity="0.5"></stop>
    </linearGradient>
    <linearGradient id="paint45_linear_141_91" x1="-174" y1="99.999" x2="866.254" y2="100.004" gradientUnits="userSpaceOnUse">
      <stop></stop>
      <stop offset="1" stop-color="white" stop-opacity="0.5"></stop>
    </linearGradient>
    <linearGradient id="paint46_linear_141_91" x1="-174" y1="84.999" x2="866.254" y2="85.004" gradientUnits="userSpaceOnUse">
      <stop></stop>
      <stop offset="1" stop-color="white" stop-opacity="0.5"></stop>
    </linearGradient>
    <linearGradient id="paint47_linear_141_91" x1="-174" y1="69.999" x2="866.254" y2="70.004" gradientUnits="userSpaceOnUse">
      <stop></stop>
      <stop offset="1" stop-color="white" stop-opacity="0.5"></stop>
    </linearGradient>
    <linearGradient id="paint48_linear_141_91" x1="-174" y1="54.999" x2="866.254" y2="55.004" gradientUnits="userSpaceOnUse">
      <stop></stop>
      <stop offset="1" stop-color="white" stop-opacity="0.5"></stop>
    </linearGradient>
    <linearGradient id="paint49_linear_141_91" x1="-174" y1="39.999" x2="866.254" y2="40.004" gradientUnits="userSpaceOnUse">
      <stop></stop>
      <stop offset="1" stop-color="white" stop-opacity="0.5"></stop>
    </linearGradient>
    <linearGradient id="paint50_linear_141_91" x1="-174" y1="24.999" x2="866.254" y2="25.004" gradientUnits="userSpaceOnUse">
      <stop></stop>
      <stop offset="1" stop-color="white" stop-opacity="0.5"></stop>
    </linearGradient>
    <linearGradient id="paint51_linear_141_91" x1="-174" y1="9.99902" x2="866.254" y2="10.004" gradientUnits="userSpaceOnUse">
      <stop></stop>
      <stop offset="1" stop-color="white" stop-opacity="0.5"></stop>
    </linearGradient>
    <linearGradient id="paint52_linear_141_91" x1="-174" y1="-5.00098" x2="866.254" y2="-4.99601" gradientUnits="userSpaceOnUse">
      <stop></stop>
      <stop offset="1" stop-color="white" stop-opacity="0.5"></stop>
    </linearGradient>
    <clipPath id="clip0_141_91">
      <rect width="1923" height="780" fill="white"></rect>
    </clipPath>
  </defs>
</svg>
