<?xml version="1.0" encoding="UTF-8"?>
<svg xmlns="http://www.w3.org/2000/svg" width="1765" height="624" viewBox="0 0 1765 624" fill="none">
  <rect width="1764" height="623" fill="#1E1E1E"></rect>
  <path d="M1412 309.171C1302.66 167.111 1533.16 176.422 1764.5 325.985V600.485H1430.83C1455.35 500.02 1539.17 464.134 1412 309.171Z" fill="#0E0E0E" fill-opacity="0.15"></path>
  <path d="M9.08471e-06 380.239C2.95253e-05 185.757 306.956 176.801 257.238 380.239C207.52 583.676 363.069 589.422 267.887 623.221H9.08471e-06C9.08471e-06 623.221 -1.13559e-05 574.721 9.08471e-06 380.239Z" fill="#0E0E0E" fill-opacity="0.15"></path>
  <g opacity="0.4">
    <circle cx="422.5" cy="177.5" r="99" fill="black" fill-opacity="0.2" stroke="#2E2E2E" stroke-width="5"></circle>
    <path d="M470.914 188.787L461.447 181.384C461.567 180.242 461.67 178.908 461.67 177.496C461.67 176.084 461.571 174.749 461.447 173.607L470.923 166.2C472.683 164.81 473.163 162.342 472.043 160.286L462.198 143.252C461.147 141.33 458.842 140.343 456.503 141.205L445.332 145.69C443.19 144.145 440.946 142.84 438.624 141.798L436.924 129.948C436.645 127.7 434.688 126 432.375 126H412.634C410.32 126 408.368 127.7 408.093 129.914L406.389 141.806C404.14 142.819 401.93 144.107 399.694 145.699L388.493 141.201C386.394 140.39 383.884 141.3 382.841 143.214L372.983 160.269C371.82 162.235 372.3 164.788 374.099 166.213L383.566 173.616C383.416 175.062 383.343 176.32 383.343 177.5C383.343 178.68 383.416 179.938 383.566 181.388L374.09 188.796C372.33 190.19 371.854 192.658 372.974 194.71L382.819 211.743C383.871 213.662 386.154 214.657 388.514 213.79L399.686 209.306C401.823 210.846 404.067 212.151 406.389 213.198L408.089 225.043C408.368 227.3 410.32 229 412.638 229H432.379C434.693 229 436.65 227.3 436.924 225.086L438.628 213.198C440.877 212.181 443.083 210.898 445.323 209.301L456.524 213.799C457.065 214.009 457.627 214.116 458.207 214.116C459.872 214.116 461.404 213.207 462.177 211.79L472.065 194.667C473.163 192.658 472.683 190.19 470.914 188.787ZM422.504 194.667C413.037 194.667 405.338 186.967 405.338 177.5C405.338 168.033 413.037 160.333 422.504 160.333C431.972 160.333 439.671 168.033 439.671 177.5C439.671 186.967 431.972 194.667 422.504 194.667Z" fill="#525252"></path>
  </g>
  <mask id="mask0_142_187" style="mask-type:alpha" maskUnits="userSpaceOnUse" x="1182" y="320" width="202" height="214">
    <circle cx="1187" cy="325" r="5" fill="#D9D9D9"></circle>
    <circle cx="1187" cy="337" r="5" fill="#D9D9D9"></circle>
    <circle cx="1187" cy="349" r="5" fill="#D9D9D9"></circle>
    <circle cx="1187" cy="361" r="5" fill="#D9D9D9"></circle>
    <circle cx="1187" cy="373" r="5" fill="#D9D9D9"></circle>
    <circle cx="1187" cy="385" r="5" fill="#D9D9D9"></circle>
    <circle cx="1187" cy="397" r="5" fill="#D9D9D9"></circle>
    <circle cx="1187" cy="409" r="5" fill="#D9D9D9"></circle>
    <circle cx="1187" cy="421" r="5" fill="#D9D9D9"></circle>
    <circle cx="1187" cy="433" r="5" fill="#D9D9D9"></circle>
    <circle cx="1187" cy="445" r="5" fill="#D9D9D9"></circle>
    <circle cx="1187" cy="457" r="5" fill="#D9D9D9"></circle>
    <circle cx="1187" cy="469" r="5" fill="#D9D9D9"></circle>
    <circle cx="1187" cy="481" r="5" fill="#D9D9D9"></circle>
    <circle cx="1187" cy="493" r="5" fill="#D9D9D9"></circle>
    <circle cx="1187" cy="505" r="5" fill="#D9D9D9"></circle>
    <circle cx="1187" cy="517" r="5" fill="#D9D9D9"></circle>
    <circle cx="1187" cy="529" r="5" fill="#D9D9D9"></circle>
    <circle cx="1199" cy="325" r="5" fill="#D9D9D9"></circle>
    <circle cx="1199" cy="337" r="5" fill="#D9D9D9"></circle>
    <circle cx="1199" cy="349" r="5" fill="#D9D9D9"></circle>
    <circle cx="1199" cy="361" r="5" fill="#D9D9D9"></circle>
    <circle cx="1199" cy="373" r="5" fill="#D9D9D9"></circle>
    <circle cx="1199" cy="385" r="5" fill="#D9D9D9"></circle>
    <circle cx="1199" cy="397" r="5" fill="#D9D9D9"></circle>
    <circle cx="1199" cy="409" r="5" fill="#D9D9D9"></circle>
    <circle cx="1199" cy="421" r="5" fill="#D9D9D9"></circle>
    <circle cx="1199" cy="433" r="5" fill="#D9D9D9"></circle>
    <circle cx="1199" cy="445" r="5" fill="#D9D9D9"></circle>
    <circle cx="1199" cy="457" r="5" fill="#D9D9D9"></circle>
    <circle cx="1199" cy="469" r="5" fill="#D9D9D9"></circle>
    <circle cx="1199" cy="481" r="5" fill="#D9D9D9"></circle>
    <circle cx="1199" cy="493" r="5" fill="#D9D9D9"></circle>
    <circle cx="1199" cy="505" r="5" fill="#D9D9D9"></circle>
    <circle cx="1199" cy="517" r="5" fill="#D9D9D9"></circle>
    <circle cx="1199" cy="529" r="5" fill="#D9D9D9"></circle>
    <circle cx="1211" cy="325" r="5" fill="#D9D9D9"></circle>
    <circle cx="1211" cy="337" r="5" fill="#D9D9D9"></circle>
    <circle cx="1211" cy="349" r="5" fill="#D9D9D9"></circle>
    <circle cx="1211" cy="361" r="5" fill="#D9D9D9"></circle>
    <circle cx="1211" cy="373" r="5" fill="#D9D9D9"></circle>
    <circle cx="1211" cy="385" r="5" fill="#D9D9D9"></circle>
    <circle cx="1211" cy="397" r="5" fill="#D9D9D9"></circle>
    <circle cx="1211" cy="409" r="5" fill="#D9D9D9"></circle>
    <circle cx="1211" cy="421" r="5" fill="#D9D9D9"></circle>
    <circle cx="1211" cy="433" r="5" fill="#D9D9D9"></circle>
    <circle cx="1211" cy="445" r="5" fill="#D9D9D9"></circle>
    <circle cx="1211" cy="457" r="5" fill="#D9D9D9"></circle>
    <circle cx="1211" cy="469" r="5" fill="#D9D9D9"></circle>
    <circle cx="1211" cy="481" r="5" fill="#D9D9D9"></circle>
    <circle cx="1211" cy="493" r="5" fill="#D9D9D9"></circle>
    <circle cx="1211" cy="505" r="5" fill="#D9D9D9"></circle>
    <circle cx="1211" cy="517" r="5" fill="#D9D9D9"></circle>
    <circle cx="1211" cy="529" r="5" fill="#D9D9D9"></circle>
    <circle cx="1223" cy="325" r="5" fill="#D9D9D9"></circle>
    <circle cx="1223" cy="337" r="5" fill="#D9D9D9"></circle>
    <circle cx="1223" cy="349" r="5" fill="#D9D9D9"></circle>
    <circle cx="1223" cy="361" r="5" fill="#D9D9D9"></circle>
    <circle cx="1223" cy="373" r="5" fill="#D9D9D9"></circle>
    <circle cx="1223" cy="385" r="5" fill="#D9D9D9"></circle>
    <circle cx="1223" cy="397" r="5" fill="#D9D9D9"></circle>
    <circle cx="1223" cy="409" r="5" fill="#D9D9D9"></circle>
    <circle cx="1223" cy="421" r="5" fill="#D9D9D9"></circle>
    <circle cx="1223" cy="433" r="5" fill="#D9D9D9"></circle>
    <circle cx="1223" cy="445" r="5" fill="#D9D9D9"></circle>
    <circle cx="1223" cy="457" r="5" fill="#D9D9D9"></circle>
    <circle cx="1223" cy="469" r="5" fill="#D9D9D9"></circle>
    <circle cx="1223" cy="481" r="5" fill="#D9D9D9"></circle>
    <circle cx="1223" cy="493" r="5" fill="#D9D9D9"></circle>
    <circle cx="1223" cy="505" r="5" fill="#D9D9D9"></circle>
    <circle cx="1223" cy="517" r="5" fill="#D9D9D9"></circle>
    <circle cx="1223" cy="529" r="5" fill="#D9D9D9"></circle>
    <circle cx="1235" cy="325" r="5" fill="#D9D9D9"></circle>
    <circle cx="1235" cy="337" r="5" fill="#D9D9D9"></circle>
    <circle cx="1235" cy="349" r="5" fill="#D9D9D9"></circle>
    <circle cx="1235" cy="361" r="5" fill="#D9D9D9"></circle>
    <circle cx="1235" cy="373" r="5" fill="#D9D9D9"></circle>
    <circle cx="1235" cy="385" r="5" fill="#D9D9D9"></circle>
    <circle cx="1235" cy="397" r="5" fill="#D9D9D9"></circle>
    <circle cx="1235" cy="409" r="5" fill="#D9D9D9"></circle>
    <circle cx="1235" cy="421" r="5" fill="#D9D9D9"></circle>
    <circle cx="1235" cy="433" r="5" fill="#D9D9D9"></circle>
    <circle cx="1235" cy="445" r="5" fill="#D9D9D9"></circle>
    <circle cx="1235" cy="457" r="5" fill="#D9D9D9"></circle>
    <circle cx="1235" cy="469" r="5" fill="#D9D9D9"></circle>
    <circle cx="1235" cy="481" r="5" fill="#D9D9D9"></circle>
    <circle cx="1235" cy="493" r="5" fill="#D9D9D9"></circle>
    <circle cx="1235" cy="505" r="5" fill="#D9D9D9"></circle>
    <circle cx="1235" cy="517" r="5" fill="#D9D9D9"></circle>
    <circle cx="1235" cy="529" r="5" fill="#D9D9D9"></circle>
    <circle cx="1247" cy="325" r="5" fill="#D9D9D9"></circle>
    <circle cx="1247" cy="337" r="5" fill="#D9D9D9"></circle>
    <circle cx="1247" cy="349" r="5" fill="#D9D9D9"></circle>
    <circle cx="1247" cy="361" r="5" fill="#D9D9D9"></circle>
    <circle cx="1247" cy="373" r="5" fill="#D9D9D9"></circle>
    <circle cx="1247" cy="385" r="5" fill="#D9D9D9"></circle>
    <circle cx="1247" cy="397" r="5" fill="#D9D9D9"></circle>
    <circle cx="1247" cy="409" r="5" fill="#D9D9D9"></circle>
    <circle cx="1247" cy="421" r="5" fill="#D9D9D9"></circle>
    <circle cx="1247" cy="433" r="5" fill="#D9D9D9"></circle>
    <circle cx="1247" cy="445" r="5" fill="#D9D9D9"></circle>
    <circle cx="1247" cy="457" r="5" fill="#D9D9D9"></circle>
    <circle cx="1247" cy="469" r="5" fill="#D9D9D9"></circle>
    <circle cx="1247" cy="481" r="5" fill="#D9D9D9"></circle>
    <circle cx="1247" cy="493" r="5" fill="#D9D9D9"></circle>
    <circle cx="1247" cy="505" r="5" fill="#D9D9D9"></circle>
    <circle cx="1247" cy="517" r="5" fill="#D9D9D9"></circle>
    <circle cx="1247" cy="529" r="5" fill="#D9D9D9"></circle>
    <circle cx="1259" cy="325" r="5" fill="#D9D9D9"></circle>
    <circle cx="1259" cy="337" r="5" fill="#D9D9D9"></circle>
    <circle cx="1259" cy="349" r="5" fill="#D9D9D9"></circle>
    <circle cx="1259" cy="361" r="5" fill="#D9D9D9"></circle>
    <circle cx="1259" cy="373" r="5" fill="#D9D9D9"></circle>
    <circle cx="1259" cy="385" r="5" fill="#D9D9D9"></circle>
    <circle cx="1259" cy="397" r="5" fill="#D9D9D9"></circle>
    <circle cx="1259" cy="409" r="5" fill="#D9D9D9"></circle>
    <circle cx="1259" cy="421" r="5" fill="#D9D9D9"></circle>
    <circle cx="1259" cy="433" r="5" fill="#D9D9D9"></circle>
    <circle cx="1259" cy="445" r="5" fill="#D9D9D9"></circle>
    <circle cx="1259" cy="457" r="5" fill="#D9D9D9"></circle>
    <circle cx="1259" cy="469" r="5" fill="#D9D9D9"></circle>
    <circle cx="1259" cy="481" r="5" fill="#D9D9D9"></circle>
    <circle cx="1259" cy="493" r="5" fill="#D9D9D9"></circle>
    <circle cx="1259" cy="505" r="5" fill="#D9D9D9"></circle>
    <circle cx="1259" cy="517" r="5" fill="#D9D9D9"></circle>
    <circle cx="1259" cy="529" r="5" fill="#D9D9D9"></circle>
    <circle cx="1271" cy="325" r="5" fill="#D9D9D9"></circle>
    <circle cx="1271" cy="337" r="5" fill="#D9D9D9"></circle>
    <circle cx="1271" cy="349" r="5" fill="#D9D9D9"></circle>
    <circle cx="1271" cy="361" r="5" fill="#D9D9D9"></circle>
    <circle cx="1271" cy="373" r="5" fill="#D9D9D9"></circle>
    <circle cx="1271" cy="385" r="5" fill="#D9D9D9"></circle>
    <circle cx="1271" cy="397" r="5" fill="#D9D9D9"></circle>
    <circle cx="1271" cy="409" r="5" fill="#D9D9D9"></circle>
    <circle cx="1271" cy="421" r="5" fill="#D9D9D9"></circle>
    <circle cx="1271" cy="433" r="5" fill="#D9D9D9"></circle>
    <circle cx="1271" cy="445" r="5" fill="#D9D9D9"></circle>
    <circle cx="1271" cy="457" r="5" fill="#D9D9D9"></circle>
    <circle cx="1271" cy="469" r="5" fill="#D9D9D9"></circle>
    <circle cx="1271" cy="481" r="5" fill="#D9D9D9"></circle>
    <circle cx="1271" cy="493" r="5" fill="#D9D9D9"></circle>
    <circle cx="1271" cy="505" r="5" fill="#D9D9D9"></circle>
    <circle cx="1271" cy="517" r="5" fill="#D9D9D9"></circle>
    <circle cx="1271" cy="529" r="5" fill="#D9D9D9"></circle>
    <circle cx="1283" cy="325" r="5" fill="#D9D9D9"></circle>
    <circle cx="1283" cy="337" r="5" fill="#D9D9D9"></circle>
    <circle cx="1283" cy="349" r="5" fill="#D9D9D9"></circle>
    <circle cx="1283" cy="361" r="5" fill="#D9D9D9"></circle>
    <circle cx="1283" cy="373" r="5" fill="#D9D9D9"></circle>
    <circle cx="1283" cy="385" r="5" fill="#D9D9D9"></circle>
    <circle cx="1283" cy="397" r="5" fill="#D9D9D9"></circle>
    <circle cx="1283" cy="409" r="5" fill="#D9D9D9"></circle>
    <circle cx="1283" cy="421" r="5" fill="#D9D9D9"></circle>
    <circle cx="1283" cy="433" r="5" fill="#D9D9D9"></circle>
    <circle cx="1283" cy="445" r="5" fill="#D9D9D9"></circle>
    <circle cx="1283" cy="457" r="5" fill="#D9D9D9"></circle>
    <circle cx="1283" cy="469" r="5" fill="#D9D9D9"></circle>
    <circle cx="1283" cy="481" r="5" fill="#D9D9D9"></circle>
    <circle cx="1283" cy="493" r="5" fill="#D9D9D9"></circle>
    <circle cx="1283" cy="505" r="5" fill="#D9D9D9"></circle>
    <circle cx="1283" cy="517" r="5" fill="#D9D9D9"></circle>
    <circle cx="1283" cy="529" r="5" fill="#D9D9D9"></circle>
    <circle cx="1295" cy="325" r="5" fill="#D9D9D9"></circle>
    <circle cx="1295" cy="337" r="5" fill="#D9D9D9"></circle>
    <circle cx="1295" cy="349" r="5" fill="#D9D9D9"></circle>
    <circle cx="1295" cy="361" r="5" fill="#D9D9D9"></circle>
    <circle cx="1295" cy="373" r="5" fill="#D9D9D9"></circle>
    <circle cx="1295" cy="385" r="5" fill="#D9D9D9"></circle>
    <circle cx="1295" cy="397" r="5" fill="#D9D9D9"></circle>
    <circle cx="1295" cy="409" r="5" fill="#D9D9D9"></circle>
    <circle cx="1295" cy="421" r="5" fill="#D9D9D9"></circle>
    <circle cx="1295" cy="433" r="5" fill="#D9D9D9"></circle>
    <circle cx="1295" cy="445" r="5" fill="#D9D9D9"></circle>
    <circle cx="1295" cy="457" r="5" fill="#D9D9D9"></circle>
    <circle cx="1295" cy="469" r="5" fill="#D9D9D9"></circle>
    <circle cx="1295" cy="481" r="5" fill="#D9D9D9"></circle>
    <circle cx="1295" cy="493" r="5" fill="#D9D9D9"></circle>
    <circle cx="1295" cy="505" r="5" fill="#D9D9D9"></circle>
    <circle cx="1295" cy="517" r="5" fill="#D9D9D9"></circle>
    <circle cx="1295" cy="529" r="5" fill="#D9D9D9"></circle>
    <circle cx="1307" cy="325" r="5" fill="#D9D9D9"></circle>
    <circle cx="1307" cy="337" r="5" fill="#D9D9D9"></circle>
    <circle cx="1307" cy="349" r="5" fill="#D9D9D9"></circle>
    <circle cx="1307" cy="361" r="5" fill="#D9D9D9"></circle>
    <circle cx="1307" cy="373" r="5" fill="#D9D9D9"></circle>
    <circle cx="1307" cy="385" r="5" fill="#D9D9D9"></circle>
    <circle cx="1307" cy="397" r="5" fill="#D9D9D9"></circle>
    <circle cx="1307" cy="409" r="5" fill="#D9D9D9"></circle>
    <circle cx="1307" cy="421" r="5" fill="#D9D9D9"></circle>
    <circle cx="1307" cy="433" r="5" fill="#D9D9D9"></circle>
    <circle cx="1307" cy="445" r="5" fill="#D9D9D9"></circle>
    <circle cx="1307" cy="457" r="5" fill="#D9D9D9"></circle>
    <circle cx="1307" cy="469" r="5" fill="#D9D9D9"></circle>
    <circle cx="1307" cy="481" r="5" fill="#D9D9D9"></circle>
    <circle cx="1307" cy="493" r="5" fill="#D9D9D9"></circle>
    <circle cx="1307" cy="505" r="5" fill="#D9D9D9"></circle>
    <circle cx="1307" cy="517" r="5" fill="#D9D9D9"></circle>
    <circle cx="1307" cy="529" r="5" fill="#D9D9D9"></circle>
    <circle cx="1319" cy="325" r="5" fill="#D9D9D9"></circle>
    <circle cx="1319" cy="337" r="5" fill="#D9D9D9"></circle>
    <circle cx="1319" cy="349" r="5" fill="#D9D9D9"></circle>
    <circle cx="1319" cy="361" r="5" fill="#D9D9D9"></circle>
    <circle cx="1319" cy="373" r="5" fill="#D9D9D9"></circle>
    <circle cx="1319" cy="385" r="5" fill="#D9D9D9"></circle>
    <circle cx="1319" cy="397" r="5" fill="#D9D9D9"></circle>
    <circle cx="1319" cy="409" r="5" fill="#D9D9D9"></circle>
    <circle cx="1319" cy="421" r="5" fill="#D9D9D9"></circle>
    <circle cx="1319" cy="433" r="5" fill="#D9D9D9"></circle>
    <circle cx="1319" cy="445" r="5" fill="#D9D9D9"></circle>
    <circle cx="1319" cy="457" r="5" fill="#D9D9D9"></circle>
    <circle cx="1319" cy="469" r="5" fill="#D9D9D9"></circle>
    <circle cx="1319" cy="481" r="5" fill="#D9D9D9"></circle>
    <circle cx="1319" cy="493" r="5" fill="#D9D9D9"></circle>
    <circle cx="1319" cy="505" r="5" fill="#D9D9D9"></circle>
    <circle cx="1319" cy="517" r="5" fill="#D9D9D9"></circle>
    <circle cx="1319" cy="529" r="5" fill="#D9D9D9"></circle>
    <circle cx="1331" cy="325" r="5" fill="#D9D9D9"></circle>
    <circle cx="1331" cy="337" r="5" fill="#D9D9D9"></circle>
    <circle cx="1331" cy="349" r="5" fill="#D9D9D9"></circle>
    <circle cx="1331" cy="361" r="5" fill="#D9D9D9"></circle>
    <circle cx="1331" cy="373" r="5" fill="#D9D9D9"></circle>
    <circle cx="1331" cy="385" r="5" fill="#D9D9D9"></circle>
    <circle cx="1331" cy="397" r="5" fill="#D9D9D9"></circle>
    <circle cx="1331" cy="409" r="5" fill="#D9D9D9"></circle>
    <circle cx="1331" cy="421" r="5" fill="#D9D9D9"></circle>
    <circle cx="1331" cy="433" r="5" fill="#D9D9D9"></circle>
    <circle cx="1331" cy="445" r="5" fill="#D9D9D9"></circle>
    <circle cx="1331" cy="457" r="5" fill="#D9D9D9"></circle>
    <circle cx="1331" cy="469" r="5" fill="#D9D9D9"></circle>
    <circle cx="1331" cy="481" r="5" fill="#D9D9D9"></circle>
    <circle cx="1331" cy="493" r="5" fill="#D9D9D9"></circle>
    <circle cx="1331" cy="505" r="5" fill="#D9D9D9"></circle>
    <circle cx="1331" cy="517" r="5" fill="#D9D9D9"></circle>
    <circle cx="1331" cy="529" r="5" fill="#D9D9D9"></circle>
    <circle cx="1343" cy="325" r="5" fill="#D9D9D9"></circle>
    <circle cx="1343" cy="337" r="5" fill="#D9D9D9"></circle>
    <circle cx="1343" cy="349" r="5" fill="#D9D9D9"></circle>
    <circle cx="1343" cy="361" r="5" fill="#D9D9D9"></circle>
    <circle cx="1343" cy="373" r="5" fill="#D9D9D9"></circle>
    <circle cx="1343" cy="385" r="5" fill="#D9D9D9"></circle>
    <circle cx="1343" cy="397" r="5" fill="#D9D9D9"></circle>
    <circle cx="1343" cy="409" r="5" fill="#D9D9D9"></circle>
    <circle cx="1343" cy="421" r="5" fill="#D9D9D9"></circle>
    <circle cx="1343" cy="433" r="5" fill="#D9D9D9"></circle>
    <circle cx="1343" cy="445" r="5" fill="#D9D9D9"></circle>
    <circle cx="1343" cy="457" r="5" fill="#D9D9D9"></circle>
    <circle cx="1343" cy="469" r="5" fill="#D9D9D9"></circle>
    <circle cx="1343" cy="481" r="5" fill="#D9D9D9"></circle>
    <circle cx="1343" cy="493" r="5" fill="#D9D9D9"></circle>
    <circle cx="1343" cy="505" r="5" fill="#D9D9D9"></circle>
    <circle cx="1343" cy="517" r="5" fill="#D9D9D9"></circle>
    <circle cx="1343" cy="529" r="5" fill="#D9D9D9"></circle>
    <circle cx="1355" cy="325" r="5" fill="#D9D9D9"></circle>
    <circle cx="1355" cy="337" r="5" fill="#D9D9D9"></circle>
    <circle cx="1355" cy="349" r="5" fill="#D9D9D9"></circle>
    <circle cx="1355" cy="361" r="5" fill="#D9D9D9"></circle>
    <circle cx="1355" cy="373" r="5" fill="#D9D9D9"></circle>
    <circle cx="1355" cy="385" r="5" fill="#D9D9D9"></circle>
    <circle cx="1355" cy="397" r="5" fill="#D9D9D9"></circle>
    <circle cx="1355" cy="409" r="5" fill="#D9D9D9"></circle>
    <circle cx="1355" cy="421" r="5" fill="#D9D9D9"></circle>
    <circle cx="1355" cy="433" r="5" fill="#D9D9D9"></circle>
    <circle cx="1355" cy="445" r="5" fill="#D9D9D9"></circle>
    <circle cx="1355" cy="457" r="5" fill="#D9D9D9"></circle>
    <circle cx="1355" cy="469" r="5" fill="#D9D9D9"></circle>
    <circle cx="1355" cy="481" r="5" fill="#D9D9D9"></circle>
    <circle cx="1355" cy="493" r="5" fill="#D9D9D9"></circle>
    <circle cx="1355" cy="505" r="5" fill="#D9D9D9"></circle>
    <circle cx="1355" cy="517" r="5" fill="#D9D9D9"></circle>
    <circle cx="1355" cy="529" r="5" fill="#D9D9D9"></circle>
    <circle cx="1367" cy="325" r="5" fill="#D9D9D9"></circle>
    <circle cx="1367" cy="337" r="5" fill="#D9D9D9"></circle>
    <circle cx="1367" cy="349" r="5" fill="#D9D9D9"></circle>
    <circle cx="1367" cy="361" r="5" fill="#D9D9D9"></circle>
    <circle cx="1367" cy="373" r="5" fill="#D9D9D9"></circle>
    <circle cx="1367" cy="385" r="5" fill="#D9D9D9"></circle>
    <circle cx="1367" cy="397" r="5" fill="#D9D9D9"></circle>
    <circle cx="1367" cy="409" r="5" fill="#D9D9D9"></circle>
    <circle cx="1367" cy="421" r="5" fill="#D9D9D9"></circle>
    <circle cx="1367" cy="433" r="5" fill="#D9D9D9"></circle>
    <circle cx="1367" cy="445" r="5" fill="#D9D9D9"></circle>
    <circle cx="1367" cy="457" r="5" fill="#D9D9D9"></circle>
    <circle cx="1367" cy="469" r="5" fill="#D9D9D9"></circle>
    <circle cx="1367" cy="481" r="5" fill="#D9D9D9"></circle>
    <circle cx="1367" cy="493" r="5" fill="#D9D9D9"></circle>
    <circle cx="1367" cy="505" r="5" fill="#D9D9D9"></circle>
    <circle cx="1367" cy="517" r="5" fill="#D9D9D9"></circle>
    <circle cx="1367" cy="529" r="5" fill="#D9D9D9"></circle>
    <circle cx="1379" cy="325" r="5" fill="#D9D9D9"></circle>
    <circle cx="1379" cy="337" r="5" fill="#D9D9D9"></circle>
    <circle cx="1379" cy="349" r="5" fill="#D9D9D9"></circle>
    <circle cx="1379" cy="361" r="5" fill="#D9D9D9"></circle>
    <circle cx="1379" cy="373" r="5" fill="#D9D9D9"></circle>
    <circle cx="1379" cy="385" r="5" fill="#D9D9D9"></circle>
    <circle cx="1379" cy="397" r="5" fill="#D9D9D9"></circle>
    <circle cx="1379" cy="409" r="5" fill="#D9D9D9"></circle>
    <circle cx="1379" cy="421" r="5" fill="#D9D9D9"></circle>
    <circle cx="1379" cy="433" r="5" fill="#D9D9D9"></circle>
    <circle cx="1379" cy="445" r="5" fill="#D9D9D9"></circle>
    <circle cx="1379" cy="457" r="5" fill="#D9D9D9"></circle>
    <circle cx="1379" cy="469" r="5" fill="#D9D9D9"></circle>
    <circle cx="1379" cy="481" r="5" fill="#D9D9D9"></circle>
    <circle cx="1379" cy="493" r="5" fill="#D9D9D9"></circle>
    <circle cx="1379" cy="505" r="5" fill="#D9D9D9"></circle>
    <circle cx="1379" cy="517" r="5" fill="#D9D9D9"></circle>
    <circle cx="1379" cy="529" r="5" fill="#D9D9D9"></circle>
  </mask>
  <g mask="url(#mask0_142_187)">
    <circle cx="1283" cy="427" r="101" fill="#272727"></circle>
  </g>
</svg>
