<?xml version="1.0" encoding="UTF-8"?>
<svg xmlns="http://www.w3.org/2000/svg" width="1858" height="787" viewBox="0 0 1858 787" fill="none">
  <g clip-path="url(#clip0_144_521)">
    <rect width="1858" height="787" fill="#0E0E0E"></rect>
    <mask id="mask0_144_521" style="mask-type:alpha" maskUnits="userSpaceOnUse" x="1086" y="-4" width="776" height="1133">
      <path d="M1858 4C1860.21 4 1862 2.20914 1862 0C1862 -2.20914 1860.21 -4 1858 -4V4ZM1086 4H1858V-4H1086V4Z" fill="url(#paint0_linear_144_521)"></path>
      <path d="M1858 19C1860.21 19 1862 17.2091 1862 15C1862 12.7909 1860.21 11 1858 11V19ZM1086 19H1858V11H1086V19Z" fill="url(#paint1_linear_144_521)"></path>
      <path d="M1858 34C1860.21 34 1862 32.2091 1862 30C1862 27.7909 1860.21 26 1858 26V34ZM1086 34H1858V26H1086V34Z" fill="url(#paint2_linear_144_521)"></path>
      <path d="M1858 49C1860.21 49 1862 47.2091 1862 45C1862 42.7909 1860.21 41 1858 41V49ZM1086 49H1858V41H1086V49Z" fill="url(#paint3_linear_144_521)"></path>
      <path d="M1858 64C1860.21 64 1862 62.2091 1862 60C1862 57.7909 1860.21 56 1858 56V64ZM1086 64H1858V56H1086V64Z" fill="url(#paint4_linear_144_521)"></path>
      <path d="M1858 79C1860.21 79 1862 77.2091 1862 75C1862 72.7909 1860.21 71 1858 71V79ZM1086 79H1858V71H1086V79Z" fill="url(#paint5_linear_144_521)"></path>
      <path d="M1858 94C1860.21 94 1862 92.2091 1862 90C1862 87.7909 1860.21 86 1858 86V94ZM1086 94H1858V86H1086V94Z" fill="url(#paint6_linear_144_521)"></path>
      <path d="M1858 109C1860.21 109 1862 107.209 1862 105C1862 102.791 1860.21 101 1858 101V109ZM1086 109H1858V101H1086V109Z" fill="url(#paint7_linear_144_521)"></path>
      <path d="M1858 124C1860.21 124 1862 122.209 1862 120C1862 117.791 1860.21 116 1858 116V124ZM1086 124H1858V116H1086V124Z" fill="url(#paint8_linear_144_521)"></path>
      <path d="M1858 139C1860.21 139 1862 137.209 1862 135C1862 132.791 1860.21 131 1858 131V139ZM1086 139H1858V131H1086V139Z" fill="url(#paint9_linear_144_521)"></path>
      <path d="M1858 154C1860.21 154 1862 152.209 1862 150C1862 147.791 1860.21 146 1858 146V154ZM1086 154H1858V146H1086V154Z" fill="url(#paint10_linear_144_521)"></path>
      <path d="M1858 169C1860.21 169 1862 167.209 1862 165C1862 162.791 1860.21 161 1858 161V169ZM1086 169H1858V161H1086V169Z" fill="url(#paint11_linear_144_521)"></path>
      <path d="M1858 184C1860.21 184 1862 182.209 1862 180C1862 177.791 1860.21 176 1858 176V184ZM1086 184H1858V176H1086V184Z" fill="url(#paint12_linear_144_521)"></path>
      <path d="M1858 199C1860.21 199 1862 197.209 1862 195C1862 192.791 1860.21 191 1858 191V199ZM1086 199H1858V191H1086V199Z" fill="url(#paint13_linear_144_521)"></path>
      <path d="M1858 214C1860.21 214 1862 212.209 1862 210C1862 207.791 1860.21 206 1858 206V214ZM1086 214H1858V206H1086V214Z" fill="url(#paint14_linear_144_521)"></path>
      <path d="M1858 229C1860.21 229 1862 227.209 1862 225C1862 222.791 1860.21 221 1858 221V229ZM1086 229H1858V221H1086V229Z" fill="url(#paint15_linear_144_521)"></path>
      <path d="M1858 244C1860.21 244 1862 242.209 1862 240C1862 237.791 1860.21 236 1858 236V244ZM1086 244H1858V236H1086V244Z" fill="url(#paint16_linear_144_521)"></path>
      <path d="M1858 259C1860.21 259 1862 257.209 1862 255C1862 252.791 1860.21 251 1858 251V259ZM1086 259H1858V251H1086V259Z" fill="url(#paint17_linear_144_521)"></path>
      <path d="M1858 274C1860.21 274 1862 272.209 1862 270C1862 267.791 1860.21 266 1858 266V274ZM1086 274H1858V266H1086V274Z" fill="url(#paint18_linear_144_521)"></path>
      <path d="M1858 289C1860.21 289 1862 287.209 1862 285C1862 282.791 1860.21 281 1858 281V289ZM1086 289H1858V281H1086V289Z" fill="url(#paint19_linear_144_521)"></path>
      <path d="M1858 304C1860.21 304 1862 302.209 1862 300C1862 297.791 1860.21 296 1858 296V304ZM1086 304H1858V296H1086V304Z" fill="url(#paint20_linear_144_521)"></path>
      <path d="M1858 319C1860.21 319 1862 317.209 1862 315C1862 312.791 1860.21 311 1858 311V319ZM1086 319H1858V311H1086V319Z" fill="url(#paint21_linear_144_521)"></path>
      <path d="M1858 334C1860.21 334 1862 332.209 1862 330C1862 327.791 1860.21 326 1858 326V334ZM1086 334H1858V326H1086V334Z" fill="url(#paint22_linear_144_521)"></path>
      <path d="M1858 349C1860.21 349 1862 347.209 1862 345C1862 342.791 1860.21 341 1858 341V349ZM1086 349H1858V341H1086V349Z" fill="url(#paint23_linear_144_521)"></path>
      <path d="M1858 364C1860.21 364 1862 362.209 1862 360C1862 357.791 1860.21 356 1858 356V364ZM1086 364H1858V356H1086V364Z" fill="url(#paint24_linear_144_521)"></path>
      <path d="M1858 379C1860.21 379 1862 377.209 1862 375C1862 372.791 1860.21 371 1858 371V379ZM1086 379H1858V371H1086V379Z" fill="url(#paint25_linear_144_521)"></path>
      <path d="M1858 394C1860.21 394 1862 392.209 1862 390C1862 387.791 1860.21 386 1858 386V394ZM1086 394H1858V386H1086V394Z" fill="url(#paint26_linear_144_521)"></path>
      <path d="M1858 409C1860.21 409 1862 407.209 1862 405C1862 402.791 1860.21 401 1858 401V409ZM1086 409H1858V401H1086V409Z" fill="url(#paint27_linear_144_521)"></path>
      <path d="M1858 424C1860.21 424 1862 422.209 1862 420C1862 417.791 1860.21 416 1858 416V424ZM1086 424H1858V416H1086V424Z" fill="url(#paint28_linear_144_521)"></path>
      <path d="M1858 439C1860.21 439 1862 437.209 1862 435C1862 432.791 1860.21 431 1858 431V439ZM1086 439H1858V431H1086V439Z" fill="url(#paint29_linear_144_521)"></path>
      <path d="M1858 454C1860.21 454 1862 452.209 1862 450C1862 447.791 1860.21 446 1858 446V454ZM1086 454H1858V446H1086V454Z" fill="url(#paint30_linear_144_521)"></path>
      <path d="M1858 469C1860.21 469 1862 467.209 1862 465C1862 462.791 1860.21 461 1858 461V469ZM1086 469H1858V461H1086V469Z" fill="url(#paint31_linear_144_521)"></path>
      <path d="M1858 484C1860.21 484 1862 482.209 1862 480C1862 477.791 1860.21 476 1858 476V484ZM1086 484H1858V476H1086V484Z" fill="url(#paint32_linear_144_521)"></path>
      <path d="M1858 499C1860.21 499 1862 497.209 1862 495C1862 492.791 1860.21 491 1858 491V499ZM1086 499H1858V491H1086V499Z" fill="url(#paint33_linear_144_521)"></path>
      <path d="M1858 514C1860.21 514 1862 512.209 1862 510C1862 507.791 1860.21 506 1858 506V514ZM1086 514H1858V506H1086V514Z" fill="url(#paint34_linear_144_521)"></path>
      <path d="M1858 529C1860.21 529 1862 527.209 1862 525C1862 522.791 1860.21 521 1858 521V529ZM1086 529H1858V521H1086V529Z" fill="url(#paint35_linear_144_521)"></path>
      <path d="M1858 544C1860.21 544 1862 542.209 1862 540C1862 537.791 1860.21 536 1858 536V544ZM1086 544H1858V536H1086V544Z" fill="url(#paint36_linear_144_521)"></path>
      <path d="M1858 559C1860.21 559 1862 557.209 1862 555C1862 552.791 1860.21 551 1858 551V559ZM1086 559H1858V551H1086V559Z" fill="url(#paint37_linear_144_521)"></path>
      <path d="M1858 574C1860.21 574 1862 572.209 1862 570C1862 567.791 1860.21 566 1858 566V574ZM1086 574H1858V566H1086V574Z" fill="url(#paint38_linear_144_521)"></path>
      <path d="M1858 589C1860.21 589 1862 587.209 1862 585C1862 582.791 1860.21 581 1858 581V589ZM1086 589H1858V581H1086V589Z" fill="url(#paint39_linear_144_521)"></path>
      <path d="M1858 604C1860.21 604 1862 602.209 1862 600C1862 597.791 1860.21 596 1858 596V604ZM1086 604H1858V596H1086V604Z" fill="url(#paint40_linear_144_521)"></path>
      <path d="M1858 619C1860.21 619 1862 617.209 1862 615C1862 612.791 1860.21 611 1858 611V619ZM1086 619H1858V611H1086V619Z" fill="url(#paint41_linear_144_521)"></path>
      <path d="M1858 634C1860.21 634 1862 632.209 1862 630C1862 627.791 1860.21 626 1858 626V634ZM1086 634H1858V626H1086V634Z" fill="url(#paint42_linear_144_521)"></path>
      <path d="M1858 649C1860.21 649 1862 647.209 1862 645C1862 642.791 1860.21 641 1858 641V649ZM1086 649H1858V641H1086V649Z" fill="url(#paint43_linear_144_521)"></path>
      <path d="M1858 664C1860.21 664 1862 662.209 1862 660C1862 657.791 1860.21 656 1858 656V664ZM1086 664H1858V656H1086V664Z" fill="url(#paint44_linear_144_521)"></path>
      <path d="M1858 679C1860.21 679 1862 677.209 1862 675C1862 672.791 1860.21 671 1858 671V679ZM1086 679H1858V671H1086V679Z" fill="url(#paint45_linear_144_521)"></path>
      <path d="M1858 694C1860.21 694 1862 692.209 1862 690C1862 687.791 1860.21 686 1858 686V694ZM1086 694H1858V686H1086V694Z" fill="url(#paint46_linear_144_521)"></path>
      <path d="M1858 709C1860.21 709 1862 707.209 1862 705C1862 702.791 1860.21 701 1858 701V709ZM1086 709H1858V701H1086V709Z" fill="url(#paint47_linear_144_521)"></path>
      <path d="M1858 724C1860.21 724 1862 722.209 1862 720C1862 717.791 1860.21 716 1858 716V724ZM1086 724H1858V716H1086V724Z" fill="url(#paint48_linear_144_521)"></path>
      <path d="M1858 739C1860.21 739 1862 737.209 1862 735C1862 732.791 1860.21 731 1858 731V739ZM1086 739H1858V731H1086V739Z" fill="url(#paint49_linear_144_521)"></path>
      <path d="M1858 754C1860.21 754 1862 752.209 1862 750C1862 747.791 1860.21 746 1858 746V754ZM1086 754H1858V746H1086V754Z" fill="url(#paint50_linear_144_521)"></path>
      <path d="M1858 769C1860.21 769 1862 767.209 1862 765C1862 762.791 1860.21 761 1858 761V769ZM1086 769H1858V761H1086V769Z" fill="url(#paint51_linear_144_521)"></path>
      <path d="M1858 784C1860.21 784 1862 782.209 1862 780C1862 777.791 1860.21 776 1858 776V784ZM1086 784H1858V776H1086V784Z" fill="url(#paint52_linear_144_521)"></path>
    </mask>
    <g mask="url(#mask0_144_521)">
      <path d="M1884.5 787.269L1168 787.269L1397.5 16.0015L1884.5 16.0015V787.269Z" fill="#1D1D1D"></path>
    </g>
  </g>
  <defs>
    <linearGradient id="paint0_linear_144_521" x1="1858" y1="5.00098" x2="1040.2" y2="4.99791" gradientUnits="userSpaceOnUse">
      <stop></stop>
      <stop offset="1" stop-color="white" stop-opacity="0.5"></stop>
    </linearGradient>
    <linearGradient id="paint1_linear_144_521" x1="1858" y1="20.001" x2="1040.2" y2="19.9979" gradientUnits="userSpaceOnUse">
      <stop></stop>
      <stop offset="1" stop-color="white" stop-opacity="0.5"></stop>
    </linearGradient>
    <linearGradient id="paint2_linear_144_521" x1="1858" y1="35.001" x2="1040.2" y2="34.9979" gradientUnits="userSpaceOnUse">
      <stop></stop>
      <stop offset="1" stop-color="white" stop-opacity="0.5"></stop>
    </linearGradient>
    <linearGradient id="paint3_linear_144_521" x1="1858" y1="50.001" x2="1040.2" y2="49.9979" gradientUnits="userSpaceOnUse">
      <stop></stop>
      <stop offset="1" stop-color="white" stop-opacity="0.5"></stop>
    </linearGradient>
    <linearGradient id="paint4_linear_144_521" x1="1858" y1="65.001" x2="1040.2" y2="64.9979" gradientUnits="userSpaceOnUse">
      <stop></stop>
      <stop offset="1" stop-color="white" stop-opacity="0.5"></stop>
    </linearGradient>
    <linearGradient id="paint5_linear_144_521" x1="1858" y1="80.001" x2="1040.2" y2="79.9979" gradientUnits="userSpaceOnUse">
      <stop></stop>
      <stop offset="1" stop-color="white" stop-opacity="0.5"></stop>
    </linearGradient>
    <linearGradient id="paint6_linear_144_521" x1="1858" y1="95.001" x2="1040.2" y2="94.9979" gradientUnits="userSpaceOnUse">
      <stop></stop>
      <stop offset="1" stop-color="white" stop-opacity="0.5"></stop>
    </linearGradient>
    <linearGradient id="paint7_linear_144_521" x1="1858" y1="110.001" x2="1040.2" y2="109.998" gradientUnits="userSpaceOnUse">
      <stop></stop>
      <stop offset="1" stop-color="white" stop-opacity="0.5"></stop>
    </linearGradient>
    <linearGradient id="paint8_linear_144_521" x1="1858" y1="125.001" x2="1040.2" y2="124.998" gradientUnits="userSpaceOnUse">
      <stop></stop>
      <stop offset="1" stop-color="white" stop-opacity="0.5"></stop>
    </linearGradient>
    <linearGradient id="paint9_linear_144_521" x1="1858" y1="140.001" x2="1040.2" y2="139.998" gradientUnits="userSpaceOnUse">
      <stop></stop>
      <stop offset="1" stop-color="white" stop-opacity="0.5"></stop>
    </linearGradient>
    <linearGradient id="paint10_linear_144_521" x1="1858" y1="155.001" x2="1040.2" y2="154.998" gradientUnits="userSpaceOnUse">
      <stop></stop>
      <stop offset="1" stop-color="white" stop-opacity="0.5"></stop>
    </linearGradient>
    <linearGradient id="paint11_linear_144_521" x1="1858" y1="170.001" x2="1040.2" y2="169.998" gradientUnits="userSpaceOnUse">
      <stop></stop>
      <stop offset="1" stop-color="white" stop-opacity="0.5"></stop>
    </linearGradient>
    <linearGradient id="paint12_linear_144_521" x1="1858" y1="185.001" x2="1040.2" y2="184.998" gradientUnits="userSpaceOnUse">
      <stop></stop>
      <stop offset="1" stop-color="white" stop-opacity="0.5"></stop>
    </linearGradient>
    <linearGradient id="paint13_linear_144_521" x1="1858" y1="200.001" x2="1040.2" y2="199.998" gradientUnits="userSpaceOnUse">
      <stop></stop>
      <stop offset="1" stop-color="white" stop-opacity="0.5"></stop>
    </linearGradient>
    <linearGradient id="paint14_linear_144_521" x1="1858" y1="215.001" x2="1040.2" y2="214.998" gradientUnits="userSpaceOnUse">
      <stop></stop>
      <stop offset="1" stop-color="white" stop-opacity="0.5"></stop>
    </linearGradient>
    <linearGradient id="paint15_linear_144_521" x1="1858" y1="230.001" x2="1040.2" y2="229.998" gradientUnits="userSpaceOnUse">
      <stop></stop>
      <stop offset="1" stop-color="white" stop-opacity="0.5"></stop>
    </linearGradient>
    <linearGradient id="paint16_linear_144_521" x1="1858" y1="245.001" x2="1040.2" y2="244.998" gradientUnits="userSpaceOnUse">
      <stop></stop>
      <stop offset="1" stop-color="white" stop-opacity="0.5"></stop>
    </linearGradient>
    <linearGradient id="paint17_linear_144_521" x1="1858" y1="260.001" x2="1040.2" y2="259.998" gradientUnits="userSpaceOnUse">
      <stop></stop>
      <stop offset="1" stop-color="white" stop-opacity="0.5"></stop>
    </linearGradient>
    <linearGradient id="paint18_linear_144_521" x1="1858" y1="275.001" x2="1040.2" y2="274.998" gradientUnits="userSpaceOnUse">
      <stop></stop>
      <stop offset="1" stop-color="white" stop-opacity="0.5"></stop>
    </linearGradient>
    <linearGradient id="paint19_linear_144_521" x1="1858" y1="290.001" x2="1040.2" y2="289.998" gradientUnits="userSpaceOnUse">
      <stop></stop>
      <stop offset="1" stop-color="white" stop-opacity="0.5"></stop>
    </linearGradient>
    <linearGradient id="paint20_linear_144_521" x1="1858" y1="305.001" x2="1040.2" y2="304.998" gradientUnits="userSpaceOnUse">
      <stop></stop>
      <stop offset="1" stop-color="white" stop-opacity="0.5"></stop>
    </linearGradient>
    <linearGradient id="paint21_linear_144_521" x1="1858" y1="320.001" x2="1040.2" y2="319.998" gradientUnits="userSpaceOnUse">
      <stop></stop>
      <stop offset="1" stop-color="white" stop-opacity="0.5"></stop>
    </linearGradient>
    <linearGradient id="paint22_linear_144_521" x1="1858" y1="335.001" x2="1040.2" y2="334.998" gradientUnits="userSpaceOnUse">
      <stop></stop>
      <stop offset="1" stop-color="white" stop-opacity="0.5"></stop>
    </linearGradient>
    <linearGradient id="paint23_linear_144_521" x1="1858" y1="350.001" x2="1040.2" y2="349.998" gradientUnits="userSpaceOnUse">
      <stop></stop>
      <stop offset="1" stop-color="white" stop-opacity="0.5"></stop>
    </linearGradient>
    <linearGradient id="paint24_linear_144_521" x1="1858" y1="365.001" x2="1040.2" y2="364.998" gradientUnits="userSpaceOnUse">
      <stop></stop>
      <stop offset="1" stop-color="white" stop-opacity="0.5"></stop>
    </linearGradient>
    <linearGradient id="paint25_linear_144_521" x1="1858" y1="380.001" x2="1040.2" y2="379.998" gradientUnits="userSpaceOnUse">
      <stop></stop>
      <stop offset="1" stop-color="white" stop-opacity="0.5"></stop>
    </linearGradient>
    <linearGradient id="paint26_linear_144_521" x1="1858" y1="395.001" x2="1040.2" y2="394.998" gradientUnits="userSpaceOnUse">
      <stop></stop>
      <stop offset="1" stop-color="white" stop-opacity="0.5"></stop>
    </linearGradient>
    <linearGradient id="paint27_linear_144_521" x1="1858" y1="410.001" x2="1040.2" y2="409.998" gradientUnits="userSpaceOnUse">
      <stop></stop>
      <stop offset="1" stop-color="white" stop-opacity="0.5"></stop>
    </linearGradient>
    <linearGradient id="paint28_linear_144_521" x1="1858" y1="425.001" x2="1040.2" y2="424.998" gradientUnits="userSpaceOnUse">
      <stop></stop>
      <stop offset="1" stop-color="white" stop-opacity="0.5"></stop>
    </linearGradient>
    <linearGradient id="paint29_linear_144_521" x1="1858" y1="440.001" x2="1040.2" y2="439.998" gradientUnits="userSpaceOnUse">
      <stop></stop>
      <stop offset="1" stop-color="white" stop-opacity="0.5"></stop>
    </linearGradient>
    <linearGradient id="paint30_linear_144_521" x1="1858" y1="455.001" x2="1040.2" y2="454.998" gradientUnits="userSpaceOnUse">
      <stop></stop>
      <stop offset="1" stop-color="white" stop-opacity="0.5"></stop>
    </linearGradient>
    <linearGradient id="paint31_linear_144_521" x1="1858" y1="470.001" x2="1040.2" y2="469.998" gradientUnits="userSpaceOnUse">
      <stop></stop>
      <stop offset="1" stop-color="white" stop-opacity="0.5"></stop>
    </linearGradient>
    <linearGradient id="paint32_linear_144_521" x1="1858" y1="485.001" x2="1040.2" y2="484.998" gradientUnits="userSpaceOnUse">
      <stop></stop>
      <stop offset="1" stop-color="white" stop-opacity="0.5"></stop>
    </linearGradient>
    <linearGradient id="paint33_linear_144_521" x1="1858" y1="500.001" x2="1040.2" y2="499.998" gradientUnits="userSpaceOnUse">
      <stop></stop>
      <stop offset="1" stop-color="white" stop-opacity="0.5"></stop>
    </linearGradient>
    <linearGradient id="paint34_linear_144_521" x1="1858" y1="515.001" x2="1040.2" y2="514.998" gradientUnits="userSpaceOnUse">
      <stop></stop>
      <stop offset="1" stop-color="white" stop-opacity="0.5"></stop>
    </linearGradient>
    <linearGradient id="paint35_linear_144_521" x1="1858" y1="530.001" x2="1040.2" y2="529.998" gradientUnits="userSpaceOnUse">
      <stop></stop>
      <stop offset="1" stop-color="white" stop-opacity="0.5"></stop>
    </linearGradient>
    <linearGradient id="paint36_linear_144_521" x1="1858" y1="545.001" x2="1040.2" y2="544.998" gradientUnits="userSpaceOnUse">
      <stop></stop>
      <stop offset="1" stop-color="white" stop-opacity="0.5"></stop>
    </linearGradient>
    <linearGradient id="paint37_linear_144_521" x1="1858" y1="560.001" x2="1040.2" y2="559.998" gradientUnits="userSpaceOnUse">
      <stop></stop>
      <stop offset="1" stop-color="white" stop-opacity="0.5"></stop>
    </linearGradient>
    <linearGradient id="paint38_linear_144_521" x1="1858" y1="575.001" x2="1040.2" y2="574.998" gradientUnits="userSpaceOnUse">
      <stop></stop>
      <stop offset="1" stop-color="white" stop-opacity="0.5"></stop>
    </linearGradient>
    <linearGradient id="paint39_linear_144_521" x1="1858" y1="590.001" x2="1040.2" y2="589.998" gradientUnits="userSpaceOnUse">
      <stop></stop>
      <stop offset="1" stop-color="white" stop-opacity="0.5"></stop>
    </linearGradient>
    <linearGradient id="paint40_linear_144_521" x1="1858" y1="605.001" x2="1040.2" y2="604.998" gradientUnits="userSpaceOnUse">
      <stop></stop>
      <stop offset="1" stop-color="white" stop-opacity="0.5"></stop>
    </linearGradient>
    <linearGradient id="paint41_linear_144_521" x1="1858" y1="620.001" x2="1040.2" y2="619.998" gradientUnits="userSpaceOnUse">
      <stop></stop>
      <stop offset="1" stop-color="white" stop-opacity="0.5"></stop>
    </linearGradient>
    <linearGradient id="paint42_linear_144_521" x1="1858" y1="635.001" x2="1040.2" y2="634.998" gradientUnits="userSpaceOnUse">
      <stop></stop>
      <stop offset="1" stop-color="white" stop-opacity="0.5"></stop>
    </linearGradient>
    <linearGradient id="paint43_linear_144_521" x1="1858" y1="650.001" x2="1040.2" y2="649.998" gradientUnits="userSpaceOnUse">
      <stop></stop>
      <stop offset="1" stop-color="white" stop-opacity="0.5"></stop>
    </linearGradient>
    <linearGradient id="paint44_linear_144_521" x1="1858" y1="665.001" x2="1040.2" y2="664.998" gradientUnits="userSpaceOnUse">
      <stop></stop>
      <stop offset="1" stop-color="white" stop-opacity="0.5"></stop>
    </linearGradient>
    <linearGradient id="paint45_linear_144_521" x1="1858" y1="680.001" x2="1040.2" y2="679.998" gradientUnits="userSpaceOnUse">
      <stop></stop>
      <stop offset="1" stop-color="white" stop-opacity="0.5"></stop>
    </linearGradient>
    <linearGradient id="paint46_linear_144_521" x1="1858" y1="695.001" x2="1040.2" y2="694.998" gradientUnits="userSpaceOnUse">
      <stop></stop>
      <stop offset="1" stop-color="white" stop-opacity="0.5"></stop>
    </linearGradient>
    <linearGradient id="paint47_linear_144_521" x1="1858" y1="710.001" x2="1040.2" y2="709.998" gradientUnits="userSpaceOnUse">
      <stop></stop>
      <stop offset="1" stop-color="white" stop-opacity="0.5"></stop>
    </linearGradient>
    <linearGradient id="paint48_linear_144_521" x1="1858" y1="725.001" x2="1040.2" y2="724.998" gradientUnits="userSpaceOnUse">
      <stop></stop>
      <stop offset="1" stop-color="white" stop-opacity="0.5"></stop>
    </linearGradient>
    <linearGradient id="paint49_linear_144_521" x1="1858" y1="740.001" x2="1040.2" y2="739.998" gradientUnits="userSpaceOnUse">
      <stop></stop>
      <stop offset="1" stop-color="white" stop-opacity="0.5"></stop>
    </linearGradient>
    <linearGradient id="paint50_linear_144_521" x1="1858" y1="755.001" x2="1040.2" y2="754.998" gradientUnits="userSpaceOnUse">
      <stop></stop>
      <stop offset="1" stop-color="white" stop-opacity="0.5"></stop>
    </linearGradient>
    <linearGradient id="paint51_linear_144_521" x1="1858" y1="770.001" x2="1040.2" y2="769.998" gradientUnits="userSpaceOnUse">
      <stop></stop>
      <stop offset="1" stop-color="white" stop-opacity="0.5"></stop>
    </linearGradient>
    <linearGradient id="paint52_linear_144_521" x1="1858" y1="785.001" x2="1040.2" y2="784.998" gradientUnits="userSpaceOnUse">
      <stop></stop>
      <stop offset="1" stop-color="white" stop-opacity="0.5"></stop>
    </linearGradient>
    <clipPath id="clip0_144_521">
      <rect width="1858" height="787" fill="white"></rect>
    </clipPath>
  </defs>
</svg>
